<?xml version="1.0" standalone="no"?>
<!DOCTYPE svg PUBLIC "-//W3C//DTD SVG 1.1//EN" "http://www.w3.org/Graphics/SVG/1.1/DTD/svg11.dtd" >
<svg>
<metadata>
Created by FontForge 20090622 at Wed Mar 29 11:57:39 2017
 By deploy user
</metadata>
<defs>
<font id="Circular-Book" horiz-adv-x="560" >
  <font-face 
    font-family="Circular Book"
    font-weight="400"
    font-stretch="normal"
    units-per-em="1000"
    panose-1="2 0 5 3 0 0 0 2 0 3"
    ascent="809"
    descent="-191"
    x-height="481"
    cap-height="709"
    bbox="-46 -232 1487 1021"
    underline-thickness="80"
    underline-position="-115"
    unicode-range="U+0020-U+FEFF"
  />
<missing-glyph horiz-adv-x="562" 
d="M80 709h402v-709h-402v709zM403 79v551h-244v-551h244z" />
    <glyph glyph-name="f_f" unicode="ff" horiz-adv-x="659" 
d="M598 639q-12 0 -25.5 -3.5t-25 -12.5t-18.5 -25t-7 -41v-76h116v-85h-116v-396h-97v396h-219v-396h-97v396h-89v85h89v81q0 40 12.5 71t34 52t50 31.5t61.5 10.5q24 0 38.5 -4t17.5 -6v-84q-4 2 -13.5 4t-27.5 2q-12 0 -25.5 -3.5t-25 -12.5t-18.5 -25t-7 -41v-76h219v81
q0 40 12.5 71t34 52t50 31.5t61.5 10.5q24 0 38.5 -4t17.5 -6v-84q-4 2 -13.5 4t-27.5 2z" />
    <glyph glyph-name="f_f_i" unicode="ffi" horiz-adv-x="920" 
d="M109 562q0 40 12.5 71t34 52t50 31.5t61.5 10.5q24 0 38.5 -4t17.5 -6v-84q-4 2 -13.5 4t-27.5 2q-12 0 -25.5 -3.5t-25 -12.5t-18.5 -25t-7 -41v-76h219v81q0 40 12.5 71t34 52t50 31.5t61.5 10.5q24 0 38.5 -4t17.5 -6v-84q-4 2 -13.5 4t-27.5 2q-12 0 -25.5 -3.5
t-25 -12.5t-18.5 -25t-7 -41v-76h318v-481h-93v396h-225v-396h-97v396h-219v-396h-97v396h-89v85h89v81zM726 665q0 29 19.5 48.5t47.5 19.5q29 0 48.5 -19.5t19.5 -48.5q0 -28 -19.5 -47.5t-48.5 -19.5q-28 0 -47.5 19.5t-19.5 47.5z" />
    <glyph glyph-name="f_f_l" unicode="ffl" horiz-adv-x="920" 
d="M109 562q0 40 12.5 71t34 52t50 31.5t61.5 10.5q24 0 38.5 -4t17.5 -6v-84q-4 2 -13.5 4t-27.5 2q-12 0 -25.5 -3.5t-25 -12.5t-18.5 -25t-7 -41v-76h219v81q0 40 12.5 71t34 52t50 31.5t61.5 10.5q24 0 38.5 -4t17.5 -6v-84q-4 2 -13.5 4t-27.5 2q-12 0 -25.5 -3.5
t-25 -12.5t-18.5 -25t-7 -41v-76h225v243h93v-724h-93v396h-225v-396h-97v396h-219v-396h-97v396h-89v85h89v81z" />
    <glyph glyph-name="f_i" unicode="fi" horiz-adv-x="604" 
d="M267 727q24 0 38.5 -4t17.5 -6v-84q-4 2 -13.5 4t-27.5 2q-12 0 -25.5 -3.5t-25 -12.5t-18.5 -24.5t-7 -40.5v-77h318v-481h-93v396h-225v-396h-97v396h-89v85h89v81q0 40 12.5 71t34 52t50 31.5t61.5 10.5zM410 665q0 29 19.5 48.5t47.5 19.5q29 0 48.5 -19.5
t19.5 -48.5q0 -28 -19.5 -47.5t-48.5 -19.5q-28 0 -47.5 19.5t-19.5 47.5z" />
    <glyph glyph-name="f_l" unicode="fl" horiz-adv-x="602" 
d="M282 639q-12 0 -25.5 -3.5t-25 -12.5t-18.5 -25t-7 -41v-76h222v243h94v-724h-94v396h-222v-396h-97v396h-89v85h89v81q0 40 12.5 71t34 52t50 31.5t61.5 10.5q24 0 38.5 -4t17.5 -6v-84q-4 2 -13.5 4t-27.5 2z" />
    <glyph glyph-name=".notdef" horiz-adv-x="562" 
d="M80 709h402v-709h-402v709zM403 79v551h-244v-551h244z" />
    <glyph glyph-name=".null" horiz-adv-x="0" 
 />
    <glyph glyph-name="nonmarkingreturn" horiz-adv-x="250" 
 />
    <glyph glyph-name="space" unicode=" " horiz-adv-x="250" 
 />
    <glyph glyph-name="exclam" unicode="!" horiz-adv-x="311" 
d="M189 203h-67l-26 506h118zM90 60q0 27 19 46.5t46 19.5t46.5 -19.5t19.5 -46.5t-19.5 -46t-46.5 -19t-46 19t-19 46z" />
    <glyph glyph-name="quotedbl" unicode="&#x22;" horiz-adv-x="374" 
d="M40 599q0 27 17 44t44 17q26 0 43 -17t17 -44q0 -8 -2 -18l-42 -188h-34l-41 187q-2 10 -2 19zM213 599q0 27 17 44t44 17q26 0 43 -17t17 -44q0 -8 -2 -18l-42 -188h-34l-41 187q-2 10 -2 19z" />
    <glyph glyph-name="numbersign" unicode="#" horiz-adv-x="738" 
d="M99 481h144l36 167h84l-36 -167h142l36 167h84l-36 -167h135v-76h-151l-34 -160h136v-76h-153l-36 -169h-84l36 169h-142l-36 -169h-84l36 169h-126v76h143l34 160h-128v76zM277 245h142l34 160h-142z" />
    <glyph glyph-name="dollar" unicode="$" horiz-adv-x="595" 
d="M268 -117v104q-52 5 -91 24.5t-66 47t-42 60.5t-19 66l95 30q2 -24 10.5 -47t23.5 -42t37 -32.5t52 -18.5v209l-25 5q-77 16 -121.5 62t-44.5 120q0 36 14 68t39.5 57.5t60.5 42.5t77 22v105h78v-106q46 -6 79 -23t55 -40t34.5 -49.5t18.5 -50.5l-90 -33q-2 14 -9 30
t-19 31t-29 27.5t-40 18.5v-205l15 -3q84 -17 131 -67.5t47 -118.5q0 -33 -12.5 -65t-36.5 -58t-60 -43.5t-84 -23.5v-104h-78zM441 172q0 32 -23 58.5t-72 37.5v-193q49 9 72 35.5t23 61.5zM176 475q0 -32 20.5 -56.5t71.5 -34.5v190q-44 -8 -68 -35t-24 -64z" />
    <glyph glyph-name="percent" unicode="%" horiz-adv-x="817" 
d="M138 498q0 -35 22.5 -57t54.5 -22q33 0 55 22t22 57q0 34 -22 56t-55 22q-32 0 -54.5 -22t-22.5 -56zM55 498q0 33 13 61.5t35 50t51 33.5t61 12t61.5 -12t51.5 -33.5t35 -50t13 -61.5t-13 -62t-35 -50.5t-51.5 -33.5t-61.5 -12t-61 12t-51 33.5t-35 50.5t-13 62z
M534 150q0 -35 22.5 -57t54.5 -22q33 0 55 22t22 57q0 34 -22 56t-55 22q-32 0 -54.5 -22t-22.5 -56zM451 150q0 33 13 61.5t35 50t51 33.5t61 12t61.5 -12t51.5 -33.5t35 -50t13 -61.5t-13 -62t-35 -50.5t-51.5 -33.5t-61.5 -12t-61 12t-51 33.5t-35 50.5t-13 62zM135 0
l466 648h90l-464 -648h-92z" />
    <glyph glyph-name="ampersand" unicode="&#x26;" horiz-adv-x="697" 
d="M474 94q-44 -49 -91.5 -77.5t-107.5 -28.5q-50 0 -88.5 15.5t-64.5 41t-39 58t-13 66.5t9 61.5t25.5 51t39.5 44t51 41.5l10 8l-13 14l-27 29.5t-28 36.5t-21.5 43t-8.5 49q0 43 16 76t42.5 55.5t59 34t65.5 11.5q40 0 74.5 -12t59.5 -34.5t39.5 -54.5t14.5 -72
q0 -26 -8.5 -48.5t-22.5 -42t-32 -36t-37 -30.5l-36 -27l132 -137l158 176v-129l-96 -111l161 -166h-133zM276 78q41 0 72 23t60 55l3 4l-144 151l-36 -27q-26 -20 -43 -45t-17 -62q0 -18 7.5 -35.5t21 -32t33 -23t43.5 -8.5zM204 553q0 -15 5 -29t13 -26.5t17.5 -23.5
t18.5 -20l22 -24l48 36q32 23 42.5 44t10.5 44q0 35 -25.5 60.5t-64.5 25.5q-15 0 -30.5 -5.5t-28 -17t-20.5 -27.5t-8 -37z" />
    <glyph glyph-name="quotesingle" unicode="'" horiz-adv-x="201" 
d="M40 599q0 27 17 44t44 17q26 0 43 -17t17 -44q0 -8 -2 -18l-42 -188h-34l-41 187q-2 10 -2 19z" />
    <glyph glyph-name="parenleft" unicode="(" horiz-adv-x="302" 
d="M55 317q0 82 14.5 151.5t40 128t60.5 107.5t75 90l57 -50q-77 -86 -121.5 -190.5t-44.5 -236.5t44.5 -237t121.5 -190l-57 -50q-40 41 -75 90t-60.5 107.5t-40 128t-14.5 151.5z" />
    <glyph glyph-name="parenright" unicode=")" horiz-adv-x="302" 
d="M247 317q0 -82 -14.5 -151.5t-40 -128t-60.5 -107.5t-75 -90l-57 50q76 85 121 190t45 237q0 66 -11.5 125t-33 112t-52.5 100t-69 90l57 50q40 -41 75 -90t60.5 -107.5t40 -128t14.5 -151.5z" />
    <glyph glyph-name="asterisk" unicode="*" horiz-adv-x="440" 
d="M259 575l123 42l23 -72l-124 -41l82 -105l-61 -46l-83 109l-78 -108l-61 46l79 104l-124 41l23 72l122 -43v135h79v-134z" />
    <glyph glyph-name="plus" unicode="+" horiz-adv-x="567" 
d="M242 327v195h82v-195h188v-79h-188v-197h-82v197h-187v79h187z" />
    <glyph glyph-name="comma" unicode="," horiz-adv-x="294" 
d="M70 64q0 27 20.5 47t52.5 20t56.5 -23.5t24.5 -71.5q0 -50 -14.5 -85.5t-36.5 -58.5t-48 -35.5t-49 -15.5v52q18 4 33.5 14.5t26 25.5t17 32.5t6.5 35.5q-2 -2 -8 -3.5t-14 -1.5q-28 0 -47.5 18t-19.5 50z" />
    <glyph glyph-name="hyphen" unicode="-" horiz-adv-x="361" 
d="M45 246v82h271v-82h-271z" />
    <glyph glyph-name="period" unicode="." horiz-adv-x="279" 
d="M70 64q0 29 20 49.5t49 20.5t49.5 -20.5t20.5 -49.5t-20.5 -49t-49.5 -20t-49 20t-20 49z" />
    <glyph glyph-name="slash" unicode="/" horiz-adv-x="434" 
d="M91 0h-91l343 709h91z" />
    <glyph glyph-name="zero" unicode="0" horiz-adv-x="614" 
d="M147 324q0 -150 57 -210q19 -20 43.5 -31t59.5 -11t59.5 11t43.5 31q57 60 57 210t-57 210q-19 20 -43.5 31t-59.5 11t-59.5 -11t-43.5 -31q-57 -60 -57 -210zM50 324q0 67 13 127t45 108t81 76t118 28t118 -28t81 -76t45 -108t13 -127t-13 -127t-45 -108t-81 -76
t-118 -28t-118 28t-81 76t-45 108t-13 127z" />
    <glyph glyph-name="one" unicode="1" horiz-adv-x="353" 
d="M182 0v457h-157v69q68 2 112 35.5t55 86.5h86v-648h-96z" />
    <glyph glyph-name="two" unicode="2" horiz-adv-x="529" 
d="M43 427q-1 7 -1 13.5v12.5q0 42 15 80t43.5 67t70.5 46t95 17q52 0 93 -16t69 -43t42.5 -63.5t14.5 -76.5q0 -64 -33 -114.5t-89 -85.5l-128 -82q-28 -18 -50 -39.5t-29 -51.5h333v-91h-454q1 40 9.5 75t27 67t47.5 60.5t70 55.5l108 70q46 29 67.5 63t21.5 72
q0 22 -7.5 42.5t-22.5 36.5t-38 25.5t-54 9.5q-32 0 -55.5 -10.5t-39 -28.5t-23 -42t-7.5 -52q0 -7 0.5 -14t1.5 -15z" />
    <glyph glyph-name="three" unicode="3" horiz-adv-x="553" 
d="M177 382l191 176h-310v90h440v-88l-185 -171q36 0 71.5 -12t64 -36.5t46.5 -61.5t18 -87q0 -41 -15.5 -78.5t-45.5 -66.5t-73.5 -46t-100.5 -17q-56 0 -100 17t-74.5 45.5t-47.5 65t-19 76.5l96 22q1 -32 13 -58t31.5 -44t45 -28t54.5 -10q33 0 59 9.5t43 26t26 38.5
t9 46q0 32 -11.5 55t-30.5 37.5t-42.5 21.5t-47.5 7q-29 0 -57 -10z" />
    <glyph glyph-name="four" unicode="4" horiz-adv-x="574" 
d="M35 259l278 389h135v-411h111v-91h-111v-146h-95v146h-318v113zM353 554l-228 -317h228v317z" />
    <glyph glyph-name="five" unicode="5" horiz-adv-x="548" 
d="M129 204q5 -60 45 -97t101 -37q29 0 54.5 9t44 26.5t29.5 41.5t11 54q0 33 -11.5 58.5t-30.5 42t-44.5 25t-53.5 8.5q-35 0 -66 -12.5t-52 -34.5q-26 10 -48.5 19.5t-47.5 18.5l84 322h342v-90h-277l-48 -186q22 24 58 36t74 12q48 0 88 -15t69.5 -42.5t46 -67.5
t16.5 -90q0 -46 -17 -86t-48 -70t-75 -47.5t-98 -17.5q-52 0 -94.5 15.5t-74 42t-50 61.5t-21.5 73z" />
    <glyph glyph-name="six" unicode="6" horiz-adv-x="580" 
d="M495 547q-18 11 -48.5 19.5t-67.5 8.5q-51 0 -91.5 -17.5t-70 -48.5t-46.5 -73.5t-20 -92.5q20 32 63 58t108 26q48 0 88.5 -14.5t70.5 -43t46.5 -69.5t16.5 -94q0 -52 -19.5 -93t-52.5 -69.5t-76.5 -43.5t-91.5 -15q-47 0 -92 17t-81 53t-58 93t-22 137q0 90 25.5 160.5
t70.5 119t106 73.5t132 25q45 0 81 -10t59 -26zM165 206q0 -32 12 -57t31.5 -42.5t44.5 -27t52 -9.5q28 0 53.5 9t45 26.5t30.5 43t11 57.5q0 33 -11.5 58.5t-30.5 43t-44.5 26.5t-53.5 9t-53.5 -9t-44.5 -26.5t-30.5 -43t-11.5 -58.5z" />
    <glyph glyph-name="seven" unicode="7" horiz-adv-x="483" 
d="M478 554q-23 -18 -64 -58.5t-84 -108t-78.5 -163t-47.5 -224.5h-101q5 70 19.5 131.5t34 114t43 96t47.5 78.5q55 81 123 138h-365v90h473v-94z" />
    <glyph glyph-name="eight" unicode="8" 
d="M280 372q52 1 86 29.5t34 76.5q0 44 -32.5 74t-87.5 30t-87.5 -30t-32.5 -74q0 -48 34 -76.5t86 -29.5zM280 70q66 0 101 31.5t35 77.5q0 47 -35.5 79t-100.5 32t-100.5 -32t-35.5 -79q0 -46 35 -77.5t101 -31.5zM280 -15q-56 0 -99.5 14.5t-73.5 39.5t-46 59t-16 73
q0 60 35.5 101.5t87.5 58.5q-22 8 -41.5 23t-33.5 34.5t-22.5 43.5t-8.5 51q0 40 16.5 73t46 57t69 37t86.5 13q46 0 86 -13t69.5 -37t46 -57t16.5 -73q0 -53 -30.5 -94t-75.5 -58q52 -17 87.5 -58.5t35.5 -101.5q0 -39 -16 -73t-46 -59t-73.5 -39.5t-99.5 -14.5z" />
    <glyph glyph-name="nine" unicode="9" horiz-adv-x="581" 
d="M89 104q21 -13 53.5 -22t64.5 -9q59 0 101 18t69 49.5t40 73t15 89.5q-17 -32 -59.5 -57.5t-108.5 -25.5q-42 0 -82.5 14t-72 42t-50.5 68.5t-19 94.5q0 50 19.5 91.5t52.5 71t76 45.5t91 16t93 -17.5t80.5 -54t57 -92.5t21.5 -134q0 -89 -20 -159.5t-60.5 -119.5
t-101 -75t-142.5 -26q-19 0 -40 3t-41.5 8t-38.5 12t-30 15zM419 441q0 31 -12 56.5t-31.5 43t-44.5 27t-52 9.5t-52.5 -9.5t-45 -27t-31 -42.5t-11.5 -57q0 -33 11.5 -58.5t31 -43t44.5 -26.5t53 -9q27 0 52 9.5t44.5 27t31.5 43t12 57.5z" />
    <glyph glyph-name="colon" unicode=":" horiz-adv-x="290" 
d="M76 64q0 29 20 49.5t49 20.5t49.5 -20.5t20.5 -49.5t-20.5 -49t-49.5 -20t-49 20t-20 49zM75 416q0 29 20 49.5t49 20.5t49.5 -20.5t20.5 -49.5t-20.5 -49t-49.5 -20t-49 20t-20 49z" />
    <glyph glyph-name="semicolon" unicode=";" horiz-adv-x="297" 
d="M75 62q0 25 19.5 44t50.5 19q30 0 53.5 -22t23.5 -68q0 -47 -14 -81t-35 -55.5t-45.5 -33.5t-46.5 -15v49q17 4 32 14t25 24.5t16 31t6 33.5q-2 -2 -7.5 -3.5t-13.5 -1.5q-26 0 -45 17t-19 48zM76 416q0 29 20 49.5t49 20.5t49.5 -20.5t20.5 -49.5t-20.5 -49t-49.5 -20
t-49 20t-20 49z" />
    <glyph glyph-name="less" unicode="&#x3c;" horiz-adv-x="482" 
d="M35 329l412 206v-95l-310 -153l310 -153v-95l-412 205v85z" />
    <glyph glyph-name="equal" unicode="=" horiz-adv-x="593" 
d="M65 346v77h463v-77h-463zM65 151v79h463v-79h-463z" />
    <glyph glyph-name="greater" unicode="&#x3e;" horiz-adv-x="482" 
d="M447 244l-412 -205v95l312 153l-312 153v95l412 -206v-85z" />
    <glyph glyph-name="question" unicode="?" horiz-adv-x="510" 
d="M196 203q-1 9 -1 17v18q0 50 19 88t64 68l44 30q26 17 39.5 43t13.5 55q0 22 -7.5 42.5t-22 36.5t-37 25.5t-52.5 9.5q-33 0 -56.5 -11t-38.5 -29t-22.5 -41t-7.5 -47q0 -13 2 -27t5 -22l-97 12q-6 21 -6 48q0 34 13 70.5t40 66.5t68.5 49t99.5 19q52 0 93 -17t69 -45
t42.5 -64.5t14.5 -74.5q0 -60 -29 -102.5t-73 -71.5l-46 -31q-23 -16 -33.5 -41.5t-10.5 -54.5v-7.5t1 -11.5h-88zM174 60q0 27 19 46.5t46 19.5t46.5 -19.5t19.5 -46.5t-19.5 -46t-46.5 -19t-46 19t-19 46z" />
    <glyph glyph-name="at" unicode="@" horiz-adv-x="826" 
d="M601 137q-35 0 -63 15.5t-36 48.5q-23 -32 -55 -49t-64 -17q-34 0 -62 12t-48.5 34.5t-31.5 54t-11 70.5q0 50 16 93t43.5 74t63.5 48.5t77 17.5q16 0 32.5 -4t31 -12t26 -20.5t17.5 -29.5l9 53h79l-54 -251q-3 -15 -3 -28q0 -17 8.5 -29t29.5 -12t40.5 15.5t34.5 42
t24 60.5t9 72q0 55 -20 101.5t-56.5 80.5t-88.5 53.5t-115 19.5q-66 0 -122 -23t-97.5 -65t-64.5 -100.5t-23 -130.5q0 -66 21.5 -122t62.5 -97t100 -64t134 -23q55 0 107.5 17t97.5 53l41 -54q-22 -21 -51 -37.5t-61.5 -28t-67 -17.5t-66.5 -6q-88 0 -161.5 27.5
t-126.5 77.5t-82.5 120t-29.5 155q0 87 31 159t84 123.5t123.5 80t149.5 28.5q76 0 141.5 -25t113.5 -68.5t75.5 -103.5t27.5 -130q0 -56 -15 -103.5t-41 -82.5t-60.5 -54.5t-73.5 -19.5zM515 370q0 45 -21.5 69.5t-62.5 24.5q-27 0 -49 -12.5t-37.5 -33t-24 -47t-8.5 -54.5
q0 -23 4 -43t14 -34.5t26.5 -23t40.5 -8.5q25 0 46.5 12t37 33.5t24.5 51.5t10 65z" />
    <glyph glyph-name="A" unicode="A" horiz-adv-x="697" 
d="M504 198h-314l-75 -198h-105l282 709h113l282 -709h-106zM225 289h244l-123 318z" />
    <glyph glyph-name="B" unicode="B" horiz-adv-x="602" 
d="M321 709q51 0 90.5 -14.5t67 -40t42 -60.5t14.5 -77q0 -57 -29.5 -96.5t-76.5 -56.5q30 -8 54 -24.5t40.5 -39t25 -50t8.5 -57.5q0 -42 -16 -77.5t-45 -61t-69 -40t-89 -14.5h-248v709h231zM310 399q60 0 93 31.5t33 81.5q0 51 -34.5 81t-95.5 30h-118v-224h122zM324 86
q60 0 96.5 30.5t36.5 82.5q0 51 -32 83.5t-97 32.5h-140v-229h136z" />
    <glyph glyph-name="C" unicode="C" horiz-adv-x="750" 
d="M397 -15q-69 0 -132.5 24.5t-112 71.5t-78 116t-29.5 158t30 157.5t79.5 115.5t113 71.5t129.5 24.5q61 0 112 -16t91 -45t67.5 -71t41.5 -93l-91 -32q-20 81 -76.5 124t-144.5 43q-48 0 -93.5 -17.5t-81 -52.5t-56.5 -87.5t-21 -121.5t21 -121.5t56.5 -88t81 -53
t93.5 -17.5q45 0 82 13t65.5 35.5t48 54t30.5 67.5l87 -32q-14 -50 -42 -92t-67.5 -72t-91 -47t-112.5 -17z" />
    <glyph glyph-name="D" unicode="D" horiz-adv-x="720" 
d="M333 87q49 0 93 16.5t77 49.5t52 83t19 117t-19 117.5t-51.5 84t-76 50.5t-92.5 17h-147v-535h145zM90 0v709h248q67 0 128.5 -23t107.5 -68t73.5 -111.5t27.5 -153.5t-27.5 -153t-74.5 -110.5t-108.5 -67t-128.5 -22.5h-246z" />
    <glyph glyph-name="E" unicode="E" horiz-adv-x="581" 
d="M90 0v709h431v-91h-333v-218h302v-92h-302v-217h333v-91h-431z" />
    <glyph glyph-name="F" unicode="F" horiz-adv-x="551" 
d="M90 0v709h431v-91h-333v-228h302v-92h-302v-298h-98z" />
    <glyph glyph-name="G" unicode="G" horiz-adv-x="765" 
d="M625 0l-9 100q-12 -21 -32 -41.5t-48.5 -37t-65 -26.5t-81.5 -10q-67 0 -129 24t-110 71t-76.5 116t-28.5 159t30 159t79.5 115.5t112.5 70.5t129 24q58 0 108.5 -15.5t91 -43.5t70 -67.5t44.5 -87.5l-89 -38q-24 77 -83 119.5t-142 42.5q-48 0 -93 -17t-80 -52
t-56.5 -87.5t-21.5 -122.5q0 -71 20.5 -123.5t55 -87.5t79 -52.5t92.5 -17.5q59 0 100 18.5t67 46.5t38 60.5t14 59.5h-246v88h339v-347h-79z" />
    <glyph glyph-name="H" unicode="H" horiz-adv-x="738" 
d="M550 0v315h-362v-315h-98v709h98v-303h362v303h98v-709h-98z" />
    <glyph glyph-name="I" unicode="I" horiz-adv-x="280" 
d="M90 0v709h100v-709h-100z" />
    <glyph glyph-name="J" unicode="J" horiz-adv-x="534" 
d="M20 257l98 22v-67q0 -71 34 -103.5t88 -32.5t85 33.5t31 95.5v504h98v-497q0 -47 -14.5 -88t-42.5 -72t-67.5 -49t-88.5 -18q-52 0 -93 16t-69.5 46t-43.5 71.5t-15 92.5v46z" />
    <glyph glyph-name="K" unicode="K" horiz-adv-x="668" 
d="M289 322l-101 -108v-214h-98v709h98v-365l332 365h129l-295 -316l299 -393h-124z" />
    <glyph glyph-name="L" unicode="L" horiz-adv-x="548" 
d="M90 0v709h98v-617h335v-92h-433z" />
    <glyph glyph-name="M" unicode="M" horiz-adv-x="946" 
d="M759 0v552l-242 -552h-90l-240 552v-552h-97v709h133l250 -577l252 577h131v-709h-97z" />
    <glyph glyph-name="N" unicode="N" horiz-adv-x="763" 
d="M571 0l-383 578v-578h-98v709h131l354 -544v544h98v-709h-102z" />
    <glyph glyph-name="O" unicode="O" horiz-adv-x="802" 
d="M145 355q0 -69 21.5 -121.5t57 -88t81.5 -53t96 -17.5q49 0 95.5 17.5t82 53t57 88t21.5 121.5t-21.5 121.5t-57 87.5t-82 52.5t-95.5 17.5q-50 0 -96 -17.5t-81.5 -52.5t-57 -87.5t-21.5 -121.5zM45 355q0 89 30.5 157.5t80.5 115.5t114 71.5t131 24.5t131 -24.5
t114 -71.5t80.5 -115.5t30.5 -157.5t-30.5 -158t-80.5 -116t-114 -71.5t-131 -24.5t-131 24.5t-114 71.5t-80.5 116t-30.5 158z" />
    <glyph glyph-name="P" unicode="P" horiz-adv-x="597" 
d="M330 378q64 0 100.5 32.5t36.5 87.5q0 57 -36.5 90t-100.5 33h-142v-243h142zM188 290v-290h-98v709h258q49 0 89.5 -16t69 -44.5t44.5 -66.5t16 -83t-16 -83.5t-44.5 -66t-69 -43.5t-89.5 -16h-160z" />
    <glyph glyph-name="Q" unicode="Q" horiz-adv-x="802" 
d="M45 355q0 89 30.5 157.5t80.5 115.5t114 71.5t131 24.5t131 -24.5t114 -71.5t80.5 -115.5t30.5 -157.5q0 -85 -27.5 -150t-72.5 -112l83 -93l-67 -59l-86 95q-42 -26 -89.5 -38.5t-96.5 -12.5q-67 0 -131 24.5t-114 71.5t-80.5 116t-30.5 158zM145 355q0 -69 21.5 -121.5
t57 -88t81.5 -53t96 -17.5q68 0 124 31l-123 138l68 59l124 -140q29 35 46 82.5t17 109.5q0 69 -21.5 121.5t-57 87.5t-82 52.5t-95.5 17.5q-50 0 -96 -17.5t-81.5 -52.5t-57 -87.5t-21.5 -121.5z" />
    <glyph glyph-name="R" unicode="R" horiz-adv-x="619" 
d="M295 290h-106v-290h-99v709h267q50 0 90.5 -16.5t68.5 -45t43 -67t15 -82.5q0 -77 -45.5 -131.5t-126.5 -69.5l169 -297h-114zM339 378q60 0 97 32.5t37 87.5q0 57 -37 90t-97 33h-150v-243h150z" />
    <glyph glyph-name="S" unicode="S" horiz-adv-x="593" 
d="M454 517q-3 19 -13 40.5t-28 39.5t-45 29.5t-64 11.5q-30 0 -55 -9t-43.5 -25t-28.5 -37.5t-10 -46.5q0 -38 23 -65.5t68 -37.5l106 -23q89 -20 136.5 -72t47.5 -127q0 -41 -17 -79t-49 -67t-77 -46.5t-102 -17.5q-64 0 -111.5 19t-80 49t-50.5 67.5t-23 75.5l94 30
q3 -30 14.5 -57.5t33 -48.5t52 -33.5t70.5 -12.5q73 0 109.5 33t36.5 80q0 38 -26 68.5t-80 41.5l-101 22q-76 17 -124.5 65.5t-48.5 128.5q0 42 18 80t49.5 67t74.5 46.5t92 17.5q60 0 102.5 -16.5t71 -42.5t44.5 -57t22 -60z" />
    <glyph glyph-name="T" unicode="T" horiz-adv-x="592" 
d="M345 618v-618h-98v618h-237v91h572v-91h-237z" />
    <glyph glyph-name="U" unicode="U" horiz-adv-x="670" 
d="M335 -15q-54 0 -100.5 16.5t-81 49t-54 80.5t-19.5 111v467h97v-464q0 -81 41.5 -125t116.5 -44t116 44t41 125v464h98v-467q0 -63 -19.5 -111t-54 -80.5t-81 -49t-100.5 -16.5z" />
    <glyph glyph-name="V" unicode="V" horiz-adv-x="657" 
d="M544 709h103l-273 -709h-97l-267 709h104l214 -583z" />
    <glyph glyph-name="W" unicode="W" horiz-adv-x="1004" 
d="M888 709h101l-202 -709h-101l-185 575l-183 -575h-98l-205 709h101l156 -555l178 555h103l182 -561z" />
    <glyph glyph-name="X" unicode="X" horiz-adv-x="617" 
d="M366 355l238 -355h-117l-179 277l-183 -277h-115l242 355l-240 354h118l179 -278l182 278h116z" />
    <glyph glyph-name="Y" unicode="Y" horiz-adv-x="618" 
d="M10 709h118l184 -316l184 316h112l-250 -406v-303h-98v303z" />
    <glyph glyph-name="Z" unicode="Z" horiz-adv-x="632" 
d="M45 0v98l423 520h-413v91h532v-95l-425 -522h430v-92h-547z" />
    <glyph glyph-name="bracketleft" unicode="[" horiz-adv-x="288" 
d="M90 -148v933h193v-76h-111v-782h111v-75h-193z" />
    <glyph glyph-name="backslash" unicode="\" horiz-adv-x="434" 
d="M0 709h93l341 -709h-93z" />
    <glyph glyph-name="bracketright" unicode="]" horiz-adv-x="288" 
d="M5 -148v75h111v782h-111v76h193v-933h-193z" />
    <glyph glyph-name="asciicircum" unicode="^" horiz-adv-x="521" 
d="M397 354l-136 258l-137 -258h-99l194 356h83l194 -356h-99z" />
    <glyph glyph-name="underscore" unicode="_" horiz-adv-x="542" 
d="M15 -79v79h512v-79h-512z" />
    <glyph glyph-name="grave" unicode="`" horiz-adv-x="272" 
d="M34 689h118l86 -146h-78z" />
    <glyph glyph-name="a" unicode="a" horiz-adv-x="523" 
d="M50 129q0 32 11 57.5t30.5 43.5t46.5 29t58 16l130 19q22 3 29.5 13t7.5 23q0 35 -24.5 60.5t-79.5 25.5q-50 0 -77 -27.5t-32 -69.5l-90 21q4 34 20.5 63t42.5 49.5t60.5 32t73.5 11.5q54 0 92 -14.5t62 -38.5t35 -56t11 -67v-241q0 -32 2 -51t4 -28h-92q-2 9 -3.5 24
t-1.5 41q-8 -13 -21 -27t-32 -26t-44.5 -19.5t-57.5 -7.5q-37 0 -66.5 12t-50.5 31.5t-32.5 45.5t-11.5 55zM224 64q29 0 54.5 7.5t44 24t29.5 44t11 66.5v22l-147 -22q-30 -5 -50 -22.5t-20 -49.5q0 -27 21 -48.5t57 -21.5z" />
    <glyph glyph-name="b" unicode="b" horiz-adv-x="593" 
d="M80 0v724h93v-311q17 32 58 57t101 25q55 0 96 -19.5t69 -54t42 -80.5t14 -98q0 -54 -15 -100.5t-43.5 -81t-70 -54.5t-95.5 -20t-93.5 22t-62.5 61v-70h-93zM457 243q0 78 -38 123.5t-104 45.5q-31 0 -57.5 -12t-45.5 -33.5t-29.5 -53t-10.5 -70.5t10.5 -71t29.5 -54.5
t45.5 -34.5t57.5 -12q65 0 103.5 47t38.5 125z" />
    <glyph glyph-name="c" unicode="c" horiz-adv-x="530" 
d="M282 409q-29 0 -55 -10.5t-46.5 -31.5t-32.5 -52.5t-12 -73.5q0 -41 12 -72.5t32 -53t47 -32.5t56 -11q34 0 57.5 10t39 25t24.5 32.5t13 31.5l83 -36q-9 -26 -26 -52.5t-44 -48.5t-63.5 -35.5t-83.5 -13.5q-53 0 -97.5 19.5t-76.5 54t-50.5 81t-18.5 101.5
q0 56 18.5 103t51 80.5t77 52.5t95.5 19q48 0 84.5 -13.5t63 -35.5t42.5 -49.5t24 -54.5l-85 -36q-5 18 -14 36t-24.5 32.5t-37.5 24t-53 9.5z" />
    <glyph glyph-name="d" unicode="d" horiz-adv-x="588" 
d="M136 242q0 -37 9.5 -68.5t27.5 -54.5t44 -36t60 -13q32 0 58 13.5t44 36.5t27.5 55t9.5 69q0 75 -36.5 121t-101.5 46q-32 0 -58.5 -12.5t-45 -35t-28.5 -53.5t-10 -68zM417 73q-17 -35 -54.5 -60.5t-94.5 -25.5q-53 0 -95 19.5t-71.5 54t-45.5 81t-16 100.5
q0 51 16.5 96.5t46.5 80t72 55t93 20.5q32 0 56.5 -7t42.5 -18.5t30 -26t18 -29.5v311h93v-635q0 -35 2 -59t3 -30h-91q-2 8 -3.5 25.5t-1.5 39.5v8z" />
    <glyph glyph-name="e" unicode="e" horiz-adv-x="542" 
d="M404 290q-2 52 -35 87.5t-97 35.5q-30 0 -53.5 -10.5t-40 -28t-26.5 -39.5t-11 -45h263zM499 137q-10 -32 -29.5 -59.5t-47 -48t-62.5 -32.5t-77 -12q-48 0 -92 17t-77.5 50t-53 81t-19.5 109q0 57 19 103.5t50.5 80t73.5 52t87 18.5q55 0 98.5 -18.5t72.5 -51.5
t44.5 -79.5t15.5 -102.5q0 -9 -0.5 -17t-1.5 -13h-362q1 -32 12 -59t30.5 -46.5t46 -30t56.5 -10.5q59 0 90 28t45 69z" />
    <glyph glyph-name="f" unicode="f" horiz-adv-x="343" 
d="M206 396v-396h-97v396h-89v85h89v81q0 40 12.5 71t34 52t50 31.5t61.5 10.5q24 0 38.5 -4t17.5 -6v-84q-4 2 -13.5 4t-27.5 2q-12 0 -25.5 -3.5t-25 -12.5t-18.5 -25t-7 -41v-76h116v-85h-116z" />
    <glyph glyph-name="g" unicode="g" horiz-adv-x="578" 
d="M136 -5q5 -51 40.5 -84.5t90.5 -33.5q76 0 111.5 39t35.5 117v69q-17 -33 -55 -56t-92 -23q-48 0 -88.5 17.5t-70 48t-46 73.5t-16.5 94q0 49 16 91.5t45 74t69.5 50t90.5 18.5q56 0 93 -20t55 -56v67h93v-445q0 -46 -12 -89.5t-40.5 -77t-74.5 -54t-114 -20.5
q-45 0 -83.5 13.5t-68 37.5t-48 56.5t-22.5 71.5zM281 102q61 0 99 42t38 112t-38 112t-99 42q-63 0 -101 -42t-38 -112q0 -71 37.5 -112.5t101.5 -41.5z" />
    <glyph glyph-name="h" unicode="h" horiz-adv-x="562" 
d="M174 0h-94v724h94v-299q26 38 65 54t81 16q43 0 75.5 -14.5t54 -40t32 -60.5t10.5 -75v-305h-94v289q0 25 -5.5 47t-19 38.5t-35 26t-52.5 9.5q-27 0 -47.5 -10t-34.5 -27t-21.5 -40t-8.5 -50v-283z" />
    <glyph glyph-name="i" unicode="i" horiz-adv-x="253" 
d="M80 0v481h93v-481h-93zM59 663q0 29 19.5 48.5t47.5 19.5q29 0 48.5 -19.5t19.5 -48.5q0 -28 -19.5 -47.5t-48.5 -19.5q-28 0 -47.5 19.5t-19.5 47.5z" />
    <glyph glyph-name="j" unicode="j" horiz-adv-x="254" 
d="M80 481h94v-537q0 -66 -35 -107.5t-98 -41.5q-27 0 -39 2.5t-17 4.5v79q4 -1 11.5 -2t18.5 -1q37 0 51 18.5t14 51.5v533zM59 665q0 29 19.5 48.5t47.5 19.5q29 0 48.5 -19.5t19.5 -48.5q0 -28 -19.5 -47.5t-48.5 -19.5q-28 0 -47.5 19.5t-19.5 47.5z" />
    <glyph glyph-name="k" unicode="k" horiz-adv-x="525" 
d="M306 278l209 -278h-118l-157 212l-67 -67v-145h-93v724h93v-456l208 213h130z" />
    <glyph glyph-name="l" unicode="l" horiz-adv-x="254" 
d="M80 0v724h94v-724h-94z" />
    <glyph glyph-name="m" unicode="m" horiz-adv-x="857" 
d="M80 0v481h90v-64q23 40 63.5 59t82.5 19q45 0 84.5 -22t59.5 -69q29 52 72 71.5t89 19.5q31 0 61 -11t53.5 -33.5t37.5 -57t14 -81.5v-312h-93v302q0 47 -24.5 78.5t-77.5 31.5q-50 0 -80.5 -34.5t-30.5 -86.5v-291h-94v302q0 47 -24 78.5t-78 31.5q-51 0 -81.5 -34
t-30.5 -88v-290h-93z" />
    <glyph glyph-name="n" unicode="n" horiz-adv-x="562" 
d="M174 0h-94v481h92v-69q26 45 66 64t82 19q43 0 75.5 -14.5t54 -40t32 -60.5t10.5 -75v-305h-94v289q0 25 -5.5 47t-19 38.5t-35 26t-52.5 9.5q-28 0 -49 -10.5t-35 -28.5t-21 -42t-7 -51v-278z" />
    <glyph glyph-name="o" unicode="o" horiz-adv-x="572" 
d="M286 69q30 0 57 11t48 33t33 54t12 74t-12 73.5t-33 53.5t-48 33t-57 11t-57 -11t-48 -33t-33 -53.5t-12 -73.5t12 -74t33 -54t48 -33t57 -11zM286 496q54 0 99 -19.5t78 -53.5t51 -80.5t18 -101.5t-18 -102t-51 -81t-78 -53.5t-99 -19.5t-99 19.5t-78 53.5t-51 81
t-18 102t18 101.5t51 80.5t78 53.5t99 19.5z" />
    <glyph glyph-name="p" unicode="p" horiz-adv-x="593" 
d="M80 -190v671h91v-75q20 36 61 61t100 25q54 0 95.5 -19.5t69 -53.5t42 -80t14.5 -98q0 -54 -15 -100t-44 -80.5t-70.5 -54t-94.5 -19.5q-56 0 -96 23t-60 55v-255h-93zM457 241q0 36 -10 66.5t-28 53t-44.5 35.5t-59.5 13q-32 0 -58.5 -13t-45.5 -35.5t-29 -53t-10 -66.5
q0 -37 10 -68.5t29 -54t45.5 -35t58.5 -12.5q33 0 59 12.5t44.5 35t28.5 54t10 68.5z" />
    <glyph glyph-name="q" unicode="q" horiz-adv-x="581" 
d="M418 -190v258q-19 -37 -57.5 -59t-92.5 -22q-52 0 -94 20t-72 55t-46 81t-16 99q0 51 15.5 96.5t44.5 80t71 54.5t95 20q31 0 56 -7.5t44.5 -19.5t32.5 -27.5t21 -31.5v74h91v-671h-93zM136 242q0 -37 10 -68.5t28.5 -54.5t44.5 -36t58 -13t58 13t45 36t29 54.5t10 68.5
t-10 68t-29 53t-45 34.5t-58 12.5q-66 0 -103.5 -46.5t-37.5 -121.5z" />
    <glyph glyph-name="r" unicode="r" horiz-adv-x="367" 
d="M347 386q-21 3 -41 3q-59 0 -95.5 -34.5t-36.5 -113.5v-241h-94v481h92v-84q13 28 30.5 45.5t36.5 28t39 14.5t38 4q10 0 18.5 -1t12.5 -2v-100z" />
    <glyph glyph-name="s" unicode="s" horiz-adv-x="452" 
d="M120 155q5 -38 33 -64t79 -26q40 0 61 19t21 45q0 23 -16 39t-46 23l-82 18q-57 12 -88.5 48t-31.5 87q0 31 13.5 58.5t36.5 48.5t54.5 33t66.5 12q49 0 82.5 -14t54.5 -34.5t31.5 -42.5t14.5 -38l-83 -31q-2 9 -7 23t-16 26.5t-30 21.5t-47 9q-36 0 -58 -19.5t-22 -44.5
q0 -46 55 -58l78 -17q66 -14 99.5 -51.5t33.5 -91.5q0 -26 -11 -52t-32.5 -48t-54.5 -35.5t-78 -13.5q-50 0 -85.5 14t-59 35t-36 45.5t-15.5 45.5z" />
    <glyph glyph-name="t" unicode="t" horiz-adv-x="355" 
d="M206 481h104v-85h-104v-250q0 -33 15 -49.5t52 -16.5q9 0 20 1t17 3v-80q-6 -2 -23 -5.5t-41 -3.5q-62 0 -98 35.5t-36 101.5v264h-92v85h26q39 0 56.5 21t17.5 53v78h86v-152z" />
    <glyph glyph-name="u" unicode="u" horiz-adv-x="566" 
d="M397 58q-20 -38 -60 -55.5t-82 -17.5t-75.5 15t-56.5 41t-35.5 61t-12.5 76v303h94v-289q0 -25 6 -47.5t19 -39.5t33.5 -27t50.5 -10q57 0 85.5 34t28.5 89v290h94v-392q0 -29 1.5 -52.5t3.5 -36.5h-90q-2 8 -3 25.5t-1 32.5z" />
    <glyph glyph-name="v" unicode="v" horiz-adv-x="502" 
d="M300 0h-95l-195 481h106l137 -371l138 371h101z" />
    <glyph glyph-name="w" unicode="w" horiz-adv-x="793" 
d="M448 481l125 -362l106 362h99l-156 -481h-97l-128 366l-125 -366h-99l-158 481h103l108 -362l125 362h97z" />
    <glyph glyph-name="x" unicode="x" horiz-adv-x="491" 
d="M189 245l-173 236h114l118 -169l116 169h111l-171 -236l21 -29l31.5 -43l36 -50.5l36 -50.5l31.5 -43l21 -29h-113l-124 177l-122 -177h-112z" />
    <glyph glyph-name="y" unicode="y" horiz-adv-x="523" 
d="M97 -201l120 254l-207 428h108l150 -332l144 332h101l-313 -682h-103z" />
    <glyph glyph-name="z" unicode="z" horiz-adv-x="466" 
d="M40 0v82l264 314h-260v85h377v-82l-264 -314h269v-85h-386z" />
    <glyph glyph-name="braceleft" unicode="{" horiz-adv-x="353" 
d="M45 361q22 0 42 5.5t35 17.5t24 31t9 47v137q0 94 46 140t134 46h13v-75h-13q-56 0 -77 -25t-21 -80v-164q0 -51 -28 -82.5t-76 -40.5q48 -9 76 -40.5t28 -82.5v-163q0 -55 21 -80t77 -25h13v-75h-13q-88 0 -134 46t-46 140v136q0 28 -9 47t-24 31t-35 17.5t-42 5.5v86z
" />
    <glyph glyph-name="bar" unicode="|" horiz-adv-x="262" 
d="M90 -148v933h82v-933h-82z" />
    <glyph glyph-name="braceright" unicode="}" horiz-adv-x="353" 
d="M308 275q-22 0 -42 -5.5t-35 -17.5t-24 -31t-9 -47v-136q0 -94 -46 -140t-134 -46h-13v75h13q56 0 77 25t21 80v163q0 51 28 82.5t76 40.5q-48 9 -76 40.5t-28 82.5v164q0 55 -21 80t-77 25h-13v75h13q88 0 134 -46t46 -140v-137q0 -28 9 -47t24 -31t35 -17.5t42 -5.5
v-86z" />
    <glyph glyph-name="asciitilde" unicode="~" horiz-adv-x="570" 
d="M242 264q-29 15 -54 15q-28 0 -52 -15.5t-44 -41.5l-57 46q28 46 67 70.5t85 24.5q23 0 47 -6t48 -20l46 -25q28 -16 57 -16q28 0 52 14.5t41 40.5l57 -46q-28 -46 -66.5 -69.5t-83.5 -23.5q-48 0 -97 27z" />
    <glyph glyph-name="uni00A0" unicode="&#xa0;" horiz-adv-x="250" 
 />
    <glyph glyph-name="exclamdown" unicode="&#xa1;" horiz-adv-x="277" 
d="M197 -217h-118l26 505h67zM73 430q0 27 19 46.5t46 19.5t46.5 -19.5t19.5 -46.5t-19.5 -46t-46.5 -19t-46 19t-19 46z" />
    <glyph glyph-name="cent" unicode="&#xa2;" horiz-adv-x="542" 
d="M239 0v94q-42 7 -77 28t-59.5 52t-38.5 70t-14 84q0 46 14 85t39 69.5t59.5 50.5t76.5 28v88h76v-86q38 -4 67.5 -17.5t50.5 -33t34.5 -43t20.5 -46.5l-81 -33q-4 13 -11 27.5t-18 27t-26.5 22t-36.5 14.5v-307q23 4 39.5 14.5t28.5 23t19 26t10 25.5l80 -33
q-8 -22 -22.5 -45t-36 -42t-51.5 -33t-67 -18v-92h-76zM143 328q0 -60 27 -98t69 -52v299q-41 -14 -68.5 -51t-27.5 -98z" />
    <glyph glyph-name="sterling" unicode="&#xa3;" horiz-adv-x="593" 
d="M141 359q-11 26 -20.5 54.5t-9.5 63.5q0 40 15.5 74t42 59t62.5 39t78 14q58 0 96.5 -16.5t62.5 -42.5t34.5 -57.5t12.5 -61.5l-98 -17q-1 56 -30.5 82.5t-75.5 26.5q-20 0 -38.5 -6.5t-32.5 -19t-22.5 -31.5t-8.5 -43q0 -32 10 -60.5t23 -57.5h194v-86h-168
q1 -7 1.5 -13.5t0.5 -13.5q0 -53 -25 -94.5t-70 -64.5h203q25 0 43.5 9t30 23.5t17 33.5t5.5 40l94 -14q0 -39 -11.5 -72t-32.5 -56.5t-52 -37t-70 -13.5h-337v95q51 21 80.5 59.5t29.5 80.5q0 22 -4 38h-100v86h70z" />
    <glyph glyph-name="currency" unicode="&#xa4;" horiz-adv-x="582" 
d="M82 239q0 34 10 64.5t27 56.5l-75 77l60 59l75 -78q26 17 55 26t61 9q60 0 111 -31l72 74l60 -59l-70 -73q19 -26 30 -58t11 -67t-10.5 -66.5t-29.5 -56.5l69 -71l-59 -59l-70 72q-25 -16 -54 -24.5t-60 -8.5q-33 0 -63 10t-56 27l-73 -76l-59 59l73 76q-17 26 -26 55.5
t-9 62.5zM165 239q0 -29 10 -53.5t28 -42t41.5 -27t50.5 -9.5t50.5 9.5t40.5 27t27 42t10 53.5t-10 53t-27 41.5t-40.5 27t-50.5 9.5t-50.5 -9.5t-41.5 -27t-28 -41.5t-10 -53z" />
    <glyph glyph-name="yen" unicode="&#xa5;" horiz-adv-x="582" 
d="M345 155v-155h-97v155h-169v72h169v80h-169v71h117l-171 270h114l157 -261l149 261h112l-163 -270h119v-71h-168v-80h168v-72h-168z" />
    <glyph glyph-name="brokenbar" unicode="&#xa6;" horiz-adv-x="262" 
d="M172 785v-399h-82v399h82zM172 251v-399h-82v399h82z" />
    <glyph glyph-name="section" unicode="&#xa7;" horiz-adv-x="573" 
d="M484 239q0 -23 -8 -43t-20 -36.5t-27 -28t-29 -17.5q42 -26 65 -64.5t23 -80.5t-16.5 -76t-45 -58t-65.5 -37t-78 -13q-48 0 -84.5 13.5t-61.5 38t-37.5 59t-13.5 75.5l89 18q0 -55 27 -90t83 -35q47 0 76.5 24.5t29.5 70.5q0 28 -16 50.5t-43 36.5l-104 54
q-28 14 -53 30t-44 36t-30.5 45.5t-11.5 59.5q0 23 8 43.5t20.5 36.5t27.5 27.5t29 16.5q-43 26 -66 65t-23 81t16.5 76t45 57.5t65.5 36.5t78 13q48 0 85 -14.5t61.5 -39.5t37.5 -58.5t13 -72.5l-90 -18q0 56 -27 90t-82 34q-48 0 -77.5 -26t-29.5 -69q0 -55 60 -86
l103 -54q28 -15 53 -31t44.5 -36t31 -45.5t11.5 -58.5zM228 366q-17 -8 -32.5 -30t-15.5 -50t14.5 -49t49.5 -39l100 -54q17 8 32.5 29.5t15.5 50.5q0 28 -14.5 49t-49.5 39z" />
    <glyph glyph-name="dieresis" unicode="&#xa8;" horiz-adv-x="379" 
d="M38 621q0 24 16.5 41t40.5 17q25 0 42 -17t17 -41q0 -25 -17 -41.5t-42 -16.5q-24 0 -40.5 16.5t-16.5 41.5zM225 621q0 24 16.5 41t41.5 17q24 0 41 -17t17 -41q0 -25 -17 -41.5t-41 -16.5q-25 0 -41.5 16.5t-16.5 41.5z" />
    <glyph glyph-name="copyright" unicode="&#xa9;" horiz-adv-x="821" 
d="M123 355q0 -63 22 -117.5t61 -94t91 -62.5t112 -23t112 23t91 62.5t61 94t22 117.5t-22 117t-61 94t-91 62.5t-112 22.5t-112 -22.5t-91 -62.5t-61 -94t-22 -117zM45 355q0 76 28.5 143t78 117.5t115.5 79.5t142 29t143 -29t116.5 -79.5t78.5 -117.5t29 -143t-29 -143.5
t-78.5 -117.5t-116.5 -79.5t-143 -29.5t-142 29.5t-115.5 79.5t-78 117.5t-28.5 143.5zM411 494q-23 0 -44.5 -8.5t-38 -26t-26.5 -43t-10 -59.5t10 -59.5t26 -43t38 -26.5t46 -9q28 0 47 8t31.5 20.5t20 26.5t10.5 26l68 -30q-7 -21 -21 -42.5t-36 -39.5t-52 -29t-68 -11
q-43 0 -79.5 16t-62.5 44t-41 66t-15 83t15 83.5t41.5 66t63 43t77.5 15.5q39 0 69 -11t51.5 -29t34.5 -40.5t20 -44.5l-70 -29q-4 14 -11 29t-20 26.5t-31 19.5t-43 8z" />
    <glyph glyph-name="ordfeminine" unicode="&#xaa;" horiz-adv-x="428" 
d="M66 401q0 45 30 71t73 32l88 12q15 2 20.5 9t5.5 16q0 23 -16 39.5t-52 16.5q-33 0 -51.5 -18.5t-21.5 -46.5l-69 16q2 23 13 43t29.5 35t43.5 24t55 9q39 0 66 -10.5t44.5 -27.5t25 -40t7.5 -48v-169q0 -17 1.5 -34.5t2.5 -20.5h-71q-2 6 -3 17t-1 27q-11 -19 -37 -36.5
t-68 -17.5q-27 0 -48 8.5t-36 22.5t-23 32.5t-8 38.5zM193 359q18 0 34.5 4.5t29 15.5t19.5 29t7 44v15l-95 -15q-20 -3 -33.5 -14t-13.5 -33q0 -18 13.5 -32t38.5 -14z" />
    <glyph glyph-name="guillemotleft" unicode="&#xab;" horiz-adv-x="471" 
d="M163 99l-133 191l133 191h93l-131 -191l131 -191h-93zM358 99l-133 191l133 191h93l-131 -191l131 -191h-93z" />
    <glyph glyph-name="logicalnot" unicode="&#xac;" horiz-adv-x="573" 
d="M424 149v195h-379v82h463v-277h-84z" />
    <glyph glyph-name="uni00AD" unicode="&#xad;" horiz-adv-x="361" 
d="M45 246v82h271v-82h-271z" />
    <glyph glyph-name="registered" unicode="&#xae;" horiz-adv-x="821" 
d="M45 355q0 76 28.5 143t78 117.5t115.5 79.5t142 29t143 -29t116.5 -79.5t78.5 -117.5t29 -143t-29 -143.5t-78.5 -117.5t-116.5 -79.5t-143 -29.5t-142 29.5t-115.5 79.5t-78 117.5t-28.5 143.5zM123 355q0 -63 22 -117.5t61 -94t91 -62.5t112 -23t112 23t91 62.5t61 94
t22 117.5t-22 117t-61 94t-91 62.5t-112 22.5t-112 -22.5t-91 -62.5t-61 -94t-22 -117zM415 373q34 0 52 15.5t18 43.5q0 61 -70 61h-52v-120h52zM363 157h-76v402h139q29 0 54 -9.5t43 -26.5t28.5 -40t10.5 -50q0 -42 -24.5 -74t-63.5 -45l90 -157h-87l-84 150h-30v-150z
" />
    <glyph glyph-name="macron" unicode="&#xaf;" horiz-adv-x="343" 
d="M35 577v81h273v-81h-273z" />
    <glyph glyph-name="degree" unicode="&#xb0;" horiz-adv-x="371" 
d="M108 502q0 -35 22.5 -57t54.5 -22q33 0 55 22t22 57q0 34 -22 56t-55 22q-32 0 -54.5 -22t-22.5 -56zM25 502q0 33 13 61.5t35 50t51 33.5t61 12t61.5 -12t51.5 -33.5t35 -50t13 -61.5t-13 -62t-35 -50.5t-51.5 -33.5t-61.5 -12t-61 12t-51 33.5t-35 50.5t-13 62z" />
    <glyph glyph-name="plusminus" unicode="&#xb1;" horiz-adv-x="567" 
d="M242 386v136h82v-136h178v-77h-178v-134h-82v134h-177v77h177zM502 130v-79h-437v79h437z" />
    <glyph glyph-name="twosuperior" unicode="&#xb2;" horiz-adv-x="389" 
d="M67 568q-2 8 -2.5 16.5t-0.5 14.5q0 24 9 45t26 37t41.5 25.5t55.5 9.5t55 -9.5t41 -25t26 -36.5t9 -44q0 -35 -19 -62.5t-51 -47.5l-72 -45q-11 -8 -20 -17t-11 -20h175v-65h-268v13q0 45 20 81.5t65 63.5l60 37q43 26 43 63q0 20 -14 35t-40 15t-41.5 -16t-15.5 -42
q0 -3 0.5 -11t2.5 -15h-74z" />
    <glyph glyph-name="threesuperior" unicode="&#xb3;" horiz-adv-x="412" 
d="M149 565l95 79h-171v65h271v-63l-100 -80q21 -2 40.5 -9.5t34.5 -21t24 -33.5t9 -45t-10.5 -47t-29.5 -38.5t-45.5 -26t-59.5 -9.5t-58 9t-43.5 23t-30 32.5t-15.5 38.5l67 27q5 -29 26.5 -46.5t52.5 -17.5t49.5 16t18.5 39q0 31 -21.5 43.5t-46.5 12.5q-8 0 -15.5 -1
t-12.5 -3z" />
    <glyph glyph-name="acute" unicode="&#xb4;" horiz-adv-x="274" 
d="M114 543h-79l87 146h118z" />
    <glyph glyph-name="mu" unicode="&#xb5;" horiz-adv-x="571" 
d="M402 58q-20 -38 -60 -55.5t-82 -17.5q-27 0 -47.5 5.5t-38.5 14.5v-195h-94v671h94v-289q0 -25 6 -47.5t19 -39.5t33.5 -27t50.5 -10q57 0 85.5 34t28.5 89v290h94v-392q0 -29 1.5 -54t3.5 -35h-90q-2 8 -3 25.5t-1 32.5z" />
    <glyph glyph-name="paragraph" unicode="&#xb6;" horiz-adv-x="626" 
d="M328 -201h-83v522h-16q-39 0 -74.5 14.5t-62 40t-42 60.5t-15.5 75q0 48 18 85t49 62t72 38t87 13h340v-81h-97v-829h-83v829h-93v-829z" />
    <glyph glyph-name="periodcentered" unicode="&#xb7;" horiz-adv-x="279" 
d="M70 284q0 29 20 49.5t49 20.5t49.5 -20.5t20.5 -49.5t-20.5 -49t-49.5 -20t-49 20t-20 49z" />
    <glyph glyph-name="cedilla" unicode="&#xb8;" horiz-adv-x="294" 
d="M82 -62l48 76h71l-39 -60q42 0 69.5 -22t27.5 -60q0 -18 -7 -34t-21 -28.5t-36.5 -20t-52.5 -7.5q-38 0 -66.5 14t-43.5 32l37 45q9 -10 27.5 -22t44.5 -12q18 0 32.5 8t14.5 25q0 14 -11.5 23t-32.5 9q-16 0 -29 -5z" />
    <glyph glyph-name="onesuperior" unicode="&#xb9;" horiz-adv-x="293" 
d="M136 344v245h-86v52q37 1 62 20.5t30 47.5h71v-365h-77z" />
    <glyph glyph-name="ordmasculine" unicode="&#xba;" horiz-adv-x="484" 
d="M242 366q39 0 69 28.5t30 84.5t-30 84t-69 28q-40 0 -70 -28t-30 -84t30 -84.5t70 -28.5zM242 659q38 0 70 -13.5t55.5 -37.5t36.5 -57t13 -72t-13 -72t-36.5 -57t-55.5 -37.5t-70 -13.5t-70.5 13.5t-55.5 37.5t-36 57t-13 72t13 72t36 57t55.5 37.5t70.5 13.5z" />
    <glyph glyph-name="guillemotright" unicode="&#xbb;" horiz-adv-x="471" 
d="M215 99l131 191l-131 191h93l133 -191l-133 -191h-93zM20 99l131 191l-131 191h93l133 -191l-133 -191h-93z" />
    <glyph glyph-name="onequarter" unicode="&#xbc;" horiz-adv-x="780" 
d="M141 283v245h-86v52q37 1 62 20.5t30 47.5h71v-365h-77zM81 0l466 648h90l-464 -648h-92zM404 146l177 220h85v-228h64v-65h-64v-72h-77v72h-185v73zM589 277l-111 -139h111v139z" />
    <glyph glyph-name="onehalf" unicode="&#xbd;" horiz-adv-x="779" 
d="M80 0l466 648h90l-464 -648h-92zM141 283v245h-86v52q37 1 62 20.5t30 47.5h71v-365h-77zM469 225q-2 8 -2.5 16.5t-0.5 14.5q0 24 9 45t26 37t41.5 25.5t55.5 9.5t55 -9.5t41 -25t26 -36.5t9 -44q0 -35 -19 -62.5t-51 -47.5l-72 -45q-11 -8 -20 -17t-11 -20h175v-65
h-268v13q0 45 20 81.5t65 63.5l60 37q43 26 43 63q0 20 -14 35t-40 15t-41.5 -16t-15.5 -42q0 -3 0.5 -11t2.5 -15h-74z" />
    <glyph glyph-name="threequarters" unicode="&#xbe;" horiz-adv-x="850" 
d="M169 0l466 648h90l-464 -648h-92zM145 504l95 79h-171v65h271v-63l-100 -80q21 -2 40.5 -9.5t34.5 -21t24 -33.5t9 -45t-10.5 -47t-29.5 -38.5t-45.5 -26t-59.5 -9.5t-58 9t-43.5 23t-30 32.5t-15.5 38.5l67 27q5 -29 26.5 -46.5t52.5 -17.5t49.5 16t18.5 39
q0 31 -21.5 43.5t-46.5 12.5q-8 0 -15.5 -1t-12.5 -3zM474 146l177 220h85v-228h64v-65h-64v-72h-77v72h-185v73zM659 277l-111 -139h111v139z" />
    <glyph glyph-name="questiondown" unicode="&#xbf;" horiz-adv-x="510" 
d="M299 289q1 -9 1 -17v-18q0 -50 -19 -88t-64 -68l-44 -30q-26 -17 -39.5 -43t-13.5 -55q0 -22 7.5 -42.5t22 -36.5t37 -25.5t52.5 -9.5q33 0 56.5 11t38.5 29t22.5 41t7.5 47q0 13 -2 27t-5 22l97 -12q6 -21 6 -48q0 -35 -13 -71t-40 -66t-68.5 -49t-99.5 -19
q-53 0 -93.5 17t-68.5 45t-42.5 64.5t-14.5 74.5q0 60 29 102.5t73 71.5l46 31q23 16 33.5 41.5t10.5 54.5v9.5t-1 9.5h88zM320 431q0 -27 -19 -46.5t-46 -19.5t-46.5 19.5t-19.5 46.5t19.5 46t46.5 19t46 -19t19 -46z" />
    <glyph glyph-name="Agrave" unicode="&#xc0;" horiz-adv-x="697" 
d="M504 198h-314l-75 -198h-105l282 709h113l282 -709h-106zM225 289h244l-123 318zM163 878h129l102 -119h-93z" />
    <glyph glyph-name="Aacute" unicode="&#xc1;" horiz-adv-x="697" 
d="M504 198h-314l-75 -198h-105l282 709h113l282 -709h-106zM225 289h244l-123 318zM394 759h-94l101 119h130z" />
    <glyph glyph-name="Acircumflex" unicode="&#xc2;" horiz-adv-x="697" 
d="M504 198h-314l-75 -198h-105l282 709h113l282 -709h-106zM225 289h244l-123 318zM172 759l112 119h120l117 -119h-92l-85 64l-81 -64h-91z" />
    <glyph glyph-name="Atilde" unicode="&#xc3;" horiz-adv-x="697" 
d="M504 198h-314l-75 -198h-105l282 709h113l282 -709h-106zM225 289h244l-123 318zM506 865q0 -56 -27 -83.5t-69 -27.5q-22 0 -39 6t-32 17l-15 10q-10 6 -18.5 10t-18.5 4q-16 0 -25.5 -10.5t-9.5 -33.5h-68v16q0 56 27.5 83.5t69.5 27.5q21 0 39.5 -7t33.5 -16l15 -9
q11 -6 19.5 -10t18.5 -4q13 0 22.5 7.5t9.5 27.5v8h67v-16z" />
    <glyph glyph-name="Adieresis" unicode="&#xc4;" horiz-adv-x="697" 
d="M142 819q0 25 17 42t42 17t42 -17t17 -42t-17 -42t-42 -17t-42 17t-17 42zM433 819q0 25 17 42t42 17t42 -17t17 -42t-17 -42t-42 -17t-42 17t-17 42zM504 198h-314l-75 -198h-105l282 709h113l282 -709h-106zM225 289h244l-123 318z" />
    <glyph glyph-name="Aring" unicode="&#xc5;" horiz-adv-x="697" 
d="M225 289h244l-123 318zM397 760q0 21 -15 36.5t-38 15.5q-21 0 -35.5 -15.5t-14.5 -36.5q0 -22 14.5 -36.5t35.5 -14.5q23 0 38 14.5t15 36.5zM469 760q0 -29 -13 -53t-34 -41l265 -666h-106l-77 198h-314l-75 -198h-105l264 664q-23 17 -36.5 41.5t-13.5 54.5
q0 25 10 47.5t26.5 38.5t39 25.5t46.5 9.5q25 0 47.5 -9.5t39 -25.5t26.5 -38.5t10 -47.5z" />
    <glyph glyph-name="AE" unicode="&#xc6;" horiz-adv-x="1026" 
d="M535 0v196h-278l-126 -196h-126l472 709h489v-91h-333v-218h302v-92h-302v-217h333v-91h-431zM535 284v344l-222 -344h222z" />
    <glyph glyph-name="Ccedilla" unicode="&#xc7;" horiz-adv-x="750" 
d="M338 -62l30 48q-64 5 -122.5 31.5t-103 73.5t-71 113.5t-26.5 150.5q0 89 30 157.5t79.5 115.5t113 71.5t129.5 24.5q61 0 112 -16t91 -45t67.5 -71t41.5 -93l-91 -32q-20 81 -76.5 124t-144.5 43q-48 0 -93.5 -17.5t-81 -52.5t-56.5 -87.5t-21 -121.5t21 -121.5
t56.5 -88t81 -53t93.5 -17.5q44 0 81 13t65.5 35.5t48.5 54t31 67.5l87 -32q-13 -45 -38 -84t-59.5 -68.5t-78.5 -48.5t-95 -25l-21 -33q42 0 69.5 -22t27.5 -60q0 -18 -7 -34t-21 -28.5t-36.5 -20t-52.5 -7.5q-38 0 -66.5 14t-43.5 32l37 45q9 -10 27.5 -22t44.5 -12
q18 0 32.5 8t14.5 25q0 14 -11.5 23t-32.5 9q-16 0 -29 -5z" />
    <glyph glyph-name="Egrave" unicode="&#xc8;" horiz-adv-x="581" 
d="M90 0v709h431v-91h-333v-218h302v-92h-302v-217h333v-91h-431zM149 878h129l102 -119h-93z" />
    <glyph glyph-name="Eacute" unicode="&#xc9;" horiz-adv-x="581" 
d="M90 0v709h431v-91h-333v-218h302v-92h-302v-217h333v-91h-431zM328 759h-94l101 119h130z" />
    <glyph glyph-name="Ecircumflex" unicode="&#xca;" horiz-adv-x="581" 
d="M90 0v709h431v-91h-333v-218h302v-92h-302v-217h333v-91h-431zM131 759l112 119h120l117 -119h-92l-85 64l-81 -64h-91z" />
    <glyph glyph-name="Edieresis" unicode="&#xcb;" horiz-adv-x="581" 
d="M90 0v709h431v-91h-333v-218h302v-92h-302v-217h333v-91h-431zM133 819q0 25 17 42t42 17t42 -17t17 -42t-17 -42t-42 -17t-42 17t-17 42zM364 819q0 25 17 42t42 17t42 -17t17 -42t-17 -42t-42 -17t-42 17t-17 42z" />
    <glyph glyph-name="Igrave" unicode="&#xcc;" horiz-adv-x="280" 
d="M90 0v709h100v-709h-100zM-44 878h129l102 -119h-93z" />
    <glyph glyph-name="Iacute" unicode="&#xcd;" horiz-adv-x="280" 
d="M90 0v709h100v-709h-100zM188 759h-94l101 119h130z" />
    <glyph glyph-name="Icircumflex" unicode="&#xce;" horiz-adv-x="280" 
d="M90 0v709h100v-709h-100zM-27 759l112 119h120l117 -119h-92l-85 64l-81 -64h-91z" />
    <glyph glyph-name="Idieresis" unicode="&#xcf;" horiz-adv-x="280" 
d="M90 0v709h100v-709h-100zM12 819q0 23 15 38t38 15t38.5 -15t15.5 -38t-15.5 -38.5t-38.5 -15.5t-38 15.5t-15 38.5zM165 819q0 23 15.5 38t38.5 15t38 -15t15 -38t-15 -38.5t-38 -15.5t-38.5 15.5t-15.5 38.5z" />
    <glyph glyph-name="Eth" unicode="&#xd0;" horiz-adv-x="724" 
d="M94 0v325h-76v82h76v302h248q67 0 128.5 -23t107.5 -68t73.5 -111.5t27.5 -153.5t-27.5 -153t-74.5 -110.5t-108.5 -67t-128.5 -22.5h-246zM337 87q49 0 93 16.5t77 49.5t52 83t19 117t-19 117.5t-51.5 84t-76 50.5t-92.5 17h-147v-215h122v-82h-122v-238h145z" />
    <glyph glyph-name="Ntilde" unicode="&#xd1;" horiz-adv-x="763" 
d="M571 0l-383 578v-578h-98v709h131l354 -544v544h98v-709h-102zM543 865q0 -56 -27 -83.5t-69 -27.5q-22 0 -39 6t-32 17l-15 10q-10 6 -18.5 10t-18.5 4q-16 0 -25.5 -10.5t-9.5 -33.5h-68v16q0 56 27.5 83.5t69.5 27.5q21 0 39.5 -7t33.5 -16l15 -9q11 -6 19.5 -10
t18.5 -4q13 0 22.5 7.5t9.5 27.5v8h67v-16z" />
    <glyph glyph-name="Ograve" unicode="&#xd2;" horiz-adv-x="802" 
d="M145 355q0 -69 21.5 -121.5t57 -88t81.5 -53t96 -17.5q49 0 95.5 17.5t82 53t57 88t21.5 121.5t-21.5 121.5t-57 87.5t-82 52.5t-95.5 17.5q-50 0 -96 -17.5t-81.5 -52.5t-57 -87.5t-21.5 -121.5zM45 355q0 89 30.5 157.5t80.5 115.5t114 71.5t131 24.5t131 -24.5
t114 -71.5t80.5 -115.5t30.5 -157.5t-30.5 -158t-80.5 -116t-114 -71.5t-131 -24.5t-131 24.5t-114 71.5t-80.5 116t-30.5 158zM223 878h129l102 -119h-93z" />
    <glyph glyph-name="Oacute" unicode="&#xd3;" horiz-adv-x="802" 
d="M145 355q0 -69 21.5 -121.5t57 -88t81.5 -53t96 -17.5q49 0 95.5 17.5t82 53t57 88t21.5 121.5t-21.5 121.5t-57 87.5t-82 52.5t-95.5 17.5q-50 0 -96 -17.5t-81.5 -52.5t-57 -87.5t-21.5 -121.5zM45 355q0 89 30.5 157.5t80.5 115.5t114 71.5t131 24.5t131 -24.5
t114 -71.5t80.5 -115.5t30.5 -157.5t-30.5 -158t-80.5 -116t-114 -71.5t-131 -24.5t-131 24.5t-114 71.5t-80.5 116t-30.5 158zM440 759h-94l101 119h130z" />
    <glyph glyph-name="Ocircumflex" unicode="&#xd4;" horiz-adv-x="802" 
d="M145 355q0 -69 21.5 -121.5t57 -88t81.5 -53t96 -17.5q49 0 95.5 17.5t82 53t57 88t21.5 121.5t-21.5 121.5t-57 87.5t-82 52.5t-95.5 17.5q-50 0 -96 -17.5t-81.5 -52.5t-57 -87.5t-21.5 -121.5zM45 355q0 89 30.5 157.5t80.5 115.5t114 71.5t131 24.5t131 -24.5
t114 -71.5t80.5 -115.5t30.5 -157.5t-30.5 -158t-80.5 -116t-114 -71.5t-131 -24.5t-131 24.5t-114 71.5t-80.5 116t-30.5 158zM227 759l112 119h120l117 -119h-92l-85 64l-81 -64h-91z" />
    <glyph glyph-name="Otilde" unicode="&#xd5;" horiz-adv-x="802" 
d="M145 355q0 -69 21.5 -121.5t57 -88t81.5 -53t96 -17.5q49 0 95.5 17.5t82 53t57 88t21.5 121.5t-21.5 121.5t-57 87.5t-82 52.5t-95.5 17.5q-50 0 -96 -17.5t-81.5 -52.5t-57 -87.5t-21.5 -121.5zM45 355q0 89 30.5 157.5t80.5 115.5t114 71.5t131 24.5t131 -24.5
t114 -71.5t80.5 -115.5t30.5 -157.5t-30.5 -158t-80.5 -116t-114 -71.5t-131 -24.5t-131 24.5t-114 71.5t-80.5 116t-30.5 158zM566 866q0 -56 -27 -83.5t-69 -27.5q-22 0 -39 6t-32 17l-15 10q-10 6 -18.5 10t-18.5 4q-16 0 -25.5 -10.5t-9.5 -33.5h-68v16q0 56 27.5 83.5
t69.5 27.5q21 0 39.5 -7t33.5 -16l15 -9q11 -6 19.5 -10t18.5 -4q13 0 22.5 7.5t9.5 27.5v8h67v-16z" />
    <glyph glyph-name="Odieresis" unicode="&#xd6;" horiz-adv-x="802" 
d="M187 819q0 25 17 42t42 17t42 -17t17 -42t-17 -42t-42 -17t-42 17t-17 42zM498 819q0 25 17 42t42 17t42 -17t17 -42t-17 -42t-42 -17t-42 17t-17 42zM145 355q0 -69 21.5 -121.5t57 -88t81.5 -53t96 -17.5q49 0 95.5 17.5t82 53t57 88t21.5 121.5t-21.5 121.5t-57 87.5
t-82 52.5t-95.5 17.5q-50 0 -96 -17.5t-81.5 -52.5t-57 -87.5t-21.5 -121.5zM45 355q0 89 30.5 157.5t80.5 115.5t114 71.5t131 24.5t131 -24.5t114 -71.5t80.5 -115.5t30.5 -157.5t-30.5 -158t-80.5 -116t-114 -71.5t-131 -24.5t-131 24.5t-114 71.5t-80.5 116t-30.5 158z
" />
    <glyph glyph-name="multiply" unicode="&#xd7;" horiz-adv-x="530" 
d="M264 230l-168 -174l-56 56l169 176l-168 174l57 57l167 -174l167 174l57 -56l-169 -175l170 -176l-56 -57z" />
    <glyph glyph-name="Oslash" unicode="&#xd8;" horiz-adv-x="802" 
d="M45 355q0 89 30.5 157.5t80.5 115.5t114 71.5t131 24.5q51 0 99.5 -14t91.5 -41l72 92l68 -52l-73 -94q45 -47 71.5 -112t26.5 -148q0 -89 -30.5 -158t-80.5 -116t-114 -71.5t-131 -24.5q-50 0 -98 13.5t-91 39.5l-68 -89l-70 51l71 92q-45 47 -72.5 112.5t-27.5 150.5z
M145 355q0 -60 15.5 -106.5t43.5 -81.5l332 429q-61 38 -135 38q-50 0 -96 -17.5t-81.5 -52.5t-57 -87.5t-21.5 -121.5zM657 355q0 58 -15.5 103.5t-41.5 80.5l-332 -429q30 -18 64 -26.5t69 -8.5q49 0 95.5 17.5t82 53t57 88t21.5 121.5z" />
    <glyph glyph-name="Ugrave" unicode="&#xd9;" horiz-adv-x="670" 
d="M335 -15q-54 0 -100.5 16.5t-81 49t-54 80.5t-19.5 111v467h97v-464q0 -81 41.5 -125t116.5 -44t116 44t41 125v464h98v-467q0 -63 -19.5 -111t-54 -80.5t-81 -49t-100.5 -16.5zM173 878h129l102 -119h-93z" />
    <glyph glyph-name="Uacute" unicode="&#xda;" horiz-adv-x="670" 
d="M335 -15q-54 0 -100.5 16.5t-81 49t-54 80.5t-19.5 111v467h97v-464q0 -81 41.5 -125t116.5 -44t116 44t41 125v464h98v-467q0 -63 -19.5 -111t-54 -80.5t-81 -49t-100.5 -16.5zM357 759h-94l101 119h130z" />
    <glyph glyph-name="Ucircumflex" unicode="&#xdb;" horiz-adv-x="670" 
d="M335 -15q-54 0 -100.5 16.5t-81 49t-54 80.5t-19.5 111v467h97v-464q0 -81 41.5 -125t116.5 -44t116 44t41 125v464h98v-467q0 -63 -19.5 -111t-54 -80.5t-81 -49t-100.5 -16.5zM161 759l112 119h120l117 -119h-92l-85 64l-81 -64h-91z" />
    <glyph glyph-name="Udieresis" unicode="&#xdc;" horiz-adv-x="670" 
d="M166 819q0 25 17 42t42 17t42 -17t17 -42t-17 -42t-42 -17t-42 17t-17 42zM387 819q0 25 17 42t42 17t42 -17t17 -42t-17 -42t-42 -17t-42 17t-17 42zM335 -15q-54 0 -100.5 16.5t-81 49t-54 80.5t-19.5 111v467h97v-464q0 -81 41.5 -125t116.5 -44t116 44t41 125v464h98
v-467q0 -63 -19.5 -111t-54 -80.5t-81 -49t-100.5 -16.5z" />
    <glyph glyph-name="Yacute" unicode="&#xdd;" horiz-adv-x="618" 
d="M10 709h118l184 -316l184 316h112l-250 -406v-303h-98v303zM330 759h-94l101 119h130z" />
    <glyph glyph-name="Thorn" unicode="&#xde;" horiz-adv-x="592" 
d="M332 244q64 0 99.5 32t35.5 87q0 57 -35.5 89.5t-99.5 32.5h-144v-241h144zM188 157v-157h-98v709h98v-137h155q49 0 90 -16t71 -43.5t46.5 -65.5t16.5 -83t-16.5 -83t-46 -65.5t-70.5 -43t-90 -15.5h-156z" />
    <glyph glyph-name="germandbls" unicode="&#xdf;" horiz-adv-x="567" 
d="M357 343q0 -20 12.5 -29t33.5 -19l35 -17q42 -20 73 -57.5t31 -90.5q0 -25 -9.5 -51t-30 -47t-51 -34t-72.5 -13q-45 0 -76.5 14t-51 35t-28 45.5t-8.5 46.5l83 22q0 -12 4 -27t13.5 -28t25 -21.5t38.5 -8.5q36 0 53 20t17 39q0 26 -13 43t-39 30l-34 16q-17 8 -35.5 18
t-34 25t-25.5 35.5t-10 48.5q0 36 17 62.5t46 45.5l32 21q25 16 41 36.5t16 48.5q0 36 -28.5 62.5t-81.5 26.5q-26 0 -48.5 -9.5t-40 -28.5t-27.5 -48t-10 -67v-488h-94v493q0 55 17 98t47 72.5t70 45t86 15.5t83.5 -13t64.5 -36t42 -53.5t15 -66.5q0 -29 -7.5 -52
t-19.5 -41t-28 -31.5t-33 -23.5l-29 -18q-14 -8 -22.5 -18.5t-8.5 -27.5z" />
    <glyph glyph-name="agrave" unicode="&#xe0;" horiz-adv-x="523" 
d="M50 129q0 32 11 57.5t30.5 43.5t46.5 29t58 16l130 19q22 3 29.5 13t7.5 23q0 35 -24.5 60.5t-79.5 25.5q-50 0 -77 -27.5t-32 -69.5l-90 21q4 34 20.5 63t42.5 49.5t60.5 32t73.5 11.5q54 0 92 -14.5t62 -38.5t35 -56t11 -67v-241q0 -32 2 -51t4 -28h-92q-2 9 -3.5 24
t-1.5 41q-8 -13 -21 -27t-32 -26t-44.5 -19.5t-57.5 -7.5q-37 0 -66.5 12t-50.5 31.5t-32.5 45.5t-11.5 55zM224 64q29 0 54.5 7.5t44 24t29.5 44t11 66.5v22l-147 -22q-30 -5 -50 -22.5t-20 -49.5q0 -27 21 -48.5t57 -21.5zM109 689h118l86 -146h-78z" />
    <glyph glyph-name="aacute" unicode="&#xe1;" horiz-adv-x="523" 
d="M50 129q0 32 11 57.5t30.5 43.5t46.5 29t58 16l130 19q22 3 29.5 13t7.5 23q0 35 -24.5 60.5t-79.5 25.5q-50 0 -77 -27.5t-32 -69.5l-90 21q4 34 20.5 63t42.5 49.5t60.5 32t73.5 11.5q54 0 92 -14.5t62 -38.5t35 -56t11 -67v-241q0 -32 2 -51t4 -28h-92q-2 9 -3.5 24
t-1.5 41q-8 -13 -21 -27t-32 -26t-44.5 -19.5t-57.5 -7.5q-37 0 -66.5 12t-50.5 31.5t-32.5 45.5t-11.5 55zM224 64q29 0 54.5 7.5t44 24t29.5 44t11 66.5v22l-147 -22q-30 -5 -50 -22.5t-20 -49.5q0 -27 21 -48.5t57 -21.5zM299 543h-79l87 146h118z" />
    <glyph glyph-name="acircumflex" unicode="&#xe2;" horiz-adv-x="523" 
d="M50 129q0 32 11 57.5t30.5 43.5t46.5 29t58 16l130 19q22 3 29.5 13t7.5 23q0 35 -24.5 60.5t-79.5 25.5q-50 0 -77 -27.5t-32 -69.5l-90 21q4 34 20.5 63t42.5 49.5t60.5 32t73.5 11.5q54 0 92 -14.5t62 -38.5t35 -56t11 -67v-241q0 -32 2 -51t4 -28h-92q-2 9 -3.5 24
t-1.5 41q-8 -13 -21 -27t-32 -26t-44.5 -19.5t-57.5 -7.5q-37 0 -66.5 12t-50.5 31.5t-32.5 45.5t-11.5 55zM224 64q29 0 54.5 7.5t44 24t29.5 44t11 66.5v22l-147 -22q-30 -5 -50 -22.5t-20 -49.5q0 -27 21 -48.5t57 -21.5zM108 545l104 139h107l104 -139h-88l-70 81
l-70 -81h-87z" />
    <glyph glyph-name="atilde" unicode="&#xe3;" horiz-adv-x="523" 
d="M50 129q0 32 11 57.5t30.5 43.5t46.5 29t58 16l130 19q22 3 29.5 13t7.5 23q0 35 -24.5 60.5t-79.5 25.5q-50 0 -77 -27.5t-32 -69.5l-90 21q4 34 20.5 63t42.5 49.5t60.5 32t73.5 11.5q54 0 92 -14.5t62 -38.5t35 -56t11 -67v-241q0 -32 2 -51t4 -28h-92q-2 9 -3.5 24
t-1.5 41q-8 -13 -21 -27t-32 -26t-44.5 -19.5t-57.5 -7.5q-37 0 -66.5 12t-50.5 31.5t-32.5 45.5t-11.5 55zM224 64q29 0 54.5 7.5t44 24t29.5 44t11 66.5v22l-147 -22q-30 -5 -50 -22.5t-20 -49.5q0 -27 21 -48.5t57 -21.5zM422 662q0 -56 -27.5 -82.5t-69.5 -26.5
q-20 0 -36 6.5t-30 15.5l-14 9q-10 6 -18.5 10t-18.5 4q-14 0 -21.5 -9t-7.5 -34h-72v15q0 56 28 82.5t70 26.5q20 0 36.5 -6.5t30.5 -15.5l14 -9q10 -6 18 -10t18 -4q15 0 22 9.5t7 33.5h71v-15z" />
    <glyph glyph-name="adieresis" unicode="&#xe4;" horiz-adv-x="523" 
d="M50 129q0 32 11 57.5t30.5 43.5t46.5 29t58 16l130 19q22 3 29.5 13t7.5 23q0 35 -24.5 60.5t-79.5 25.5q-50 0 -77 -27.5t-32 -69.5l-90 21q4 34 20.5 63t42.5 49.5t60.5 32t73.5 11.5q54 0 92 -14.5t62 -38.5t35 -56t11 -67v-241q0 -32 2 -51t4 -28h-92q-2 9 -3.5 24
t-1.5 41q-8 -13 -21 -27t-32 -26t-44.5 -19.5t-57.5 -7.5q-37 0 -66.5 12t-50.5 31.5t-32.5 45.5t-11.5 55zM224 64q29 0 54.5 7.5t44 24t29.5 44t11 66.5v22l-147 -22q-30 -5 -50 -22.5t-20 -49.5q0 -27 21 -48.5t57 -21.5zM110 621q0 24 16.5 41t40.5 17q25 0 42 -17
t17 -41q0 -25 -17 -41.5t-42 -16.5q-24 0 -40.5 16.5t-16.5 41.5zM297 621q0 24 16.5 41t41.5 17q24 0 41 -17t17 -41q0 -25 -17 -41.5t-41 -16.5q-25 0 -41.5 16.5t-16.5 41.5z" />
    <glyph glyph-name="aring" unicode="&#xe5;" horiz-adv-x="523" 
d="M50 129q0 32 11 57.5t30.5 43.5t46.5 29t58 16l130 19q22 3 29.5 13t7.5 23q0 35 -24.5 60.5t-79.5 25.5q-50 0 -77 -27.5t-32 -69.5l-90 21q4 34 20.5 63t42.5 49.5t60.5 32t73.5 11.5q54 0 92 -14.5t62 -38.5t35 -56t11 -67v-241q0 -32 2 -51t4 -28h-92q-2 9 -3.5 24
t-1.5 41q-8 -13 -21 -27t-32 -26t-44.5 -19.5t-57.5 -7.5q-37 0 -66.5 12t-50.5 31.5t-32.5 45.5t-11.5 55zM224 64q29 0 54.5 7.5t44 24t29.5 44t11 66.5v22l-147 -22q-30 -5 -50 -22.5t-20 -49.5q0 -27 21 -48.5t57 -21.5zM373 641q0 -23 -9 -43t-24 -34.5t-35.5 -23
t-43.5 -8.5q-22 0 -42 8.5t-35.5 23t-24.5 34.5t-9 43t9 43t24.5 35t35.5 23.5t42 8.5q23 0 43.5 -8.5t35.5 -23.5t24 -35t9 -43zM309 641q0 20 -14 34.5t-35 14.5q-20 0 -33.5 -14.5t-13.5 -34.5t13.5 -34t33.5 -14q21 0 35 14t14 34z" />
    <glyph glyph-name="ae" unicode="&#xe6;" horiz-adv-x="874" 
d="M831 137q-10 -32 -30 -59.5t-48 -48t-63 -32.5t-75 -12q-61 0 -113.5 26.5t-86.5 77.5q-11 -19 -27 -37.5t-39 -33.5t-54.5 -24t-72.5 -9t-73 12t-54 31.5t-33.5 45.5t-11.5 55q0 32 11 57.5t30.5 43.5t46.5 29t58 16l139 19q24 4 31 14.5t7 21.5q0 35 -27.5 61t-82.5 26
q-51 0 -80.5 -28t-34.5 -66l-88 17q3 36 22.5 65t48 49.5t63 31t69.5 10.5q62 0 105 -22t66 -58q32 38 76 59t93 21q55 0 98.5 -18.5t72.5 -51.5t44.5 -79.5t15.5 -102.5q0 -7 -0.5 -16.5t-1.5 -13.5h-362q1 -32 12.5 -58.5t31 -46t45.5 -30.5t56 -11q58 0 89 28t45 69z
M229 64q25 0 50.5 7.5t46.5 24t34 43.5t13 66v23l-157 -22q-32 -5 -51 -23t-19 -51q0 -26 21.5 -47t61.5 -21zM736 290q-2 52 -35.5 87.5t-96.5 35.5q-30 0 -53.5 -10.5t-40 -28t-26.5 -39.5t-11 -45h263z" />
    <glyph glyph-name="ccedilla" unicode="&#xe7;" horiz-adv-x="530" 
d="M220 -63l32 50q-47 6 -85.5 27.5t-67 55t-44 77.5t-15.5 94q0 55 18.5 102t51 81t77 53t95.5 19q48 0 84.5 -13.5t63 -35.5t42.5 -49.5t24 -54.5l-85 -36q-5 18 -14 36t-24.5 32.5t-37.5 24t-53 9.5q-29 0 -55 -11t-46.5 -32t-32.5 -52.5t-12 -72.5t12 -72.5t32 -53
t47 -32.5t56 -11q33 0 56.5 10t39 25t25 32.5t13.5 31.5l83 -36q-8 -23 -22.5 -47t-36 -44t-51 -35t-67.5 -21l-23 -35q42 0 69.5 -22t27.5 -60q0 -35 -28 -61.5t-89 -26.5q-38 0 -66.5 13t-43.5 31l37 45q9 -10 27.5 -22t44.5 -12q18 0 32.5 8t14.5 25q0 14 -11.5 23
t-32.5 9q-16 0 -29 -5z" />
    <glyph glyph-name="egrave" unicode="&#xe8;" horiz-adv-x="542" 
d="M404 290q-2 52 -35 87.5t-97 35.5q-30 0 -53.5 -10.5t-40 -28t-26.5 -39.5t-11 -45h263zM499 137q-10 -32 -29.5 -59.5t-47 -48t-62.5 -32.5t-77 -12q-48 0 -92 17t-77.5 50t-53 81t-19.5 109q0 57 19 103.5t50.5 80t73.5 52t87 18.5q55 0 98.5 -18.5t72.5 -51.5
t44.5 -79.5t15.5 -102.5q0 -9 -0.5 -17t-1.5 -13h-362q1 -32 12 -59t30.5 -46.5t46 -30t56.5 -10.5q59 0 90 28t45 69zM124 689h118l86 -146h-78z" />
    <glyph glyph-name="eacute" unicode="&#xe9;" horiz-adv-x="542" 
d="M404 290q-2 52 -35 87.5t-97 35.5q-30 0 -53.5 -10.5t-40 -28t-26.5 -39.5t-11 -45h263zM499 137q-10 -32 -29.5 -59.5t-47 -48t-62.5 -32.5t-77 -12q-48 0 -92 17t-77.5 50t-53 81t-19.5 109q0 57 19 103.5t50.5 80t73.5 52t87 18.5q55 0 98.5 -18.5t72.5 -51.5
t44.5 -79.5t15.5 -102.5q0 -9 -0.5 -17t-1.5 -13h-362q1 -32 12 -59t30.5 -46.5t46 -30t56.5 -10.5q59 0 90 28t45 69zM309 543h-79l87 146h118z" />
    <glyph glyph-name="ecircumflex" unicode="&#xea;" horiz-adv-x="542" 
d="M404 290q-2 52 -35 87.5t-97 35.5q-30 0 -53.5 -10.5t-40 -28t-26.5 -39.5t-11 -45h263zM499 137q-10 -32 -29.5 -59.5t-47 -48t-62.5 -32.5t-77 -12q-48 0 -92 17t-77.5 50t-53 81t-19.5 109q0 57 19 103.5t50.5 80t73.5 52t87 18.5q55 0 98.5 -18.5t72.5 -51.5
t44.5 -79.5t15.5 -102.5q0 -9 -0.5 -17t-1.5 -13h-362q1 -32 12 -59t30.5 -46.5t46 -30t56.5 -10.5q59 0 90 28t45 69zM122 545l104 139h107l104 -139h-88l-70 81l-70 -81h-87z" />
    <glyph glyph-name="edieresis" unicode="&#xeb;" horiz-adv-x="542" 
d="M404 290q-2 52 -35 87.5t-97 35.5q-30 0 -53.5 -10.5t-40 -28t-26.5 -39.5t-11 -45h263zM499 137q-10 -32 -29.5 -59.5t-47 -48t-62.5 -32.5t-77 -12q-48 0 -92 17t-77.5 50t-53 81t-19.5 109q0 57 19 103.5t50.5 80t73.5 52t87 18.5q55 0 98.5 -18.5t72.5 -51.5
t44.5 -79.5t15.5 -102.5q0 -9 -0.5 -17t-1.5 -13h-362q1 -32 12 -59t30.5 -46.5t46 -30t56.5 -10.5q59 0 90 28t45 69zM126 621q0 24 16.5 41t40.5 17q25 0 42 -17t17 -41q0 -25 -17 -41.5t-42 -16.5q-24 0 -40.5 16.5t-16.5 41.5zM313 621q0 24 16.5 41t41.5 17
q24 0 41 -17t17 -41q0 -25 -17 -41.5t-41 -16.5q-25 0 -41.5 16.5t-16.5 41.5z" />
    <glyph glyph-name="igrave" unicode="&#xec;" horiz-adv-x="253" 
d="M-32 689h118l86 -146h-78zM80 0v481h93v-481h-93z" />
    <glyph glyph-name="iacute" unicode="&#xed;" horiz-adv-x="253" 
d="M164 543h-79l87 146h118zM80 0v481h93v-481h-93z" />
    <glyph glyph-name="icircumflex" unicode="&#xee;" horiz-adv-x="253" 
d="M80 0v481h93v-481h-93zM-29 545l104 139h107l104 -139h-88l-70 81l-70 -81h-87z" />
    <glyph glyph-name="idieresis" unicode="&#xef;" horiz-adv-x="253" 
d="M80 0v481h93v-481h-93zM4 621q0 23 15 38.5t38 15.5t38.5 -15.5t15.5 -38.5t-15.5 -38t-38.5 -15t-38 15t-15 38zM145 621q0 23 15 38.5t38 15.5t38.5 -15.5t15.5 -38.5t-15.5 -38t-38.5 -15t-38 15t-15 38z" />
    <glyph glyph-name="eth" unicode="&#xf0;" horiz-adv-x="570" 
d="M394 599q28 -26 53 -60t43.5 -76t29.5 -92t11 -110q0 -59 -17 -109t-48.5 -87t-77 -58t-103.5 -21q-54 0 -99 18t-77.5 50.5t-50.5 76.5t-18 96q0 55 20 99t52 75t73.5 47t85.5 16q45 0 81.5 -12.5t58.5 -37.5q-17 46 -43 81t-58 62l-131 -65l-29 63l94 47q-28 16 -56 27
t-56 19l29 76q29 -7 76.5 -25t97.5 -52l109 55l31 -63zM285 70q30 0 57 10t47.5 30t32.5 49.5t12 67.5q0 39 -12 68t-32.5 49t-47.5 30t-57 10t-57 -10.5t-48 -30.5t-33 -49t-12 -67t12 -67.5t33 -49.5t48 -30t57 -10z" />
    <glyph glyph-name="ntilde" unicode="&#xf1;" horiz-adv-x="562" 
d="M174 0h-94v481h92v-69q26 45 66 64t82 19q43 0 75.5 -14.5t54 -40t32 -60.5t10.5 -75v-305h-94v289q0 25 -5.5 47t-19 38.5t-35 26t-52.5 9.5q-28 0 -49 -10.5t-35 -28.5t-21 -42t-7 -51v-278zM452 662q0 -56 -27.5 -82.5t-69.5 -26.5q-20 0 -36 6.5t-30 15.5l-14 9
q-10 6 -18.5 10t-18.5 4q-14 0 -21.5 -9t-7.5 -34h-72v15q0 56 28 82.5t70 26.5q20 0 36.5 -6.5t30.5 -15.5l14 -9q10 -6 18 -10t18 -4q15 0 22 9.5t7 33.5h71v-15z" />
    <glyph glyph-name="ograve" unicode="&#xf2;" horiz-adv-x="572" 
d="M286 69q30 0 57 11t48 33t33 54t12 74t-12 73.5t-33 53.5t-48 33t-57 11t-57 -11t-48 -33t-33 -53.5t-12 -73.5t12 -74t33 -54t48 -33t57 -11zM286 496q54 0 99 -19.5t78 -53.5t51 -80.5t18 -101.5t-18 -102t-51 -81t-78 -53.5t-99 -19.5t-99 19.5t-78 53.5t-51 81
t-18 102t18 101.5t51 80.5t78 53.5t99 19.5zM125 689h118l86 -146h-78z" />
    <glyph glyph-name="oacute" unicode="&#xf3;" horiz-adv-x="572" 
d="M286 69q30 0 57 11t48 33t33 54t12 74t-12 73.5t-33 53.5t-48 33t-57 11t-57 -11t-48 -33t-33 -53.5t-12 -73.5t12 -74t33 -54t48 -33t57 -11zM286 496q54 0 99 -19.5t78 -53.5t51 -80.5t18 -101.5t-18 -102t-51 -81t-78 -53.5t-99 -19.5t-99 19.5t-78 53.5t-51 81
t-18 102t18 101.5t51 80.5t78 53.5t99 19.5zM309 543h-79l87 146h118z" />
    <glyph glyph-name="ocircumflex" unicode="&#xf4;" horiz-adv-x="572" 
d="M286 69q30 0 57 11t48 33t33 54t12 74t-12 73.5t-33 53.5t-48 33t-57 11t-57 -11t-48 -33t-33 -53.5t-12 -73.5t12 -74t33 -54t48 -33t57 -11zM286 496q54 0 99 -19.5t78 -53.5t51 -80.5t18 -101.5t-18 -102t-51 -81t-78 -53.5t-99 -19.5t-99 19.5t-78 53.5t-51 81
t-18 102t18 101.5t51 80.5t78 53.5t99 19.5zM129 545l104 139h107l104 -139h-88l-70 81l-70 -81h-87z" />
    <glyph glyph-name="otilde" unicode="&#xf5;" horiz-adv-x="572" 
d="M286 69q30 0 57 11t48 33t33 54t12 74t-12 73.5t-33 53.5t-48 33t-57 11t-57 -11t-48 -33t-33 -53.5t-12 -73.5t12 -74t33 -54t48 -33t57 -11zM286 496q54 0 99 -19.5t78 -53.5t51 -80.5t18 -101.5t-18 -102t-51 -81t-78 -53.5t-99 -19.5t-99 19.5t-78 53.5t-51 81
t-18 102t18 101.5t51 80.5t78 53.5t99 19.5zM445 662q0 -56 -27.5 -82.5t-69.5 -26.5q-20 0 -36 6.5t-30 15.5l-14 9q-10 6 -18.5 10t-18.5 4q-14 0 -21.5 -9t-7.5 -34h-72v15q0 56 28 82.5t70 26.5q20 0 36.5 -6.5t30.5 -15.5l14 -9q10 -6 18 -10t18 -4q15 0 22 9.5t7 33.5
h71v-15z" />
    <glyph glyph-name="odieresis" unicode="&#xf6;" horiz-adv-x="572" 
d="M286 69q30 0 57 11t48 33t33 54t12 74t-12 73.5t-33 53.5t-48 33t-57 11t-57 -11t-48 -33t-33 -53.5t-12 -73.5t12 -74t33 -54t48 -33t57 -11zM286 496q54 0 99 -19.5t78 -53.5t51 -80.5t18 -101.5t-18 -102t-51 -81t-78 -53.5t-99 -19.5t-99 19.5t-78 53.5t-51 81
t-18 102t18 101.5t51 80.5t78 53.5t99 19.5zM134 621q0 24 16.5 41t40.5 17q25 0 42 -17t17 -41q0 -25 -17 -41.5t-42 -16.5q-24 0 -40.5 16.5t-16.5 41.5zM321 621q0 24 16.5 41t41.5 17q24 0 41 -17t17 -41q0 -25 -17 -41.5t-41 -16.5q-25 0 -41.5 16.5t-16.5 41.5z" />
    <glyph glyph-name="divide" unicode="&#xf7;" horiz-adv-x="567" 
d="M218 110q0 26 19.5 45t45.5 19t45 -19t19 -45t-19 -45.5t-45 -19.5t-45.5 19.5t-19.5 45.5zM218 465q0 26 19.5 45t45.5 19t45 -19t19 -45t-19 -45.5t-45 -19.5t-45.5 19.5t-19.5 45.5zM55 329h457v-83h-457v83z" />
    <glyph glyph-name="oslash" unicode="&#xf8;" horiz-adv-x="572" 
d="M286 496q35 0 66.5 -8.5t58.5 -23.5l50 65l60 -48l-51 -66q29 -34 45.5 -78t16.5 -96q0 -55 -18 -102t-51 -81t-78 -53.5t-99 -19.5q-35 0 -66.5 8.5t-57.5 22.5l-49 -63l-60 48l49 64q-29 34 -45.5 78.5t-16.5 97.5q0 55 18 101.5t51 80.5t78 53.5t99 19.5zM136 241
q0 -33 7 -57t18 -44l196 254q-33 18 -71 18q-30 0 -57 -11t-48 -33t-33 -53.5t-12 -73.5zM286 69q30 0 57 11t48 33t33 54t12 74q0 29 -6.5 54t-17.5 45l-196 -254q30 -17 70 -17z" />
    <glyph glyph-name="ugrave" unicode="&#xf9;" horiz-adv-x="566" 
d="M397 58q-20 -38 -60 -55.5t-82 -17.5t-75.5 15t-56.5 41t-35.5 61t-12.5 76v303h94v-289q0 -25 6 -47.5t19 -39.5t33.5 -27t50.5 -10q57 0 85.5 34t28.5 89v290h94v-392q0 -29 1.5 -52.5t3.5 -36.5h-90q-2 8 -3 25.5t-1 32.5zM130 689h118l86 -146h-78z" />
    <glyph glyph-name="uacute" unicode="&#xfa;" horiz-adv-x="566" 
d="M397 58q-20 -38 -60 -55.5t-82 -17.5t-75.5 15t-56.5 41t-35.5 61t-12.5 76v303h94v-289q0 -25 6 -47.5t19 -39.5t33.5 -27t50.5 -10q57 0 85.5 34t28.5 89v290h94v-392q0 -29 1.5 -52.5t3.5 -36.5h-90q-2 8 -3 25.5t-1 32.5zM297 543h-79l87 146h118z" />
    <glyph glyph-name="ucircumflex" unicode="&#xfb;" horiz-adv-x="566" 
d="M397 58q-20 -38 -60 -55.5t-82 -17.5t-75.5 15t-56.5 41t-35.5 61t-12.5 76v303h94v-289q0 -25 6 -47.5t19 -39.5t33.5 -27t50.5 -10q57 0 85.5 34t28.5 89v290h94v-392q0 -29 1.5 -52.5t3.5 -36.5h-90q-2 8 -3 25.5t-1 32.5zM123 545l104 139h107l104 -139h-88l-70 81
l-70 -81h-87z" />
    <glyph glyph-name="udieresis" unicode="&#xfc;" horiz-adv-x="566" 
d="M397 58q-20 -38 -60 -55.5t-82 -17.5t-75.5 15t-56.5 41t-35.5 61t-12.5 76v303h94v-289q0 -25 6 -47.5t19 -39.5t33.5 -27t50.5 -10q57 0 85.5 34t28.5 89v290h94v-392q0 -29 1.5 -52.5t3.5 -36.5h-90q-2 8 -3 25.5t-1 32.5zM128 621q0 24 16.5 41t40.5 17q25 0 42 -17
t17 -41q0 -25 -17 -41.5t-42 -16.5q-24 0 -40.5 16.5t-16.5 41.5zM315 621q0 24 16.5 41t41.5 17q24 0 41 -17t17 -41q0 -25 -17 -41.5t-41 -16.5q-25 0 -41.5 16.5t-16.5 41.5z" />
    <glyph glyph-name="yacute" unicode="&#xfd;" horiz-adv-x="523" 
d="M97 -201l120 254l-207 428h108l150 -332l144 332h101l-313 -682h-103zM283 543h-79l87 146h118z" />
    <glyph glyph-name="thorn" unicode="&#xfe;" horiz-adv-x="593" 
d="M80 -190v914h94v-313q20 34 60.5 57.5t97.5 23.5q54 0 95.5 -19.5t69 -53.5t42 -80t14.5 -98q0 -54 -15 -100t-44 -80.5t-70.5 -54t-94.5 -19.5q-56 0 -96 23t-60 55v-255h-93zM457 241q0 36 -10 66.5t-28 53t-44.5 35.5t-59.5 13q-32 0 -58.5 -13t-45.5 -35.5t-29 -53
t-10 -66.5q0 -37 10 -68.5t29 -54t45.5 -35t58.5 -12.5q33 0 59 12.5t44.5 35t28.5 54t10 68.5z" />
    <glyph glyph-name="ydieresis" unicode="&#xff;" horiz-adv-x="523" 
d="M97 -201l120 254l-207 428h108l150 -332l144 332h101l-313 -682h-103zM110 621q0 24 16.5 41t40.5 17q25 0 42 -17t17 -41q0 -25 -17 -41.5t-42 -16.5q-24 0 -40.5 16.5t-16.5 41.5zM297 621q0 24 16.5 41t41.5 17q24 0 41 -17t17 -41q0 -25 -17 -41.5t-41 -16.5
q-25 0 -41.5 16.5t-16.5 41.5z" />
    <glyph glyph-name="Amacron" unicode="&#x100;" horiz-adv-x="697" 
d="M504 198h-314l-75 -198h-105l282 709h113l282 -709h-106zM225 289h244l-123 318zM199 779v83h293v-83h-293z" />
    <glyph glyph-name="amacron" unicode="&#x101;" horiz-adv-x="523" 
d="M50 129q0 32 11 57.5t30.5 43.5t46.5 29t58 16l130 19q22 3 29.5 13t7.5 23q0 35 -24.5 60.5t-79.5 25.5q-50 0 -77 -27.5t-32 -69.5l-90 21q4 34 20.5 63t42.5 49.5t60.5 32t73.5 11.5q54 0 92 -14.5t62 -38.5t35 -56t11 -67v-241q0 -32 2 -51t4 -28h-92q-2 9 -3.5 24
t-1.5 41q-8 -13 -21 -27t-32 -26t-44.5 -19.5t-57.5 -7.5q-37 0 -66.5 12t-50.5 31.5t-32.5 45.5t-11.5 55zM224 64q29 0 54.5 7.5t44 24t29.5 44t11 66.5v22l-147 -22q-30 -5 -50 -22.5t-20 -49.5q0 -27 21 -48.5t57 -21.5zM125 577v81h273v-81h-273z" />
    <glyph glyph-name="Abreve" unicode="&#x102;" horiz-adv-x="697" 
d="M504 198h-314l-75 -198h-105l282 709h113l282 -709h-106zM225 289h244l-123 318zM347 754q-38 0 -66.5 11t-48 29.5t-30.5 41.5t-12 47h81q1 -9 5 -18.5t13 -18t23.5 -14t34.5 -5.5t34 5.5t23 14t13 18t5 18.5h81q-2 -24 -12 -47t-29.5 -41.5t-48 -29.5t-66.5 -11z" />
    <glyph glyph-name="abreve" unicode="&#x103;" horiz-adv-x="523" 
d="M50 129q0 32 11 57.5t30.5 43.5t46.5 29t58 16l130 19q22 3 29.5 13t7.5 23q0 35 -24.5 60.5t-79.5 25.5q-50 0 -77 -27.5t-32 -69.5l-90 21q4 34 20.5 63t42.5 49.5t60.5 32t73.5 11.5q54 0 92 -14.5t62 -38.5t35 -56t11 -67v-241q0 -32 2 -51t4 -28h-92q-2 9 -3.5 24
t-1.5 41q-8 -13 -21 -27t-32 -26t-44.5 -19.5t-57.5 -7.5q-37 0 -66.5 12t-50.5 31.5t-32.5 45.5t-11.5 55zM224 64q29 0 54.5 7.5t44 24t29.5 44t11 66.5v22l-147 -22q-30 -5 -50 -22.5t-20 -49.5q0 -27 21 -48.5t57 -21.5zM259 545q-35 0 -62 12t-45.5 32t-28.5 45.5
t-10 52.5h73q1 -23 18 -44t55 -21t54.5 21t18.5 44h73q0 -27 -9.5 -52.5t-27.5 -45.5t-45.5 -32t-63.5 -12z" />
    <glyph glyph-name="Aogonek" unicode="&#x104;" horiz-adv-x="697" 
d="M225 289h244l-123 318zM522 -115q0 43 22 70.5t50 44.5h-13l-77 198h-314l-75 -198h-105l282 709h113l282 -709q-14 -7 -29 -16t-27.5 -21t-20.5 -27t-8 -33q0 -26 16.5 -36.5t36.5 -10.5q12 0 19 1t13 3v-68q-10 -4 -20.5 -6t-29.5 -2q-23 0 -44 7t-37 19.5t-25 31.5
t-9 43z" />
    <glyph glyph-name="aogonek" unicode="&#x105;" horiz-adv-x="523" 
d="M224 64q29 0 54.5 7.5t44 24t29.5 44t11 66.5v22l-147 -22q-29 -5 -49.5 -22.5t-20.5 -49.5q0 -27 21 -48.5t57 -21.5zM298 -115q0 44 22.5 71t50.5 44q-1 4 -3 20t-2 45q-8 -13 -21 -27t-32 -26t-44.5 -19.5t-57.5 -7.5q-37 0 -66.5 12t-50.5 31.5t-32.5 45.5t-11.5 55
q0 32 11 57.5t30.5 43.5t46.5 29t58 16l130 19q22 3 29.5 13t7.5 23q0 35 -24.5 60.5t-79.5 25.5q-50 0 -77 -27.5t-32 -69.5l-90 21q4 34 20.5 63t42.5 49.5t60.5 32t73.5 11.5q54 0 92 -14.5t62 -38.5t35 -56t11 -67v-241q0 -32 2 -51t4 -28q-14 -7 -29 -16t-27.5 -21
t-20.5 -27t-8 -33q0 -26 16.5 -36.5t36.5 -10.5q12 0 19 1t13 3v-68q-10 -4 -20.5 -6t-29.5 -2q-23 0 -44 7t-37 19.5t-25 31.5t-9 43z" />
    <glyph glyph-name="Cacute" unicode="&#x106;" horiz-adv-x="750" 
d="M397 -15q-69 0 -132.5 24.5t-112 71.5t-78 116t-29.5 158t30 157.5t79.5 115.5t113 71.5t129.5 24.5q61 0 112 -16t91 -45t67.5 -71t41.5 -93l-91 -32q-20 81 -76.5 124t-144.5 43q-48 0 -93.5 -17.5t-81 -52.5t-56.5 -87.5t-21 -121.5t21 -121.5t56.5 -88t81 -53
t93.5 -17.5q45 0 82 13t65.5 35.5t48 54t30.5 67.5l87 -32q-14 -50 -42 -92t-67.5 -72t-91 -47t-112.5 -17zM436 759h-94l101 119h130z" />
    <glyph glyph-name="cacute" unicode="&#x107;" horiz-adv-x="530" 
d="M282 409q-29 0 -55 -10.5t-46.5 -31.5t-32.5 -52.5t-12 -73.5q0 -41 12 -72.5t32 -53t47 -32.5t56 -11q34 0 57.5 10t39 25t24.5 32.5t13 31.5l83 -36q-9 -26 -26 -52.5t-44 -48.5t-63.5 -35.5t-83.5 -13.5q-53 0 -97.5 19.5t-76.5 54t-50.5 81t-18.5 101.5
q0 56 18.5 103t51 80.5t77 52.5t95.5 19q48 0 84.5 -13.5t63 -35.5t42.5 -49.5t24 -54.5l-85 -36q-5 18 -14 36t-24.5 32.5t-37.5 24t-53 9.5zM311 543h-79l87 146h118z" />
    <glyph glyph-name="Ccircumflex" unicode="&#x108;" horiz-adv-x="750" 
d="M397 -15q-69 0 -132.5 24.5t-112 71.5t-78 116t-29.5 158t30 157.5t79.5 115.5t113 71.5t129.5 24.5q61 0 112 -16t91 -45t67.5 -71t41.5 -93l-91 -32q-20 81 -76.5 124t-144.5 43q-48 0 -93.5 -17.5t-81 -52.5t-56.5 -87.5t-21 -121.5t21 -121.5t56.5 -88t81 -53
t93.5 -17.5q45 0 82 13t65.5 35.5t48 54t30.5 67.5l87 -32q-14 -50 -42 -92t-67.5 -72t-91 -47t-112.5 -17zM227 759l112 119h120l117 -119h-92l-85 64l-81 -64h-91z" />
    <glyph glyph-name="ccircumflex" unicode="&#x109;" horiz-adv-x="530" 
d="M282 409q-29 0 -55 -10.5t-46.5 -31.5t-32.5 -52.5t-12 -73.5q0 -41 12 -72.5t32 -53t47 -32.5t56 -11q34 0 57.5 10t39 25t24.5 32.5t13 31.5l83 -36q-9 -26 -26 -52.5t-44 -48.5t-63.5 -35.5t-83.5 -13.5q-53 0 -97.5 19.5t-76.5 54t-50.5 81t-18.5 101.5
q0 56 18.5 103t51 80.5t77 52.5t95.5 19q48 0 84.5 -13.5t63 -35.5t42.5 -49.5t24 -54.5l-85 -36q-5 18 -14 36t-24.5 32.5t-37.5 24t-53 9.5zM124 545l104 139h107l104 -139h-88l-70 81l-70 -81h-87z" />
    <glyph glyph-name="Cdotaccent" unicode="&#x10a;" horiz-adv-x="750" 
d="M397 -15q-69 0 -132.5 24.5t-112 71.5t-78 116t-29.5 158t30 157.5t79.5 115.5t113 71.5t129.5 24.5q61 0 112 -16t91 -45t67.5 -71t41.5 -93l-91 -32q-20 81 -76.5 124t-144.5 43q-48 0 -93.5 -17.5t-81 -52.5t-56.5 -87.5t-21 -121.5t21 -121.5t56.5 -88t81 -53
t93.5 -17.5q45 0 82 13t65.5 35.5t48 54t30.5 67.5l87 -32q-14 -50 -42 -92t-67.5 -72t-91 -47t-112.5 -17zM333 818q0 26 18.5 45t44.5 19t45 -19t19 -45t-19 -44.5t-45 -18.5t-44.5 18.5t-18.5 44.5z" />
    <glyph glyph-name="cdotaccent" unicode="&#x10b;" horiz-adv-x="530" 
d="M282 409q-29 0 -55 -10.5t-46.5 -31.5t-32.5 -52.5t-12 -73.5q0 -41 12 -72.5t32 -53t47 -32.5t56 -11q34 0 57.5 10t39 25t24.5 32.5t13 31.5l83 -36q-9 -26 -26 -52.5t-44 -48.5t-63.5 -35.5t-83.5 -13.5q-53 0 -97.5 19.5t-76.5 54t-50.5 81t-18.5 101.5
q0 56 18.5 103t51 80.5t77 52.5t95.5 19q48 0 84.5 -13.5t63 -35.5t42.5 -49.5t24 -54.5l-85 -36q-5 18 -14 36t-24.5 32.5t-37.5 24t-53 9.5zM220 616q0 26 18 44t44 18t44 -18t18 -44t-18 -44t-44 -18t-44 18t-18 44z" />
    <glyph glyph-name="Ccaron" unicode="&#x10c;" horiz-adv-x="750" 
d="M397 -15q-69 0 -132.5 24.5t-112 71.5t-78 116t-29.5 158t30 157.5t79.5 115.5t113 71.5t129.5 24.5q61 0 112 -16t91 -45t67.5 -71t41.5 -93l-91 -32q-20 81 -76.5 124t-144.5 43q-48 0 -93.5 -17.5t-81 -52.5t-56.5 -87.5t-21 -121.5t21 -121.5t56.5 -88t81 -53
t93.5 -17.5q45 0 82 13t65.5 35.5t48 54t30.5 67.5l87 -32q-14 -50 -42 -92t-67.5 -72t-91 -47t-112.5 -17zM313 878l81 -64l85 64h92l-117 -119h-120l-112 119h91z" />
    <glyph glyph-name="ccaron" unicode="&#x10d;" horiz-adv-x="530" 
d="M282 409q-29 0 -55 -10.5t-46.5 -31.5t-32.5 -52.5t-12 -73.5q0 -41 12 -72.5t32 -53t47 -32.5t56 -11q34 0 57.5 10t39 25t24.5 32.5t13 31.5l83 -36q-9 -26 -26 -52.5t-44 -48.5t-63.5 -35.5t-83.5 -13.5q-53 0 -97.5 19.5t-76.5 54t-50.5 81t-18.5 101.5
q0 56 18.5 103t51 80.5t77 52.5t95.5 19q48 0 84.5 -13.5t63 -35.5t42.5 -49.5t24 -54.5l-85 -36q-5 18 -14 36t-24.5 32.5t-37.5 24t-53 9.5zM204 687l70 -81l70 81h88l-102 -142h-111l-102 142h87z" />
    <glyph glyph-name="Dcaron" unicode="&#x10e;" horiz-adv-x="720" 
d="M333 87q49 0 93 16.5t77 49.5t52 83t19 117t-19 117.5t-51.5 84t-76 50.5t-92.5 17h-147v-535h145zM90 0v709h248q67 0 128.5 -23t107.5 -68t73.5 -111.5t27.5 -153.5t-27.5 -153t-74.5 -110.5t-108.5 -67t-128.5 -22.5h-246zM271 878l81 -64l85 64h92l-117 -119h-120
l-112 119h91z" />
    <glyph glyph-name="dcaron" unicode="&#x10f;" horiz-adv-x="593" 
d="M136 242q0 -37 9.5 -68.5t27.5 -54.5t44 -36t60 -13q32 0 58 13.5t44 36.5t27.5 55t9.5 69q0 75 -36.5 121t-101.5 46q-32 0 -58.5 -12.5t-45 -35t-28.5 -53.5t-10 -68zM417 73q-17 -35 -54.5 -60.5t-94.5 -25.5q-53 0 -95 19.5t-71.5 54t-45.5 81t-16 100.5
q0 51 16.5 96.5t46.5 80t72 55t93 20.5q32 0 56.5 -7t42.5 -18.5t30 -26t18 -29.5v311h93v-635q0 -35 2 -59t3 -30h-91q-2 8 -3.5 25.5t-1.5 39.5v8zM618 545h-69l28 179h105z" />
    <glyph glyph-name="Dcroat" unicode="&#x110;" horiz-adv-x="724" 
d="M94 0v325h-76v82h76v302h248q67 0 128.5 -23t107.5 -68t73.5 -111.5t27.5 -153.5t-27.5 -153t-74.5 -110.5t-108.5 -67t-128.5 -22.5h-246zM337 87q49 0 93 16.5t77 49.5t52 83t19 117t-19 117.5t-51.5 84t-76 50.5t-92.5 17h-147v-215h122v-82h-122v-238h145z" />
    <glyph glyph-name="dcroat" unicode="&#x111;" horiz-adv-x="593" 
d="M508 631h77v-76h-77v-466q0 -35 2 -59t3 -30h-91q-2 8 -3.5 25.5t-1.5 39.5v8q-17 -35 -54.5 -60.5t-94.5 -25.5q-53 0 -95 19.5t-71.5 54t-45.5 81t-16 100.5q0 51 16.5 96.5t46.5 80t72 55t93 20.5q32 0 56.5 -7t42.5 -18.5t30 -26t18 -29.5v142h-131v76h131v93h93v-93
zM136 242q0 -37 9.5 -68.5t27.5 -54.5t44 -36t60 -13q32 0 58 13.5t44 36.5t27.5 55t9.5 69q0 75 -36.5 121t-101.5 46q-32 0 -58.5 -12.5t-45 -35t-28.5 -53.5t-10 -68z" />
    <glyph glyph-name="Emacron" unicode="&#x112;" horiz-adv-x="581" 
d="M90 0v709h431v-91h-333v-218h302v-92h-302v-217h333v-91h-431zM156 779v83h293v-83h-293z" />
    <glyph glyph-name="emacron" unicode="&#x113;" horiz-adv-x="542" 
d="M404 290q-2 52 -35 87.5t-97 35.5q-30 0 -53.5 -10.5t-40 -28t-26.5 -39.5t-11 -45h263zM499 137q-10 -32 -29.5 -59.5t-47 -48t-62.5 -32.5t-77 -12q-48 0 -92 17t-77.5 50t-53 81t-19.5 109q0 57 19 103.5t50.5 80t73.5 52t87 18.5q55 0 98.5 -18.5t72.5 -51.5
t44.5 -79.5t15.5 -102.5q0 -9 -0.5 -17t-1.5 -13h-362q1 -32 12 -59t30.5 -46.5t46 -30t56.5 -10.5q59 0 90 28t45 69zM142 577v81h273v-81h-273z" />
    <glyph glyph-name="Ebreve" unicode="&#x114;" horiz-adv-x="581" 
d="M90 0v709h431v-91h-333v-218h302v-92h-302v-217h333v-91h-431zM307 754q-38 0 -66.5 11t-48 29.5t-30.5 41.5t-12 47h81q1 -9 5 -18.5t13 -18t23.5 -14t34.5 -5.5t34 5.5t23 14t13 18t5 18.5h81q-2 -24 -12 -47t-29.5 -41.5t-48 -29.5t-66.5 -11z" />
    <glyph glyph-name="ebreve" unicode="&#x115;" horiz-adv-x="542" 
d="M404 290q-2 52 -35 87.5t-97 35.5q-30 0 -53.5 -10.5t-40 -28t-26.5 -39.5t-11 -45h263zM499 137q-10 -32 -29.5 -59.5t-47 -48t-62.5 -32.5t-77 -12q-48 0 -92 17t-77.5 50t-53 81t-19.5 109q0 57 19 103.5t50.5 80t73.5 52t87 18.5q55 0 98.5 -18.5t72.5 -51.5
t44.5 -79.5t15.5 -102.5q0 -9 -0.5 -17t-1.5 -13h-362q1 -32 12 -59t30.5 -46.5t46 -30t56.5 -10.5q59 0 90 28t45 69zM278 545q-35 0 -62 12t-45.5 32t-28.5 45.5t-10 52.5h73q1 -23 18 -44t55 -21t54.5 21t18.5 44h73q0 -27 -9.5 -52.5t-27.5 -45.5t-45.5 -32t-63.5 -12z
" />
    <glyph glyph-name="Edotaccent" unicode="&#x116;" horiz-adv-x="581" 
d="M90 0v709h431v-91h-333v-218h302v-92h-302v-217h333v-91h-431zM243 818q0 26 18.5 45t44.5 19t45 -19t19 -45t-19 -44.5t-45 -18.5t-44.5 18.5t-18.5 44.5z" />
    <glyph glyph-name="edotaccent" unicode="&#x117;" horiz-adv-x="542" 
d="M404 290q-2 52 -35 87.5t-97 35.5q-30 0 -53.5 -10.5t-40 -28t-26.5 -39.5t-11 -45h263zM499 137q-10 -32 -29.5 -59.5t-47 -48t-62.5 -32.5t-77 -12q-48 0 -92 17t-77.5 50t-53 81t-19.5 109q0 57 19 103.5t50.5 80t73.5 52t87 18.5q55 0 98.5 -18.5t72.5 -51.5
t44.5 -79.5t15.5 -102.5q0 -9 -0.5 -17t-1.5 -13h-362q1 -32 12 -59t30.5 -46.5t46 -30t56.5 -10.5q59 0 90 28t45 69zM217 616q0 26 18 44t44 18t44 -18t18 -44t-18 -44t-44 -18t-44 18t-18 44z" />
    <glyph glyph-name="Eogonek" unicode="&#x118;" horiz-adv-x="581" 
d="M356 -115q0 43 22 70.5t50 44.5h-338v709h431v-91h-333v-218h302v-92h-302v-217h333v-91q-14 -7 -29 -16t-27.5 -21t-20.5 -27t-8 -33q0 -26 16.5 -36.5t36.5 -10.5q12 0 19 1t13 3v-68q-10 -4 -20.5 -6t-29.5 -2q-23 0 -44 7t-37 19.5t-25 31.5t-9 43z" />
    <glyph glyph-name="eogonek" unicode="&#x119;" horiz-adv-x="542" 
d="M319 -215q-23 0 -44 7t-37 19.5t-25 31.5t-9 43q0 35 15 59t36 41q-44 5 -82.5 24.5t-68 52t-46.5 77.5t-17 102t19 103.5t50.5 80t73.5 52t87 18.5q55 0 98.5 -18.5t72.5 -51.5t44.5 -79.5t15.5 -102.5v-11.5t-2 -18.5h-362q1 -32 12.5 -58.5t31 -46t45.5 -30.5t56 -11
q59 0 90 28t45 69l81 -28q-15 -48 -51 -85.5t-89 -54.5q-32 -11 -53.5 -33.5t-21.5 -54.5q0 -29 16.5 -40.5t36.5 -11.5q17 0 32 4v-68q-10 -4 -20.5 -6t-29.5 -2zM404 290q-2 52 -35.5 87.5t-96.5 35.5q-30 0 -53.5 -10.5t-40 -28t-26.5 -39.5t-11 -45h263z" />
    <glyph glyph-name="Ecaron" unicode="&#x11a;" horiz-adv-x="581" 
d="M90 0v709h431v-91h-333v-218h302v-92h-302v-217h333v-91h-431zM230 878l81 -64l85 64h92l-117 -119h-120l-112 119h91z" />
    <glyph glyph-name="ecaron" unicode="&#x11b;" horiz-adv-x="542" 
d="M404 290q-2 52 -35 87.5t-97 35.5q-30 0 -53.5 -10.5t-40 -28t-26.5 -39.5t-11 -45h263zM499 137q-10 -32 -29.5 -59.5t-47 -48t-62.5 -32.5t-77 -12q-48 0 -92 17t-77.5 50t-53 81t-19.5 109q0 57 19 103.5t50.5 80t73.5 52t87 18.5q55 0 98.5 -18.5t72.5 -51.5
t44.5 -79.5t15.5 -102.5q0 -9 -0.5 -17t-1.5 -13h-362q1 -32 12 -59t30.5 -46.5t46 -30t56.5 -10.5q59 0 90 28t45 69zM208 687l70 -81l70 81h88l-102 -142h-111l-102 142h87z" />
    <glyph glyph-name="Gcircumflex" unicode="&#x11c;" horiz-adv-x="765" 
d="M625 0l-9 100q-12 -21 -32 -41.5t-48.5 -37t-65 -26.5t-81.5 -10q-67 0 -129 24t-110 71t-76.5 116t-28.5 159t30 159t79.5 115.5t112.5 70.5t129 24q58 0 108.5 -15.5t91 -43.5t70 -67.5t44.5 -87.5l-89 -38q-24 77 -83 119.5t-142 42.5q-48 0 -93 -17t-80 -52
t-56.5 -87.5t-21.5 -122.5q0 -71 20.5 -123.5t55 -87.5t79 -52.5t92.5 -17.5q59 0 100 18.5t67 46.5t38 60.5t14 59.5h-246v88h339v-347h-79zM222 759l112 119h120l117 -119h-92l-85 64l-81 -64h-91z" />
    <glyph glyph-name="gcircumflex" unicode="&#x11d;" horiz-adv-x="578" 
d="M136 -5q5 -51 40.5 -84.5t90.5 -33.5q76 0 111.5 39t35.5 117v69q-17 -33 -55 -56t-92 -23q-48 0 -88.5 17.5t-70 48t-46 73.5t-16.5 94q0 49 16 91.5t45 74t69.5 50t90.5 18.5q56 0 93 -20t55 -56v67h93v-445q0 -46 -12 -89.5t-40.5 -77t-74.5 -54t-114 -20.5
q-45 0 -83.5 13.5t-68 37.5t-48 56.5t-22.5 71.5zM281 102q61 0 99 42t38 112t-38 112t-99 42q-63 0 -101 -42t-38 -112q0 -71 37.5 -112.5t101.5 -41.5zM126 545l104 139h107l104 -139h-88l-70 81l-70 -81h-87z" />
    <glyph glyph-name="Gbreve" unicode="&#x11e;" horiz-adv-x="765" 
d="M625 0l-9 100q-12 -21 -32 -41.5t-48.5 -37t-65 -26.5t-81.5 -10q-67 0 -129 24t-110 71t-76.5 116t-28.5 159t30 159t79.5 115.5t112.5 70.5t129 24q58 0 108.5 -15.5t91 -43.5t70 -67.5t44.5 -87.5l-89 -38q-24 77 -83 119.5t-142 42.5q-48 0 -93 -17t-80 -52
t-56.5 -87.5t-21.5 -122.5q0 -71 20.5 -123.5t55 -87.5t79 -52.5t92.5 -17.5q59 0 100 18.5t67 46.5t38 60.5t14 59.5h-246v88h339v-347h-79zM390 754q-38 0 -66.5 11t-48 29.5t-30.5 41.5t-12 47h81q1 -9 5 -18.5t13 -18t23.5 -14t34.5 -5.5t34 5.5t23 14t13 18t5 18.5h81
q-2 -24 -12 -47t-29.5 -41.5t-48 -29.5t-66.5 -11z" />
    <glyph glyph-name="gbreve" unicode="&#x11f;" horiz-adv-x="578" 
d="M136 -5q5 -51 40.5 -84.5t90.5 -33.5q76 0 111.5 39t35.5 117v69q-17 -33 -55 -56t-92 -23q-48 0 -88.5 17.5t-70 48t-46 73.5t-16.5 94q0 49 16 91.5t45 74t69.5 50t90.5 18.5q56 0 93 -20t55 -56v67h93v-445q0 -46 -12 -89.5t-40.5 -77t-74.5 -54t-114 -20.5
q-45 0 -83.5 13.5t-68 37.5t-48 56.5t-22.5 71.5zM281 102q61 0 99 42t38 112t-38 112t-99 42q-63 0 -101 -42t-38 -112q0 -71 37.5 -112.5t101.5 -41.5zM277 545q-35 0 -62 12t-45.5 32t-28.5 45.5t-10 52.5h73q1 -23 18 -44t55 -21t54.5 21t18.5 44h73q0 -27 -9.5 -52.5
t-27.5 -45.5t-45.5 -32t-63.5 -12z" />
    <glyph glyph-name="Gdotaccent" unicode="&#x120;" horiz-adv-x="765" 
d="M625 0l-9 100q-12 -21 -32 -41.5t-48.5 -37t-65 -26.5t-81.5 -10q-67 0 -129 24t-110 71t-76.5 116t-28.5 159t30 159t79.5 115.5t112.5 70.5t129 24q58 0 108.5 -15.5t91 -43.5t70 -67.5t44.5 -87.5l-89 -38q-24 77 -83 119.5t-142 42.5q-48 0 -93 -17t-80 -52
t-56.5 -87.5t-21.5 -122.5q0 -71 20.5 -123.5t55 -87.5t79 -52.5t92.5 -17.5q59 0 100 18.5t67 46.5t38 60.5t14 59.5h-246v88h339v-347h-79zM331 818q0 26 18.5 45t44.5 19t45 -19t19 -45t-19 -44.5t-45 -18.5t-44.5 18.5t-18.5 44.5z" />
    <glyph glyph-name="gdotaccent" unicode="&#x121;" horiz-adv-x="578" 
d="M136 -5q5 -51 40.5 -84.5t90.5 -33.5q76 0 111.5 39t35.5 117v69q-17 -33 -55 -56t-92 -23q-48 0 -88.5 17.5t-70 48t-46 73.5t-16.5 94q0 49 16 91.5t45 74t69.5 50t90.5 18.5q56 0 93 -20t55 -56v67h93v-445q0 -46 -12 -89.5t-40.5 -77t-74.5 -54t-114 -20.5
q-45 0 -83.5 13.5t-68 37.5t-48 56.5t-22.5 71.5zM281 102q61 0 99 42t38 112t-38 112t-99 42q-63 0 -101 -42t-38 -112q0 -71 37.5 -112.5t101.5 -41.5zM216 616q0 26 18 44t44 18t44 -18t18 -44t-18 -44t-44 -18t-44 18t-18 44z" />
    <glyph glyph-name="Gcommaaccent" unicode="&#x122;" horiz-adv-x="765" 
d="M625 0l-9 100q-12 -21 -32 -41.5t-48.5 -37t-65 -26.5t-81.5 -10q-67 0 -129 24t-110 71t-76.5 116t-28.5 159t30 159t79.5 115.5t112.5 70.5t129 24q58 0 108.5 -15.5t91 -43.5t70 -67.5t44.5 -87.5l-89 -38q-24 77 -83 119.5t-142 42.5q-48 0 -93 -17t-80 -52
t-56.5 -87.5t-21.5 -122.5q0 -71 20.5 -123.5t55 -87.5t79 -52.5t92.5 -17.5q59 0 100 18.5t67 46.5t38 60.5t14 59.5h-246v88h339v-347h-79zM330 -88q0 23 18 37.5t41 14.5q22 0 43.5 -16.5t21.5 -56.5q0 -29 -10 -50t-26.5 -35t-37 -20.5t-40.5 -6.5v40q26 0 44.5 15
t20.5 33q-2 -2 -8 -4t-13 -2q-23 0 -38.5 12.5t-15.5 38.5z" />
    <glyph glyph-name="gcommaaccent" unicode="&#x123;" horiz-adv-x="578" 
d="M136 -5q5 -51 40.5 -84.5t90.5 -33.5q76 0 111.5 39t35.5 117v69q-17 -33 -55 -56t-92 -23q-48 0 -88.5 17.5t-70 48t-46 73.5t-16.5 94q0 49 16 91.5t45 74t69.5 50t90.5 18.5q56 0 93 -20t55 -56v67h93v-445q0 -46 -12 -89.5t-40.5 -77t-74.5 -54t-114 -20.5
q-45 0 -83.5 13.5t-68 37.5t-48 56.5t-22.5 71.5zM281 102q61 0 99 42t38 112t-38 112t-99 42q-63 0 -101 -42t-38 -112q0 -71 37.5 -112.5t101.5 -41.5zM332 586q0 -24 -17 -38t-42 -14q-11 0 -22 4t-21 12.5t-16 22.5t-6 34q0 27 10 48t26.5 35t37 21.5t40.5 7.5v-40
q-26 0 -44.5 -15t-20.5 -33q1 1 6.5 3.5t14.5 2.5q24 0 39 -13.5t15 -37.5z" />
    <glyph glyph-name="Hcircumflex" unicode="&#x124;" horiz-adv-x="738" 
d="M550 0v315h-362v-315h-98v709h98v-303h362v303h98v-709h-98zM195 759l112 119h120l117 -119h-92l-85 64l-81 -64h-91z" />
    <glyph glyph-name="hcircumflex" unicode="&#x125;" horiz-adv-x="562" 
d="M115 769l112 119h120l117 -119h-92l-85 64l-81 -64h-91zM174 0h-94v724h94v-299q26 38 65 54t81 16q43 0 75.5 -14.5t54 -40t32 -60.5t10.5 -75v-305h-94v289q0 25 -5.5 47t-19 38.5t-35 26t-52.5 9.5q-27 0 -47.5 -10t-34.5 -27t-21.5 -40t-8.5 -50v-283z" />
    <glyph glyph-name="Hbar" unicode="&#x126;" horiz-adv-x="763" 
d="M563 0v315h-362v-315h-98v513h-73v75h73v121h98v-121h362v121h98v-121h72v-75h-72v-513h-98zM563 406v107h-362v-107h362z" />
    <glyph glyph-name="hbar" unicode="&#x127;" horiz-adv-x="567" 
d="M179 0h-94v557h-86v76h86v91h94v-91h121v-76h-121v-132q26 38 65 54t81 16q43 0 75.5 -14.5t54 -40t32 -60.5t10.5 -75v-305h-94v289q0 25 -5.5 47t-19 38.5t-35 26t-52.5 9.5q-27 0 -47.5 -10t-34.5 -27t-21.5 -40t-8.5 -50v-283z" />
    <glyph glyph-name="Itilde" unicode="&#x128;" horiz-adv-x="280" 
d="M90 0v709h100v-709h-100zM304 865q0 -56 -27 -83.5t-69 -27.5q-22 0 -39 6t-32 17l-15 10q-10 6 -18.5 10t-18.5 4q-16 0 -25.5 -10.5t-9.5 -33.5h-68v16q0 56 27.5 83.5t69.5 27.5q21 0 39.5 -7t33.5 -16l15 -9q11 -6 19.5 -10t18.5 -4q13 0 22.5 7.5t9.5 27.5v8h67v-16
z" />
    <glyph glyph-name="itilde" unicode="&#x129;" horiz-adv-x="253" 
d="M80 0v481h93v-481h-93zM285 662q0 -56 -27.5 -82.5t-69.5 -26.5q-20 0 -36 6.5t-30 15.5l-14 9q-10 6 -18.5 10t-18.5 4q-14 0 -21.5 -9t-7.5 -34h-72v15q0 56 28 82.5t70 26.5q20 0 36.5 -6.5t30.5 -15.5l14 -9q10 -6 18 -10t18 -4q15 0 22 9.5t7 33.5h71v-15z" />
    <glyph glyph-name="Imacron" unicode="&#x12a;" horiz-adv-x="280" 
d="M90 0v709h100v-709h-100zM-5 779v83h293v-83h-293z" />
    <glyph glyph-name="imacron" unicode="&#x12b;" horiz-adv-x="253" 
d="M80 0v481h93v-481h-93zM-8 577v81h273v-81h-273z" />
    <glyph glyph-name="Ibreve" unicode="&#x12c;" horiz-adv-x="280" 
d="M90 0v709h100v-709h-100zM142 754q-38 0 -66.5 11t-48 29.5t-30.5 41.5t-12 47h81q1 -9 5 -18.5t13 -18t23.5 -14t34.5 -5.5t34 5.5t23 14t13 18t5 18.5h81q-2 -24 -12 -47t-29.5 -41.5t-48 -29.5t-66.5 -11z" />
    <glyph glyph-name="ibreve" unicode="&#x12d;" horiz-adv-x="253" 
d="M80 0v481h93v-481h-93zM128 545q-35 0 -62 12t-45.5 32t-28.5 45.5t-10 52.5h73q1 -23 18 -44t55 -21t54.5 21t18.5 44h73q0 -27 -9.5 -52.5t-27.5 -45.5t-45.5 -32t-63.5 -12z" />
    <glyph glyph-name="Iogonek" unicode="&#x12e;" horiz-adv-x="280" 
d="M25 -115q0 43 22 70.5t50 44.5h-7v709h100v-709q-14 -7 -29 -16t-27.5 -21t-20.5 -27t-8 -33q0 -26 16.5 -36.5t36.5 -10.5q12 0 19 1t13 3v-68q-10 -4 -20.5 -6t-29.5 -2q-23 0 -44 7t-37 19.5t-25 31.5t-9 43z" />
    <glyph glyph-name="iogonek" unicode="&#x12f;" horiz-adv-x="253" 
d="M88 -97q0 -26 16.5 -36.5t36.5 -10.5q12 0 19 1t13 3v-68q-10 -4 -20.5 -6t-29.5 -2q-23 0 -44 7t-37 19.5t-25 31.5t-9 43q0 44 22 71t50 44v481h93v-481q-14 -7 -29 -16t-27.5 -21t-20.5 -27t-8 -33zM59 663q0 29 19.5 48.5t47.5 19.5q29 0 48.5 -19.5t19.5 -48.5
q0 -28 -19.5 -47.5t-48.5 -19.5q-28 0 -47.5 19.5t-19.5 47.5z" />
    <glyph glyph-name="Idotaccent" unicode="&#x130;" horiz-adv-x="280" 
d="M90 0v709h100v-709h-100zM76 818q0 26 18.5 45t44.5 19t45 -19t19 -45t-19 -44.5t-45 -18.5t-44.5 18.5t-18.5 44.5z" />
    <glyph glyph-name="dotlessi" unicode="&#x131;" horiz-adv-x="253" 
d="M80 0v481h93v-481h-93z" />
    <glyph glyph-name="IJ" unicode="&#x132;" horiz-adv-x="594" 
d="M80 300v409h100v-409h-100zM180 230v-18q0 -71 33 -103.5t87 -32.5t85 33.5t31 95.5v504h98v-497q0 -47 -14.5 -88t-42.5 -72t-67.5 -49t-88.5 -18q-52 0 -93 16t-69.5 46t-43.5 71.5t-15 92.5z" />
    <glyph glyph-name="ij" unicode="&#x133;" horiz-adv-x="517" 
d="M80 0v481h93v-481h-93zM59 663q0 29 19.5 48.5t47.5 19.5q29 0 48.5 -19.5t19.5 -48.5q0 -28 -19.5 -47.5t-48.5 -19.5q-28 0 -47.5 19.5t-19.5 47.5zM343 481h94v-537q0 -66 -35 -107.5t-98 -41.5q-27 0 -39 2.5t-17 4.5v79q4 -1 11.5 -2t18.5 -1q37 0 51 18.5t14 51.5
v533zM322 665q0 29 19.5 48.5t47.5 19.5q29 0 48.5 -19.5t19.5 -48.5q0 -28 -19.5 -47.5t-48.5 -19.5q-28 0 -47.5 19.5t-19.5 47.5z" />
    <glyph glyph-name="Jcircumflex" unicode="&#x134;" horiz-adv-x="534" 
d="M20 257l98 22v-67q0 -71 34 -103.5t88 -32.5t85 33.5t31 95.5v504h98v-497q0 -47 -14.5 -88t-42.5 -72t-67.5 -49t-88.5 -18q-52 0 -93 16t-69.5 46t-43.5 71.5t-15 92.5v46zM232 759l112 119h120l117 -119h-92l-85 64l-81 -64h-91z" />
    <glyph glyph-name="jcircumflex" unicode="&#x135;" horiz-adv-x="254" 
d="M-29 545l104 139h107l104 -139h-88l-70 81l-70 -81h-87zM80 481h94v-537q0 -66 -35 -107.5t-98 -41.5q-27 0 -39 2.5t-17 4.5v78q4 -1 13 -1.5t17 -0.5q37 0 51 18.5t14 51.5v533z" />
    <glyph glyph-name="Kcommaaccent" unicode="&#x136;" horiz-adv-x="668" 
d="M289 322l-101 -108v-214h-98v709h98v-365l332 365h129l-295 -316l299 -393h-124zM295 -88q0 23 18 37.5t41 14.5q22 0 43.5 -16.5t21.5 -56.5q0 -29 -10 -50t-26.5 -35t-37 -20.5t-40.5 -6.5v40q26 0 44.5 15t20.5 33q-2 -2 -8 -4t-13 -2q-23 0 -38.5 12.5t-15.5 38.5z
" />
    <glyph glyph-name="kcommaaccent" unicode="&#x137;" horiz-adv-x="525" 
d="M306 278l209 -278h-118l-157 212l-67 -67v-145h-93v724h93v-456l208 213h130zM230 -88q0 23 18 37.5t41 14.5q22 0 43.5 -16.5t21.5 -56.5q0 -29 -10 -50t-26.5 -35t-37 -20.5t-40.5 -6.5v40q26 0 44.5 15t20.5 33q-2 -2 -8 -4t-13 -2q-23 0 -38.5 12.5t-15.5 38.5z" />
    <glyph glyph-name="kgreenlandic" unicode="&#x138;" horiz-adv-x="525" 
d="M306 278l209 -278h-118l-157 212l-67 -67v-145h-93v481h93v-213l208 213h130z" />
    <glyph glyph-name="Lacute" unicode="&#x139;" horiz-adv-x="548" 
d="M90 0v709h98v-617h335v-92h-433zM188 759h-94l101 119h130z" />
    <glyph glyph-name="lacute" unicode="&#x13a;" horiz-adv-x="254" 
d="M80 0v724h94v-724h-94zM175 769h-94l101 119h130z" />
    <glyph glyph-name="Lcommaaccent" unicode="&#x13b;" horiz-adv-x="548" 
d="M90 0v709h98v-617h335v-92h-433zM256 -88q0 23 18 37.5t41 14.5q22 0 43.5 -16.5t21.5 -56.5q0 -29 -10 -50t-26.5 -35t-37 -20.5t-40.5 -6.5v40q26 0 44.5 15t20.5 33q-2 -2 -8 -4t-13 -2q-23 0 -38.5 12.5t-15.5 38.5z" />
    <glyph glyph-name="lcommaaccent" unicode="&#x13c;" horiz-adv-x="254" 
d="M80 0v724h94v-724h-94zM65 -88q0 23 18 37.5t41 14.5q22 0 43.5 -16.5t21.5 -56.5q0 -29 -10 -50t-26.5 -35t-37 -20.5t-40.5 -6.5v40q26 0 44.5 15t20.5 33q-2 -2 -8 -4t-13 -2q-23 0 -38.5 12.5t-15.5 38.5z" />
    <glyph glyph-name="Lcaron" unicode="&#x13d;" horiz-adv-x="548" 
d="M90 0v709h98v-617h335v-92h-433zM361 569h-73l30 190h111z" />
    <glyph glyph-name="lcaron" unicode="&#x13e;" horiz-adv-x="254" 
d="M80 0v724h94v-724h-94zM276 545h-69l28 179h105z" />
    <glyph glyph-name="Ldot" unicode="&#x13f;" horiz-adv-x="548" 
d="M90 0v709h98v-617h335v-92h-433zM289 373q0 26 18.5 45t44.5 19t45 -19t19 -45t-19 -44.5t-45 -18.5t-44.5 18.5t-18.5 44.5z" />
    <glyph glyph-name="ldot" unicode="&#x140;" horiz-adv-x="372" 
d="M80 0v724h94v-724h-94zM233 313q0 26 18 44t44 18t44 -18t18 -44t-18 -44t-44 -18t-44 18t-18 44z" />
    <glyph glyph-name="Lslash" unicode="&#x141;" horiz-adv-x="559" 
d="M101 0v289l-96 -42v87l96 42v333h98v-289l157 69v-87l-157 -70v-240h335v-92h-433z" />
    <glyph glyph-name="lslash" unicode="&#x142;" horiz-adv-x="288" 
d="M94 0v272l-89 -39v87l89 39v365h94v-323l95 42v-87l-95 -42v-314h-94z" />
    <glyph glyph-name="Nacute" unicode="&#x143;" horiz-adv-x="763" 
d="M571 0l-383 578v-578h-98v709h131l354 -544v544h98v-709h-102zM400 759h-94l101 119h130z" />
    <glyph glyph-name="nacute" unicode="&#x144;" horiz-adv-x="562" 
d="M174 0h-94v481h92v-69q26 45 66 64t82 19q43 0 75.5 -14.5t54 -40t32 -60.5t10.5 -75v-305h-94v289q0 25 -5.5 47t-19 38.5t-35 26t-52.5 9.5q-28 0 -49 -10.5t-35 -28.5t-21 -42t-7 -51v-278zM300 543h-79l87 146h118z" />
    <glyph glyph-name="Ncommaaccent" unicode="&#x145;" horiz-adv-x="763" 
d="M571 0l-383 578v-578h-98v709h131l354 -544v544h98v-709h-102zM333 -88q0 23 18 37.5t41 14.5q22 0 43.5 -16.5t21.5 -56.5q0 -29 -10 -50t-26.5 -35t-37 -20.5t-40.5 -6.5v40q26 0 44.5 15t20.5 33q-2 -2 -8 -4t-13 -2q-23 0 -38.5 12.5t-15.5 38.5z" />
    <glyph glyph-name="ncommaaccent" unicode="&#x146;" horiz-adv-x="562" 
d="M174 0h-94v481h92v-69q26 45 66 64t82 19q43 0 75.5 -14.5t54 -40t32 -60.5t10.5 -75v-305h-94v289q0 25 -5.5 47t-19 38.5t-35 26t-52.5 9.5q-28 0 -49 -10.5t-35 -28.5t-21 -42t-7 -51v-278zM230 -88q0 23 18 37.5t41 14.5q22 0 43.5 -16.5t21.5 -56.5q0 -29 -10 -50
t-26.5 -35t-37 -20.5t-40.5 -6.5v40q26 0 44.5 15t20.5 33q-2 -2 -8 -4t-13 -2q-23 0 -38.5 12.5t-15.5 38.5z" />
    <glyph glyph-name="Ncaron" unicode="&#x147;" horiz-adv-x="763" 
d="M571 0l-383 578v-578h-98v709h131l354 -544v544h98v-709h-102zM301 878l81 -64l85 64h92l-117 -119h-120l-112 119h91z" />
    <glyph glyph-name="ncaron" unicode="&#x148;" horiz-adv-x="562" 
d="M174 0h-94v481h92v-69q26 45 66 64t82 19q43 0 75.5 -14.5t54 -40t32 -60.5t10.5 -75v-305h-94v289q0 25 -5.5 47t-19 38.5t-35 26t-52.5 9.5q-28 0 -49 -10.5t-35 -28.5t-21 -42t-7 -51v-278zM199 687l70 -81l70 81h88l-102 -142h-111l-102 142h87z" />
    <glyph glyph-name="napostrophe" unicode="&#x149;" horiz-adv-x="562" 
d="M174 0h-94v481h92v-69q26 45 66 64t82 19q43 0 75.5 -14.5t54 -40t32 -60.5t10.5 -75v-305h-94v289q0 25 -5.5 47t-19 38.5t-35 26t-52.5 9.5q-28 0 -49 -10.5t-35 -28.5t-21 -42t-7 -51v-278zM69 659q0 24 18 38t41 14q11 0 22.5 -4t21 -12.5t15.5 -22.5t6 -34
q0 -29 -10 -50t-26.5 -35t-37 -20.5t-40.5 -6.5v40q26 0 44.5 15t20.5 33q-1 -1 -6 -3.5t-15 -2.5q-23 0 -38.5 12.5t-15.5 38.5z" />
    <glyph glyph-name="Eng" unicode="&#x14a;" horiz-adv-x="763" 
d="M513 -112q37 0 49.5 17t12.5 50v39l-387 584v-578h-98v709h131l354 -544v544h98v-756q0 -66 -35.5 -107.5t-98.5 -41.5q-27 0 -40 2.5t-16 4.5v79q5 -1 13.5 -1.5t16.5 -0.5z" />
    <glyph glyph-name="eng" unicode="&#x14b;" horiz-adv-x="562" 
d="M174 0h-94v481h92v-69q26 45 66 64t82 19q43 0 75.5 -14.5t54 -40t32 -60.5t10.5 -75v-361q0 -66 -35 -107.5t-98 -41.5q-27 0 -40 2.5t-16 4.5v78q5 -1 13.5 -1.5t16.5 -0.5q37 0 51 18.5t14 51.5v341q0 25 -5.5 47t-19 38.5t-35 26t-52.5 9.5q-28 0 -49 -10.5
t-35 -28.5t-21 -42t-7 -51v-278z" />
    <glyph glyph-name="Omacron" unicode="&#x14c;" horiz-adv-x="802" 
d="M145 355q0 -69 21.5 -121.5t57 -88t81.5 -53t96 -17.5q49 0 95.5 17.5t82 53t57 88t21.5 121.5t-21.5 121.5t-57 87.5t-82 52.5t-95.5 17.5q-50 0 -96 -17.5t-81.5 -52.5t-57 -87.5t-21.5 -121.5zM45 355q0 89 30.5 157.5t80.5 115.5t114 71.5t131 24.5t131 -24.5
t114 -71.5t80.5 -115.5t30.5 -157.5t-30.5 -158t-80.5 -116t-114 -71.5t-131 -24.5t-131 24.5t-114 71.5t-80.5 116t-30.5 158zM255 779v83h293v-83h-293z" />
    <glyph glyph-name="omacron" unicode="&#x14d;" horiz-adv-x="572" 
d="M286 69q30 0 57 11t48 33t33 54t12 74t-12 73.5t-33 53.5t-48 33t-57 11t-57 -11t-48 -33t-33 -53.5t-12 -73.5t12 -74t33 -54t48 -33t57 -11zM286 496q54 0 99 -19.5t78 -53.5t51 -80.5t18 -101.5t-18 -102t-51 -81t-78 -53.5t-99 -19.5t-99 19.5t-78 53.5t-51 81
t-18 102t18 101.5t51 80.5t78 53.5t99 19.5zM150 577v81h273v-81h-273z" />
    <glyph glyph-name="Obreve" unicode="&#x14e;" horiz-adv-x="802" 
d="M145 355q0 -69 21.5 -121.5t57 -88t81.5 -53t96 -17.5q49 0 95.5 17.5t82 53t57 88t21.5 121.5t-21.5 121.5t-57 87.5t-82 52.5t-95.5 17.5q-50 0 -96 -17.5t-81.5 -52.5t-57 -87.5t-21.5 -121.5zM45 355q0 89 30.5 157.5t80.5 115.5t114 71.5t131 24.5t131 -24.5
t114 -71.5t80.5 -115.5t30.5 -157.5t-30.5 -158t-80.5 -116t-114 -71.5t-131 -24.5t-131 24.5t-114 71.5t-80.5 116t-30.5 158zM409 754q-38 0 -66.5 11t-48 29.5t-30.5 41.5t-12 47h81q1 -9 5 -18.5t13 -18t23.5 -14t34.5 -5.5t34 5.5t23 14t13 18t5 18.5h81
q-2 -24 -12 -47t-29.5 -41.5t-48 -29.5t-66.5 -11z" />
    <glyph glyph-name="obreve" unicode="&#x14f;" horiz-adv-x="572" 
d="M286 69q30 0 57 11t48 33t33 54t12 74t-12 73.5t-33 53.5t-48 33t-57 11t-57 -11t-48 -33t-33 -53.5t-12 -73.5t12 -74t33 -54t48 -33t57 -11zM286 496q54 0 99 -19.5t78 -53.5t51 -80.5t18 -101.5t-18 -102t-51 -81t-78 -53.5t-99 -19.5t-99 19.5t-78 53.5t-51 81
t-18 102t18 101.5t51 80.5t78 53.5t99 19.5zM286 545q-35 0 -62 12t-45.5 32t-28.5 45.5t-10 52.5h73q1 -23 18 -44t55 -21t54.5 21t18.5 44h73q0 -27 -9.5 -52.5t-27.5 -45.5t-45.5 -32t-63.5 -12z" />
    <glyph glyph-name="Ohungarumlaut" unicode="&#x150;" horiz-adv-x="802" 
d="M145 355q0 -69 21.5 -121.5t57 -88t81.5 -53t96 -17.5q49 0 95.5 17.5t82 53t57 88t21.5 121.5t-21.5 121.5t-57 87.5t-82 52.5t-95.5 17.5q-50 0 -96 -17.5t-81.5 -52.5t-57 -87.5t-21.5 -121.5zM45 355q0 89 30.5 157.5t80.5 115.5t114 71.5t131 24.5t131 -24.5
t114 -71.5t80.5 -115.5t30.5 -157.5t-30.5 -158t-80.5 -116t-114 -71.5t-131 -24.5t-131 24.5t-114 71.5t-80.5 116t-30.5 158zM355 759h-70l61 119h105zM496 759h-70l71 119h105z" />
    <glyph glyph-name="ohungarumlaut" unicode="&#x151;" horiz-adv-x="572" 
d="M286 69q30 0 57 11t48 33t33 54t12 74t-12 73.5t-33 53.5t-48 33t-57 11t-57 -11t-48 -33t-33 -53.5t-12 -73.5t12 -74t33 -54t48 -33t57 -11zM286 496q54 0 99 -19.5t78 -53.5t51 -80.5t18 -101.5t-18 -102t-51 -81t-78 -53.5t-99 -19.5t-99 19.5t-78 53.5t-51 81
t-18 102t18 101.5t51 80.5t78 53.5t99 19.5zM248 543h-66l51 146h105zM379 543h-66l61 146h105z" />
    <glyph glyph-name="OE" unicode="&#x152;" horiz-adv-x="1148" 
d="M145 355q0 -69 21.5 -121.5t57 -88t81.5 -53t96 -17.5q49 0 95.5 17.5t82 53t57 88t21.5 121.5t-21.5 121.5t-57 87.5t-82 52.5t-95.5 17.5q-50 0 -96 -17.5t-81.5 -52.5t-57 -87.5t-21.5 -121.5zM657 0v93q-51 -54 -118 -81t-138 -27q-67 0 -131 24.5t-114 71.5
t-80.5 116t-30.5 158t30.5 157.5t80.5 115.5t114 71.5t131 24.5q71 0 138 -27t118 -81v93h431v-91h-333v-218h302v-92h-302v-217h333v-91h-431z" />
    <glyph glyph-name="oe" unicode="&#x153;" horiz-adv-x="937" 
d="M286 69q30 0 57 11t48 33t33 54t12 74t-12 73.5t-33 53.5t-48 33t-57 11t-57 -11t-48 -33t-33 -53.5t-12 -73.5t12 -74t33 -54t48 -33t57 -11zM799 290q-2 52 -35.5 87.5t-96.5 35.5q-30 0 -53.5 -10.5t-40 -28t-26.5 -39.5t-11 -45h263zM894 137q-10 -32 -29.5 -59.5
t-47 -48t-62.5 -32.5t-77 -12q-59 0 -110 24.5t-85 72.5q-32 -45 -83 -71t-114 -26q-54 0 -99 19.5t-78 53.5t-51 81t-18 102t18 101.5t51 80.5t78 53.5t99 19.5q63 0 114 -26.5t83 -71.5q32 46 80.5 72t102.5 26q55 0 98.5 -18.5t72.5 -51.5t44.5 -79.5t15.5 -102.5
q0 -8 -0.5 -16.5t-1.5 -13.5h-362q1 -32 12.5 -58.5t31 -46t45.5 -30.5t56 -11q59 0 90 28t45 69z" />
    <glyph glyph-name="Racute" unicode="&#x154;" horiz-adv-x="619" 
d="M335 759h-94l101 119h130zM295 290h-106v-290h-99v709h267q50 0 90.5 -16.5t68.5 -45t43 -67t15 -82.5q0 -77 -45.5 -131.5t-126.5 -69.5l169 -297h-114zM339 378q60 0 97 32.5t37 87.5q0 57 -37 90t-97 33h-150v-243h150z" />
    <glyph glyph-name="racute" unicode="&#x155;" horiz-adv-x="367" 
d="M347 386q-21 3 -41 3q-59 0 -95.5 -34.5t-36.5 -113.5v-241h-94v481h92v-84q13 28 30.5 45.5t36.5 28t39 14.5t38 4q10 0 18.5 -1t12.5 -2v-100zM221 543h-79l87 146h118z" />
    <glyph glyph-name="Rcommaaccent" unicode="&#x156;" horiz-adv-x="619" 
d="M272 -88q0 23 18 37.5t41 14.5q22 0 43.5 -16.5t21.5 -56.5q0 -29 -10 -50t-26.5 -35t-37 -20.5t-40.5 -6.5v40q26 0 44.5 15t20.5 33q-2 -2 -8 -4t-13 -2q-23 0 -38.5 12.5t-15.5 38.5zM295 290h-106v-290h-99v709h267q50 0 90.5 -16.5t68.5 -45t43 -67t15 -82.5
q0 -77 -45.5 -131.5t-126.5 -69.5l169 -297h-114zM339 378q60 0 97 32.5t37 87.5q0 57 -37 90t-97 33h-150v-243h150z" />
    <glyph glyph-name="rcommaaccent" unicode="&#x157;" horiz-adv-x="367" 
d="M347 386q-21 3 -41 3q-59 0 -95.5 -34.5t-36.5 -113.5v-241h-94v481h92v-84q13 28 30.5 45.5t36.5 28t39 14.5t38 4q10 0 18.5 -1t12.5 -2v-100zM66 -88q0 23 18 37.5t41 14.5q22 0 43.5 -16.5t21.5 -56.5q0 -29 -10 -50t-26.5 -35t-37 -20.5t-40.5 -6.5v40q26 0 44.5 15
t20.5 33q-2 -2 -8 -4t-13 -2q-23 0 -38.5 12.5t-15.5 38.5z" />
    <glyph glyph-name="Rcaron" unicode="&#x158;" horiz-adv-x="619" 
d="M223 878l81 -64l85 64h92l-117 -119h-120l-112 119h91zM295 290h-106v-290h-99v709h267q50 0 90.5 -16.5t68.5 -45t43 -67t15 -82.5q0 -77 -45.5 -131.5t-126.5 -69.5l169 -297h-114zM339 378q60 0 97 32.5t37 87.5q0 57 -37 90t-97 33h-150v-243h150z" />
    <glyph glyph-name="rcaron" unicode="&#x159;" horiz-adv-x="367" 
d="M347 386q-21 3 -41 3q-59 0 -95.5 -34.5t-36.5 -113.5v-241h-94v481h92v-84q13 28 30.5 45.5t36.5 28t39 14.5t38 4q10 0 18.5 -1t12.5 -2v-100zM140 687l70 -81l70 81h88l-102 -142h-111l-102 142h87z" />
    <glyph glyph-name="Sacute" unicode="&#x15a;" horiz-adv-x="593" 
d="M341 759h-94l101 119h130zM454 517q-3 19 -13 40.5t-28 39.5t-45 29.5t-64 11.5q-30 0 -55 -9t-43.5 -25t-28.5 -37.5t-10 -46.5q0 -38 23 -65.5t68 -37.5l106 -23q89 -20 136.5 -72t47.5 -127q0 -41 -17 -79t-49 -67t-77 -46.5t-102 -17.5q-64 0 -111.5 19t-80 49
t-50.5 67.5t-23 75.5l94 30q3 -30 14.5 -57.5t33 -48.5t52 -33.5t70.5 -12.5q73 0 109.5 33t36.5 80q0 38 -26 68.5t-80 41.5l-101 22q-76 17 -124.5 65.5t-48.5 128.5q0 42 18 80t49.5 67t74.5 46.5t92 17.5q60 0 102.5 -16.5t71 -42.5t44.5 -57t22 -60z" />
    <glyph glyph-name="sacute" unicode="&#x15b;" horiz-adv-x="452" 
d="M257 543h-79l87 146h118zM120 155q5 -38 33 -64t79 -26q40 0 61 19t21 45q0 23 -16 39t-46 23l-82 18q-57 12 -88.5 48t-31.5 87q0 31 13.5 58.5t36.5 48.5t54.5 33t66.5 12q49 0 82.5 -14t54.5 -34.5t31.5 -42.5t14.5 -38l-83 -31q-2 9 -7 23t-16 26.5t-30 21.5t-47 9
q-36 0 -58 -19.5t-22 -44.5q0 -46 55 -58l78 -17q66 -14 99.5 -51.5t33.5 -91.5q0 -26 -11 -52t-32.5 -48t-54.5 -35.5t-78 -13.5q-50 0 -85.5 14t-59 35t-36 45.5t-15.5 45.5z" />
    <glyph glyph-name="Scircumflex" unicode="&#x15c;" horiz-adv-x="593" 
d="M144 759l112 119h120l117 -119h-92l-85 64l-81 -64h-91zM454 517q-3 19 -13 40.5t-28 39.5t-45 29.5t-64 11.5q-30 0 -55 -9t-43.5 -25t-28.5 -37.5t-10 -46.5q0 -38 23 -65.5t68 -37.5l106 -23q89 -20 136.5 -72t47.5 -127q0 -41 -17 -79t-49 -67t-77 -46.5t-102 -17.5
q-64 0 -111.5 19t-80 49t-50.5 67.5t-23 75.5l94 30q3 -30 14.5 -57.5t33 -48.5t52 -33.5t70.5 -12.5q73 0 109.5 33t36.5 80q0 38 -26 68.5t-80 41.5l-101 22q-76 17 -124.5 65.5t-48.5 128.5q0 42 18 80t49.5 67t74.5 46.5t92 17.5q60 0 102.5 -16.5t71 -42.5t44.5 -57
t22 -60z" />
    <glyph glyph-name="scircumflex" unicode="&#x15d;" horiz-adv-x="452" 
d="M76 545l104 139h107l104 -139h-88l-70 81l-70 -81h-87zM120 155q5 -38 33 -64t79 -26q40 0 61 19t21 45q0 23 -16 39t-46 23l-82 18q-57 12 -88.5 48t-31.5 87q0 31 13.5 58.5t36.5 48.5t54.5 33t66.5 12q49 0 82.5 -14t54.5 -34.5t31.5 -42.5t14.5 -38l-83 -31
q-2 9 -7 23t-16 26.5t-30 21.5t-47 9q-36 0 -58 -19.5t-22 -44.5q0 -46 55 -58l78 -17q66 -14 99.5 -51.5t33.5 -91.5q0 -26 -11 -52t-32.5 -48t-54.5 -35.5t-78 -13.5q-50 0 -85.5 14t-59 35t-36 45.5t-15.5 45.5z" />
    <glyph glyph-name="Scedilla" unicode="&#x15e;" horiz-adv-x="593" 
d="M454 517q-3 19 -13 40.5t-28 39.5t-45 29.5t-64 11.5q-30 0 -55 -9.5t-43.5 -25.5t-28.5 -37.5t-10 -45.5q0 -38 23 -65.5t68 -37.5l106 -23q89 -20 136.5 -72t47.5 -127q0 -38 -14 -73t-40 -62.5t-63.5 -46.5t-84.5 -25l-22 -34q42 0 69.5 -22t27.5 -60q0 -35 -28 -61.5
t-89 -26.5q-38 0 -66.5 13t-43.5 31l37 45q9 -10 27.5 -22t44.5 -12q18 0 32.5 8t14.5 25q0 14 -11.5 23t-32.5 9q-16 0 -29 -5l-33 39l31 48q-57 4 -99 24t-71.5 49.5t-46 65.5t-20.5 73l94 30q3 -30 15 -57.5t33.5 -49t52 -34.5t69.5 -13q73 0 109.5 33t36.5 80
q0 38 -27 68.5t-79 41.5l-101 22q-76 17 -124.5 65.5t-48.5 128.5q0 42 18 80t49.5 67t74.5 46.5t92 17.5q60 0 102.5 -16.5t71 -42.5t44.5 -57t22 -60z" />
    <glyph glyph-name="scedilla" unicode="&#x15f;" horiz-adv-x="452" 
d="M120 157q5 -38 33 -65t79 -27q40 0 61 19t21 45q0 23 -16 39t-46 23l-82 18q-55 12 -87.5 48.5t-32.5 86.5q0 31 13.5 58.5t36.5 48.5t54.5 33t66.5 12q49 0 82.5 -14t54.5 -34.5t31.5 -42.5t14.5 -38l-83 -31q-2 9 -7 23t-16 26.5t-30 21.5t-47 9q-36 0 -58 -19.5
t-22 -44.5q0 -45 55 -58l78 -17q66 -14 99.5 -51.5t33.5 -91.5q0 -23 -9 -47t-27 -44.5t-45 -35.5t-64 -20l-21 -33q42 0 69.5 -22t27.5 -60q0 -35 -28 -61.5t-89 -26.5q-38 0 -66.5 13t-43.5 31l37 45q9 -10 27.5 -22t44.5 -12q18 0 32.5 8t14.5 25q0 14 -11.5 23t-32.5 9
q-16 0 -29 -5l-33 39l32 50q-39 5 -67.5 20t-47.5 35.5t-29.5 42.5t-13.5 41z" />
    <glyph glyph-name="Scaron" unicode="&#x160;" horiz-adv-x="593" 
d="M454 517q-3 19 -13 40.5t-28 39.5t-45 29.5t-64 11.5q-30 0 -55 -9t-43.5 -25t-28.5 -37.5t-10 -46.5q0 -38 23 -65.5t68 -37.5l106 -23q89 -20 136.5 -72t47.5 -127q0 -41 -17 -79t-49 -67t-77 -46.5t-102 -17.5q-64 0 -111.5 19t-80 49t-50.5 67.5t-23 75.5l94 30
q3 -30 14.5 -57.5t33 -48.5t52 -33.5t70.5 -12.5q73 0 109.5 33t36.5 80q0 38 -26 68.5t-80 41.5l-101 22q-76 17 -124.5 65.5t-48.5 128.5q0 42 18 80t49.5 67t74.5 46.5t92 17.5q60 0 102.5 -16.5t71 -42.5t44.5 -57t22 -60zM224 878l81 -64l85 64h92l-117 -119h-120
l-112 119h91z" />
    <glyph glyph-name="scaron" unicode="&#x161;" horiz-adv-x="452" 
d="M120 155q5 -38 33 -64t79 -26q40 0 61 19t21 45q0 23 -16 39t-46 23l-82 18q-57 12 -88.5 48t-31.5 87q0 31 13.5 58.5t36.5 48.5t54.5 33t66.5 12q49 0 82.5 -14t54.5 -34.5t31.5 -42.5t14.5 -38l-83 -31q-2 9 -7 23t-16 26.5t-30 21.5t-47 9q-36 0 -58 -19.5t-22 -44.5
q0 -46 55 -58l78 -17q66 -14 99.5 -51.5t33.5 -91.5q0 -26 -11 -52t-32.5 -48t-54.5 -35.5t-78 -13.5q-50 0 -85.5 14t-59 35t-36 45.5t-15.5 45.5zM156 687l70 -81l70 81h88l-102 -142h-111l-102 142h87z" />
    <glyph glyph-name="Tcommaaccent" unicode="&#x162;" horiz-adv-x="592" 
d="M222 -62l39 62h-14v618h-237v91h572v-91h-237v-618h-13l-30 -46q42 0 69.5 -22t27.5 -60q0 -18 -7 -34t-21 -28.5t-36.5 -20t-52.5 -7.5q-38 0 -66.5 14t-43.5 32l37 45q9 -10 27.5 -22t44.5 -12q18 0 32.5 8t14.5 25q0 14 -11.5 23t-32.5 9q-16 0 -29 -5z" />
    <glyph glyph-name="tcommaaccent" unicode="&#x163;" horiz-adv-x="355" 
d="M142 -62l43 68q-35 14 -54 46t-19 80v264h-92v85h26q39 0 56.5 21t17.5 53v78h86v-152h104v-85h-104v-250q0 -33 15 -49.5t52 -16.5q9 0 20 1t17 3v-80q-6 -2 -22.5 -5t-39.5 -4l-26 -41q42 0 69.5 -22t27.5 -60q0 -18 -7 -34t-21 -28.5t-36.5 -20t-52.5 -7.5
q-38 0 -66.5 14t-43.5 32l37 45q9 -10 27.5 -22t44.5 -12q18 0 32.5 8t14.5 25q0 14 -11.5 23t-32.5 9q-16 0 -29 -5z" />
    <glyph glyph-name="Tcaron" unicode="&#x164;" horiz-adv-x="592" 
d="M345 618v-618h-98v618h-237v91h572v-91h-237zM213 878l81 -64l85 64h92l-117 -119h-120l-112 119h91z" />
    <glyph glyph-name="tcaron" unicode="&#x165;" horiz-adv-x="355" 
d="M206 481h104v-85h-104v-250q0 -33 15 -49.5t52 -16.5q9 0 20 1t17 3v-80q-6 -2 -23 -5.5t-41 -3.5q-62 0 -98 35.5t-36 101.5v264h-92v85h26q39 0 56.5 21t17.5 53v78h86v-152zM339 566h-69l28 179h105z" />
    <glyph glyph-name="Tbar" unicode="&#x166;" horiz-adv-x="592" 
d="M345 618v-246h110v-81h-110v-291h-98v291h-108v81h108v246h-237v91h572v-91h-237z" />
    <glyph glyph-name="tbar" unicode="&#x167;" horiz-adv-x="355" 
d="M273 80q9 0 20 1t17 3v-80q-6 -2 -23 -5.5t-41 -3.5q-62 0 -98 35.5t-36 101.5v75h-92v76h92v113h-92v85h26q39 0 56.5 21t17.5 53v78h86v-152h104v-85h-104v-113h104v-76h-104v-61q0 -33 15 -49.5t52 -16.5z" />
    <glyph glyph-name="Utilde" unicode="&#x168;" horiz-adv-x="670" 
d="M335 -15q-54 0 -100.5 16.5t-81 49t-54 80.5t-19.5 111v467h97v-464q0 -81 41.5 -125t116.5 -44t116 44t41 125v464h98v-467q0 -63 -19.5 -111t-54 -80.5t-81 -49t-100.5 -16.5zM495 865q0 -56 -27 -83.5t-69 -27.5q-22 0 -39 6t-32 17l-15 10q-10 6 -18.5 10t-18.5 4
q-16 0 -25.5 -10.5t-9.5 -33.5h-68v16q0 56 27.5 83.5t69.5 27.5q21 0 39.5 -7t33.5 -16l15 -9q11 -6 19.5 -10t18.5 -4q13 0 22.5 7.5t9.5 27.5v8h67v-16z" />
    <glyph glyph-name="utilde" unicode="&#x169;" horiz-adv-x="566" 
d="M397 58q-20 -38 -60 -55.5t-82 -17.5t-75.5 15t-56.5 41t-35.5 61t-12.5 76v303h94v-289q0 -25 6 -47.5t19 -39.5t33.5 -27t50.5 -10q57 0 85.5 34t28.5 89v290h94v-392q0 -29 1.5 -52.5t3.5 -36.5h-90q-2 8 -3 25.5t-1 32.5zM437 662q0 -56 -27.5 -82.5t-69.5 -26.5
q-20 0 -36 6.5t-30 15.5l-14 9q-10 6 -18.5 10t-18.5 4q-14 0 -21.5 -9t-7.5 -34h-72v15q0 56 28 82.5t70 26.5q20 0 36.5 -6.5t30.5 -15.5l14 -9q10 -6 18 -10t18 -4q15 0 22 9.5t7 33.5h71v-15z" />
    <glyph glyph-name="Umacron" unicode="&#x16a;" horiz-adv-x="670" 
d="M335 -15q-54 0 -100.5 16.5t-81 49t-54 80.5t-19.5 111v467h97v-464q0 -81 41.5 -125t116.5 -44t116 44t41 125v464h98v-467q0 -63 -19.5 -111t-54 -80.5t-81 -49t-100.5 -16.5zM189 779v83h293v-83h-293z" />
    <glyph glyph-name="umacron" unicode="&#x16b;" horiz-adv-x="566" 
d="M397 58q-20 -38 -60 -55.5t-82 -17.5t-75.5 15t-56.5 41t-35.5 61t-12.5 76v303h94v-289q0 -25 6 -47.5t19 -39.5t33.5 -27t50.5 -10q57 0 85.5 34t28.5 89v290h94v-392q0 -29 1.5 -52.5t3.5 -36.5h-90q-2 8 -3 25.5t-1 32.5zM144 577v81h273v-81h-273z" />
    <glyph glyph-name="Ubreve" unicode="&#x16c;" horiz-adv-x="670" 
d="M335 -15q-54 0 -100.5 16.5t-81 49t-54 80.5t-19.5 111v467h97v-464q0 -81 41.5 -125t116.5 -44t116 44t41 125v464h98v-467q0 -63 -19.5 -111t-54 -80.5t-81 -49t-100.5 -16.5zM336 754q-38 0 -66.5 11t-48 29.5t-30.5 41.5t-12 47h81q1 -9 5 -18.5t13 -18t23.5 -14
t34.5 -5.5t34 5.5t23 14t13 18t5 18.5h81q-2 -24 -12 -47t-29.5 -41.5t-48 -29.5t-66.5 -11z" />
    <glyph glyph-name="ubreve" unicode="&#x16d;" horiz-adv-x="566" 
d="M397 58q-20 -38 -60 -55.5t-82 -17.5t-75.5 15t-56.5 41t-35.5 61t-12.5 76v303h94v-289q0 -25 6 -47.5t19 -39.5t33.5 -27t50.5 -10q57 0 85.5 34t28.5 89v290h94v-392q0 -29 1.5 -52.5t3.5 -36.5h-90q-2 8 -3 25.5t-1 32.5zM282 545q-35 0 -62 12t-45.5 32t-28.5 45.5
t-10 52.5h73q1 -23 18 -44t55 -21t54.5 21t18.5 44h73q0 -27 -9.5 -52.5t-27.5 -45.5t-45.5 -32t-63.5 -12z" />
    <glyph glyph-name="Uring" unicode="&#x16e;" horiz-adv-x="670" 
d="M335 -15q-54 0 -100.5 16.5t-81 49t-54 80.5t-19.5 111v467h97v-464q0 -81 41.5 -125t116.5 -44t116 44t41 125v464h98v-467q0 -63 -19.5 -111t-54 -80.5t-81 -49t-100.5 -16.5zM447 848q0 -23 -9 -43t-24 -34.5t-35.5 -23t-43.5 -8.5q-22 0 -42 8.5t-35.5 23t-24.5 34.5
t-9 43t9 43t24.5 35t35.5 23.5t42 8.5q23 0 43.5 -8.5t35.5 -23.5t24 -35t9 -43zM382 848q0 20 -14 33.5t-34 13.5t-33 -13.5t-13 -33.5t13 -33t33 -13t34 13t14 33z" />
    <glyph glyph-name="uring" unicode="&#x16f;" horiz-adv-x="566" 
d="M397 58q-20 -38 -60 -55.5t-82 -17.5t-75.5 15t-56.5 41t-35.5 61t-12.5 76v303h94v-289q0 -25 6 -47.5t19 -39.5t33.5 -27t50.5 -10q57 0 85.5 34t28.5 89v290h94v-392q0 -29 1.5 -52.5t3.5 -36.5h-90q-2 8 -3 25.5t-1 32.5zM392 641q0 -23 -9 -43t-24 -34.5t-35.5 -23
t-43.5 -8.5q-22 0 -42 8.5t-35.5 23t-24.5 34.5t-9 43t9 43t24.5 35t35.5 23.5t42 8.5q23 0 43.5 -8.5t35.5 -23.5t24 -35t9 -43zM328 641q0 20 -14 34.5t-35 14.5q-20 0 -33.5 -14.5t-13.5 -34.5t13.5 -34t33.5 -14q21 0 35 14t14 34z" />
    <glyph glyph-name="Uhungarumlaut" unicode="&#x170;" horiz-adv-x="670" 
d="M335 -15q-54 0 -100.5 16.5t-81 49t-54 80.5t-19.5 111v467h97v-464q0 -81 41.5 -125t116.5 -44t116 44t41 125v464h98v-467q0 -63 -19.5 -111t-54 -80.5t-81 -49t-100.5 -16.5zM285 759h-70l61 119h105zM426 759h-70l71 119h105z" />
    <glyph glyph-name="uhungarumlaut" unicode="&#x171;" horiz-adv-x="566" 
d="M397 58q-20 -38 -60 -55.5t-82 -17.5t-75.5 15t-56.5 41t-35.5 61t-12.5 76v303h94v-289q0 -25 6 -47.5t19 -39.5t33.5 -27t50.5 -10q57 0 85.5 34t28.5 89v290h94v-392q0 -29 1.5 -52.5t3.5 -36.5h-90q-2 8 -3 25.5t-1 32.5zM232 543h-66l51 146h105zM363 543h-66
l61 146h105z" />
    <glyph glyph-name="Uogonek" unicode="&#x172;" horiz-adv-x="670" 
d="M266 -115q0 35 15 59.5t36 41.5q-50 2 -93.5 20t-75.5 50.5t-50 79t-18 106.5v467h97v-464q0 -81 41.5 -125t116.5 -44t116 44t41 125v464h98v-467q0 -97 -44 -157.5t-115 -84.5q-14 -7 -29 -16t-27.5 -21t-20.5 -27t-8 -33q0 -26 16.5 -36.5t36.5 -10.5q12 0 19 1t13 3
v-68q-10 -4 -20.5 -6t-29.5 -2q-23 0 -44 7t-37 19.5t-25 31.5t-9 43z" />
    <glyph glyph-name="uogonek" unicode="&#x173;" horiz-adv-x="566" 
d="M326 -115q0 44 23 72t52 45q-2 9 -3 25.5t-1 30.5q-20 -38 -60 -55.5t-82 -17.5t-75.5 15t-56.5 41t-35.5 61t-12.5 76v303h94v-289q0 -25 6 -47.5t19 -39.5t33.5 -27t50.5 -10q57 0 85.5 34t28.5 89v290h94v-392q0 -31 1.5 -53.5t3.5 -35.5q-14 -7 -29 -16t-27.5 -21
t-20.5 -27t-8 -33q0 -26 16.5 -36.5t36.5 -10.5q12 0 19 1t13 3v-68q-10 -4 -20.5 -6t-29.5 -2q-23 0 -44 7t-37 19.5t-25 31.5t-9 43z" />
    <glyph glyph-name="Wcircumflex" unicode="&#x174;" horiz-adv-x="1004" 
d="M888 709h101l-202 -709h-101l-185 575l-183 -575h-98l-205 709h101l156 -555l178 555h103l182 -561zM328 759l112 119h120l117 -119h-92l-85 64l-81 -64h-91z" />
    <glyph glyph-name="wcircumflex" unicode="&#x175;" horiz-adv-x="793" 
d="M448 481l125 -362l106 362h99l-156 -481h-97l-128 366l-125 -366h-99l-158 481h103l108 -362l125 362h97zM240 545l104 139h107l104 -139h-88l-70 81l-70 -81h-87z" />
    <glyph glyph-name="Ycircumflex" unicode="&#x176;" horiz-adv-x="618" 
d="M10 709h118l184 -316l184 316h112l-250 -406v-303h-98v303zM135 759l112 119h120l117 -119h-92l-85 64l-81 -64h-91z" />
    <glyph glyph-name="ycircumflex" unicode="&#x177;" horiz-adv-x="523" 
d="M97 -201l120 254l-207 428h108l150 -332l144 332h101l-313 -682h-103zM103 545l104 139h107l104 -139h-88l-70 81l-70 -81h-87z" />
    <glyph glyph-name="Ydieresis" unicode="&#x178;" horiz-adv-x="618" 
d="M10 709h118l184 -316l184 316h112l-250 -406v-303h-98v303zM135 819q0 25 17 42t42 17t42 -17t17 -42t-17 -42t-42 -17t-42 17t-17 42zM366 819q0 25 17 42t42 17t42 -17t17 -42t-17 -42t-42 -17t-42 17t-17 42z" />
    <glyph glyph-name="Zacute" unicode="&#x179;" horiz-adv-x="632" 
d="M45 0v98l423 520h-413v91h532v-95l-425 -522h430v-92h-547zM339 759h-94l101 119h130z" />
    <glyph glyph-name="zacute" unicode="&#x17a;" horiz-adv-x="466" 
d="M249 543h-79l87 146h118zM40 0v82l264 314h-260v85h377v-82l-264 -314h269v-85h-386z" />
    <glyph glyph-name="Zdotaccent" unicode="&#x17b;" horiz-adv-x="632" 
d="M45 0v98l423 520h-413v91h532v-95l-425 -522h430v-92h-547zM256 818q0 26 18.5 45t44.5 19t45 -19t19 -45t-19 -44.5t-45 -18.5t-44.5 18.5t-18.5 44.5z" />
    <glyph glyph-name="zdotaccent" unicode="&#x17c;" horiz-adv-x="466" 
d="M171 616q0 26 18 44t44 18t44 -18t18 -44t-18 -44t-44 -18t-44 18t-18 44zM40 0v82l264 314h-260v85h377v-82l-264 -314h269v-85h-386z" />
    <glyph glyph-name="Zcaron" unicode="&#x17d;" horiz-adv-x="632" 
d="M45 0v98l423 520h-413v91h532v-95l-425 -522h430v-92h-547zM240 878l81 -64l85 64h92l-117 -119h-120l-112 119h91z" />
    <glyph glyph-name="zcaron" unicode="&#x17e;" horiz-adv-x="466" 
d="M165 687l70 -81l70 81h88l-102 -142h-111l-102 142h87zM40 0v82l264 314h-260v85h377v-82l-264 -314h269v-85h-386z" />
    <glyph glyph-name="uni018F" unicode="&#x18f;" horiz-adv-x="794" 
d="M388 724q74 0 139.5 -24t115 -70.5t78 -115.5t28.5 -160t-30 -160t-79.5 -115.5t-112.5 -70t-130 -23.5q-66 0 -129.5 22.5t-113 68.5t-79.5 114.5t-30 160.5v10t1 14h602q-3 65 -25.5 113.5t-58 81t-81.5 48.5t-95 16q-44 0 -84 -13.5t-72.5 -36.5t-55.5 -54t-33 -66
l-88 32q14 47 45.5 88.5t75.5 72.5t98 49t114 18zM617 206q8 17 14.5 36.5t11.5 42.5h-496q4 -37 18 -67q15 -36 39.5 -63t55 -44.5t65.5 -26.5t72 -9q69 0 128 32.5t92 98.5z" />
    <glyph glyph-name="florin" unicode="&#x192;" horiz-adv-x="481" 
d="M197 398h-110v83h127l23 113q7 38 23.5 65.5t39 45t49 26t53.5 8.5q29 0 44.5 -2.5t29.5 -7.5v-83q-11 3 -24 5t-29 2q-13 0 -27.5 -2.5t-27.5 -12t-24 -28t-17 -49.5l-16 -80h129v-83h-146l-82 -411q-8 -38 -24 -65.5t-38.5 -45t-49 -26t-53.5 -8.5q-31 0 -47 2.5
t-30 7.5v83q11 -3 24.5 -5t31.5 -2q13 0 27.5 3t27.5 12.5t24 27.5t17 49z" />
    <glyph glyph-name="uni01B5" unicode="&#x1b5;" horiz-adv-x="632" 
d="M45 0v98l187 230h-145v85h214l167 205h-413v91h532v-95l-164 -201h120v-85h-189l-192 -236h430v-92h-547z" />
    <glyph glyph-name="uni01B6" unicode="&#x1b6;" horiz-adv-x="466" 
d="M40 0v82l108 129h-99v76h163l92 109h-260v85h377v-82l-94 -112h87v-76h-151l-106 -126h269v-85h-386z" />
    <glyph glyph-name="Aringacute" unicode="&#x1fa;" horiz-adv-x="697" 
d="M225 289h244l-123 318zM393 755q0 20 -14 33.5t-34 13.5t-33 -13.5t-13 -33.5t13 -33t33 -13t34 13t14 33zM394 902h-94l101 119h130zM458 755q0 -25 -10.5 -46.5t-28.5 -36.5l268 -672h-106l-77 198h-314l-75 -198h-105l267 671q-19 15 -30.5 36.5t-11.5 47.5q0 23 9 43
t24.5 35t35.5 23.5t42 8.5q23 0 43.5 -8.5t35.5 -23.5t24 -35t9 -43z" />
    <glyph glyph-name="aringacute" unicode="&#x1fb;" horiz-adv-x="523" 
d="M50 129q0 32 11 57.5t30.5 43.5t46.5 29t58 16l130 19q22 3 29.5 13t7.5 23q0 35 -24.5 60.5t-79.5 25.5q-50 0 -77 -27.5t-32 -69.5l-90 21q4 34 20.5 63t42.5 49.5t60.5 32t73.5 11.5q54 0 92 -14.5t62 -38.5t35 -56t11 -67v-241q0 -32 2 -51t4 -28h-92q-2 9 -3.5 24
t-1.5 41q-8 -13 -21 -27t-32 -26t-44.5 -19.5t-57.5 -7.5q-37 0 -66.5 12t-50.5 31.5t-32.5 45.5t-11.5 55zM224 64q29 0 54.5 7.5t44 24t29.5 44t11 66.5v22l-147 -22q-30 -5 -50 -22.5t-20 -49.5q0 -27 21 -48.5t57 -21.5zM373 636q0 -23 -9 -43t-24 -34.5t-35.5 -23
t-43.5 -8.5q-22 0 -42 8.5t-35.5 23t-24.5 34.5t-9 43t9 43t24.5 35t35.5 23.5t42 8.5q23 0 43.5 -8.5t35.5 -23.5t24 -35t9 -43zM309 636q0 20 -14 34.5t-35 14.5q-20 0 -33.5 -14.5t-13.5 -34.5t13.5 -34t33.5 -14q21 0 35 14t14 34zM297 779h-79l87 146h118z" />
    <glyph glyph-name="AEacute" unicode="&#x1fc;" horiz-adv-x="1026" 
d="M599 759h-94l101 119h130zM535 0v196h-278l-126 -196h-126l472 709h489v-91h-333v-218h302v-92h-302v-217h333v-91h-431zM535 284v344l-222 -344h222z" />
    <glyph glyph-name="aeacute" unicode="&#x1fd;" horiz-adv-x="874" 
d="M472 543h-79l87 146h118zM831 137q-10 -32 -30 -59.5t-48 -48t-63 -32.5t-75 -12q-61 0 -113.5 26.5t-86.5 77.5q-11 -19 -27 -37.5t-39 -33.5t-54.5 -24t-72.5 -9t-73 12t-54 31.5t-33.5 45.5t-11.5 55q0 32 11 57.5t30.5 43.5t46.5 29t58 16l139 19q24 4 31 14.5
t7 21.5q0 35 -27.5 61t-82.5 26q-51 0 -80.5 -28t-34.5 -66l-88 17q3 36 22.5 65t48 49.5t63 31t69.5 10.5q62 0 105 -22t66 -58q32 38 76 59t93 21q55 0 98.5 -18.5t72.5 -51.5t44.5 -79.5t15.5 -102.5q0 -7 -0.5 -16.5t-1.5 -13.5h-362q1 -32 12.5 -58.5t31 -46
t45.5 -30.5t56 -11q58 0 89 28t45 69zM229 64q25 0 50.5 7.5t46.5 24t34 43.5t13 66v23l-157 -22q-32 -5 -51 -23t-19 -51q0 -26 21.5 -47t61.5 -21zM736 290q-2 52 -35.5 87.5t-96.5 35.5q-30 0 -53.5 -10.5t-40 -28t-26.5 -39.5t-11 -45h263z" />
    <glyph glyph-name="Oslashacute" unicode="&#x1fe;" horiz-adv-x="802" 
d="M445 759h-94l101 119h130zM45 355q0 89 30.5 157.5t80.5 115.5t114 71.5t131 24.5q51 0 99.5 -14t91.5 -41l72 92l68 -52l-73 -94q45 -47 71.5 -112t26.5 -148q0 -89 -30.5 -158t-80.5 -116t-114 -71.5t-131 -24.5q-50 0 -98 13.5t-91 39.5l-68 -89l-70 51l71 92
q-45 47 -72.5 112.5t-27.5 150.5zM145 355q0 -60 15.5 -106.5t43.5 -81.5l332 429q-61 38 -135 38q-50 0 -96 -17.5t-81.5 -52.5t-57 -87.5t-21.5 -121.5zM657 355q0 58 -15.5 103.5t-41.5 80.5l-332 -429q30 -18 64 -26.5t69 -8.5q49 0 95.5 17.5t82 53t57 88t21.5 121.5z
" />
    <glyph glyph-name="oslashacute" unicode="&#x1ff;" horiz-adv-x="572" 
d="M326 543h-79l87 146h118zM286 496q35 0 66.5 -8.5t58.5 -23.5l50 65l60 -48l-51 -66q29 -34 45.5 -78t16.5 -96q0 -55 -18 -102t-51 -81t-78 -53.5t-99 -19.5q-35 0 -66.5 8.5t-57.5 22.5l-49 -63l-60 48l49 64q-29 34 -45.5 78.5t-16.5 97.5q0 55 18 101.5t51 80.5
t78 53.5t99 19.5zM136 241q0 -33 7 -57t18 -44l196 254q-33 18 -71 18q-30 0 -57 -11t-48 -33t-33 -53.5t-12 -73.5zM286 69q30 0 57 11t48 33t33 54t12 74q0 29 -6.5 54t-17.5 45l-196 -254q30 -17 70 -17z" />
    <glyph glyph-name="Scommaaccent" unicode="&#x218;" horiz-adv-x="593" 
d="M248 -88q0 23 18 37.5t41 14.5q22 0 43.5 -16.5t21.5 -56.5q0 -29 -10 -50t-26.5 -35t-37 -20.5t-40.5 -6.5v40q26 0 44.5 15t20.5 33q-2 -2 -8 -4t-13 -2q-23 0 -38.5 12.5t-15.5 38.5zM454 517q-3 19 -13 40.5t-28 39.5t-45 29.5t-64 11.5q-30 0 -55 -9t-43.5 -25
t-28.5 -37.5t-10 -46.5q0 -38 23 -65.5t68 -37.5l106 -23q89 -20 136.5 -72t47.5 -127q0 -41 -17 -79t-49 -67t-77 -46.5t-102 -17.5q-64 0 -111.5 19t-80 49t-50.5 67.5t-23 75.5l94 30q3 -30 14.5 -57.5t33 -48.5t52 -33.5t70.5 -12.5q73 0 109.5 33t36.5 80
q0 38 -26 68.5t-80 41.5l-101 22q-76 17 -124.5 65.5t-48.5 128.5q0 42 18 80t49.5 67t74.5 46.5t92 17.5q60 0 102.5 -16.5t71 -42.5t44.5 -57t22 -60z" />
    <glyph glyph-name="scommaaccent" unicode="&#x219;" horiz-adv-x="452" 
d="M169 -88q0 23 18 37.5t41 14.5q22 0 43.5 -16.5t21.5 -56.5q0 -29 -10 -50t-26.5 -35t-37 -20.5t-40.5 -6.5v40q26 0 44.5 15t20.5 33q-2 -2 -8 -4t-13 -2q-23 0 -38.5 12.5t-15.5 38.5zM120 155q5 -38 33 -64t79 -26q40 0 61 19t21 45q0 23 -16 39t-46 23l-82 18
q-57 12 -88.5 48t-31.5 87q0 31 13.5 58.5t36.5 48.5t54.5 33t66.5 12q49 0 82.5 -14t54.5 -34.5t31.5 -42.5t14.5 -38l-83 -31q-2 9 -7 23t-16 26.5t-30 21.5t-47 9q-36 0 -58 -19.5t-22 -44.5q0 -46 55 -58l78 -17q66 -14 99.5 -51.5t33.5 -91.5q0 -26 -11 -52t-32.5 -48
t-54.5 -35.5t-78 -13.5q-50 0 -85.5 14t-59 35t-36 45.5t-15.5 45.5z" />
    <glyph glyph-name="uni021A" unicode="&#x21a;" horiz-adv-x="592" 
d="M345 618v-618h-98v618h-237v91h572v-91h-237zM233 -88q0 23 18 37.5t41 14.5q22 0 43.5 -16.5t21.5 -56.5q0 -29 -10 -50t-26.5 -35t-37 -20.5t-40.5 -6.5v40q26 0 44.5 15t20.5 33q-2 -2 -8 -4t-13 -2q-23 0 -38.5 12.5t-15.5 38.5z" />
    <glyph glyph-name="uni021B" unicode="&#x21b;" horiz-adv-x="355" 
d="M206 481h104v-85h-104v-250q0 -33 15 -49.5t52 -16.5q9 0 20 1t17 3v-80q-6 -2 -23 -5.5t-41 -3.5q-62 0 -98 35.5t-36 101.5v264h-92v85h26q39 0 56.5 21t17.5 53v78h86v-152zM146 -88q0 23 18 37.5t41 14.5q22 0 43.5 -16.5t21.5 -56.5q0 -29 -10 -50t-26.5 -35
t-37 -20.5t-40.5 -6.5v40q26 0 44.5 15t20.5 33q-2 -2 -8 -4t-13 -2q-23 0 -38.5 12.5t-15.5 38.5z" />
    <glyph glyph-name="uni0237" unicode="&#x237;" horiz-adv-x="254" 
d="M80 481h94v-537q0 -66 -35 -107.5t-98 -41.5q-27 0 -39 2.5t-17 4.5v78q4 -1 13 -1.5t17 -0.5q37 0 51 18.5t14 51.5v533z" />
    <glyph glyph-name="uni0259" unicode="&#x259;" horiz-adv-x="546" 
d="M140 188q2 -52 37.5 -86t97.5 -34q30 0 53.5 10t40 26.5t26 38.5t11.5 45h-266zM45 345q10 31 30.5 58.5t49 48t64.5 32.5t78 12q56 0 100.5 -18.5t75 -52.5t47 -81.5t16.5 -104.5t-18 -103.5t-49.5 -80t-73.5 -52t-89 -18.5q-54 0 -98 18t-74.5 50.5t-47 78.5t-16.5 102
v11t2 19h367q-1 32 -11 59t-28.5 47t-44.5 31.5t-58 11.5q-57 0 -93 -29t-50 -67z" />
    <glyph glyph-name="circumflex" unicode="&#x2c6;" horiz-adv-x="385" 
d="M35 545l104 139h107l104 -139h-88l-70 81l-70 -81h-87z" />
    <glyph glyph-name="caron" unicode="&#x2c7;" horiz-adv-x="385" 
d="M122 687l70 -81l70 81h88l-102 -142h-111l-102 142h87z" />
    <glyph glyph-name="uni02C9" unicode="&#x2c9;" horiz-adv-x="343" 
d="M35 577v81h273v-81h-273z" />
    <glyph glyph-name="breve" unicode="&#x2d8;" horiz-adv-x="362" 
d="M181 545q-35 0 -62 12t-45.5 32t-28.5 45.5t-10 52.5h73q1 -23 18 -44t55 -21t54.5 21t18.5 44h73q0 -27 -9.5 -52.5t-27.5 -45.5t-45.5 -32t-63.5 -12z" />
    <glyph glyph-name="dotaccent" unicode="&#x2d9;" horiz-adv-x="174" 
d="M25 616q0 26 18 44t44 18t44 -18t18 -44t-18 -44t-44 -18t-44 18t-18 44z" />
    <glyph glyph-name="ring" unicode="&#x2da;" horiz-adv-x="293" 
d="M258 641q0 -23 -9 -43t-24 -34.5t-35.5 -23t-43.5 -8.5q-22 0 -42 8.5t-35.5 23t-24.5 34.5t-9 43t9 43t24.5 35t35.5 23.5t42 8.5q23 0 43.5 -8.5t35.5 -23.5t24 -35t9 -43zM194 641q0 20 -14 34.5t-35 14.5q-20 0 -33.5 -14.5t-13.5 -34.5t13.5 -34t33.5 -14
q21 0 35 14t14 34z" />
    <glyph glyph-name="ogonek" unicode="&#x2db;" horiz-adv-x="233" 
d="M33 -115q0 27 9.5 48.5t24.5 37t33 26.5t35 19l63 -16q-14 -7 -29 -16t-27.5 -21t-20.5 -27t-8 -33q0 -26 16.5 -36.5t36.5 -10.5q12 0 19 1t13 3v-68q-10 -4 -20.5 -6t-29.5 -2q-23 0 -44 7t-37 19.5t-25 31.5t-9 43z" />
    <glyph glyph-name="tilde" unicode="&#x2dc;" horiz-adv-x="377" 
d="M346 662q0 -56 -27.5 -82.5t-69.5 -26.5q-20 0 -36 6.5t-30 15.5l-14 9q-10 6 -18.5 10t-18.5 4q-14 0 -21.5 -9t-7.5 -34h-72v15q0 56 28 82.5t70 26.5q20 0 36.5 -6.5t30.5 -15.5l14 -9q10 -6 18 -10t18 -4q15 0 22 9.5t7 33.5h71v-15z" />
    <glyph glyph-name="hungarumlaut" unicode="&#x2dd;" horiz-adv-x="367" 
d="M101 543h-66l51 146h105zM232 543h-66l61 146h105z" />
    <glyph glyph-name="uni0394" unicode="&#x394;" horiz-adv-x="662" 
d="M278 709h105l279 -709h-662zM139 90h383l-193 507z" />
    <glyph glyph-name="uni03A9" unicode="&#x3a9;" horiz-adv-x="796" 
d="M398 636q-46 0 -91.5 -16t-81.5 -47.5t-58 -77.5t-22 -107q0 -54 19 -98t49 -76.5t67.5 -53t74.5 -28.5v-132h-305v88h202q-38 14 -75.5 40.5t-66.5 65t-47 87t-18 106.5q0 79 29.5 142t78 106t112.5 66t133 23t133 -23t112.5 -66t78 -106t29.5 -142q0 -58 -18 -106.5
t-47.5 -87t-66.5 -65t-76 -40.5h203v-88h-305v132q37 8 74.5 28.5t67.5 53t49 76.5t19 98q0 61 -22 107t-58 77.5t-81.5 47.5t-91.5 16z" />
    <glyph glyph-name="uni03BC" unicode="&#x3bc;" horiz-adv-x="571" 
d="M402 58q-20 -38 -60 -55.5t-82 -17.5q-27 0 -47.5 5.5t-38.5 14.5v-195h-94v671h94v-289q0 -25 6 -47.5t19 -39.5t33.5 -27t50.5 -10q57 0 85.5 34t28.5 89v290h94v-392q0 -29 1.5 -54t3.5 -35h-90q-2 8 -3 25.5t-1 32.5z" />
    <glyph glyph-name="pi" unicode="&#x3c0;" horiz-adv-x="615" 
d="M565 5q-9 -4 -23.5 -8t-37.5 -4q-31 0 -53 10t-36.5 26.5t-21.5 38t-7 44.5v287h-165v-399h-94v399h-82v82h518v-82h-83v-277q0 -27 15.5 -38t38.5 -11q8 0 15.5 1t15.5 3v-72z" />
    <glyph glyph-name="Wgrave" unicode="&#x1e80;" horiz-adv-x="1004" 
d="M888 709h101l-202 -709h-101l-185 575l-183 -575h-98l-205 709h101l156 -555l178 555h103l182 -561zM320 878h129l102 -119h-93z" />
    <glyph glyph-name="wgrave" unicode="&#x1e81;" horiz-adv-x="793" 
d="M448 481l125 -362l106 362h99l-156 -481h-97l-128 366l-125 -366h-99l-158 481h103l108 -362l125 362h97zM234 689h118l86 -146h-78z" />
    <glyph glyph-name="Wacute" unicode="&#x1e82;" horiz-adv-x="1004" 
d="M888 709h101l-202 -709h-101l-185 575l-183 -575h-98l-205 709h101l156 -555l178 555h103l182 -561zM549 759h-94l101 119h130z" />
    <glyph glyph-name="wacute" unicode="&#x1e83;" horiz-adv-x="793" 
d="M448 481l125 -362l106 362h99l-156 -481h-97l-128 366l-125 -366h-99l-158 481h103l108 -362l125 362h97zM437 543h-79l87 146h118z" />
    <glyph glyph-name="Wdieresis" unicode="&#x1e84;" horiz-adv-x="1004" 
d="M298 819q0 25 17 42t42 17t42 -17t17 -42t-17 -42t-42 -17t-42 17t-17 42zM589 819q0 25 17 42t42 17t42 -17t17 -42t-17 -42t-42 -17t-42 17t-17 42zM888 709h101l-202 -709h-101l-185 575l-183 -575h-98l-205 709h101l156 -555l178 555h103l182 -561z" />
    <glyph glyph-name="wdieresis" unicode="&#x1e85;" horiz-adv-x="793" 
d="M225 621q0 24 16.5 41t40.5 17q25 0 42 -17t17 -41q0 -25 -17 -41.5t-42 -16.5q-24 0 -40.5 16.5t-16.5 41.5zM452 621q0 24 16.5 41t41.5 17q24 0 41 -17t17 -41q0 -25 -17 -41.5t-41 -16.5q-25 0 -41.5 16.5t-16.5 41.5zM448 481l125 -362l106 362h99l-156 -481h-97
l-128 366l-125 -366h-99l-158 481h103l108 -362l125 362h97z" />
    <glyph glyph-name="uni1E8A" unicode="&#x1e8a;" horiz-adv-x="617" 
d="M366 355l238 -355h-117l-179 277l-183 -277h-115l242 355l-240 354h118l179 -278l182 278h116zM246 818q0 26 18.5 45t44.5 19t45 -19t19 -45t-19 -44.5t-45 -18.5t-44.5 18.5t-18.5 44.5z" />
    <glyph glyph-name="uni1E8B" unicode="&#x1e8b;" horiz-adv-x="491" 
d="M189 245l-173 236h114l118 -169l116 169h111l-171 -236l21 -29l31.5 -43l36 -50.5l36 -50.5l31.5 -43l21 -29h-113l-124 177l-122 -177h-112zM184 616q0 26 18 44t44 18t44 -18t18 -44t-18 -44t-44 -18t-44 18t-18 44z" />
    <glyph glyph-name="Ygrave" unicode="&#x1ef2;" horiz-adv-x="618" 
d="M10 709h118l184 -316l184 316h112l-250 -406v-303h-98v303zM137 878h129l102 -119h-93z" />
    <glyph glyph-name="ygrave" unicode="&#x1ef3;" horiz-adv-x="523" 
d="M97 -201l120 254l-207 428h108l150 -332l144 332h101l-313 -682h-103zM116 689h118l86 -146h-78z" />
    <glyph glyph-name="uni2007" unicode="&#x2007;" horiz-adv-x="614" 
 />
    <glyph glyph-name="uni2008" unicode="&#x2008;" horiz-adv-x="279" 
 />
    <glyph glyph-name="uni200B" unicode="&#x200b;" horiz-adv-x="0" 
 />
    <glyph glyph-name="endash" unicode="&#x2013;" horiz-adv-x="642" 
d="M65 246v82h512v-82h-512z" />
    <glyph glyph-name="emdash" unicode="&#x2014;" horiz-adv-x="1103" 
d="M75 246v82h953v-82h-953z" />
    <glyph glyph-name="quoteleft" unicode="&#x2018;" horiz-adv-x="218" 
d="M178 515q0 -25 -18.5 -42.5t-46.5 -17.5q-29 0 -51 21t-22 64q0 44 13 76t32.5 53.5t43 32.5t44.5 13v-47q-33 -8 -53.5 -37t-21.5 -60q2 2 7 3.5t13 1.5q25 0 42.5 -16t17.5 -45z" />
    <glyph glyph-name="quoteright" unicode="&#x2019;" horiz-adv-x="224" 
d="M40 656q0 25 19.5 43.5t48.5 18.5q30 0 53 -22t23 -66q0 -47 -13.5 -80t-34 -55t-44.5 -33t-46 -14v48q34 8 55 37.5t22 63.5q-2 -2 -7 -3.5t-13 -1.5q-26 0 -44.5 17t-18.5 47z" />
    <glyph glyph-name="quotesinglbase" unicode="&#x201a;" horiz-adv-x="224" 
d="M40 61q0 25 19.5 43.5t48.5 18.5q30 0 53 -22t23 -66q0 -47 -13.5 -80t-34 -55t-44.5 -33t-46 -14v48q34 8 55 37.5t22 63.5q-2 -2 -7 -3.5t-13 -1.5q-26 0 -44.5 17t-18.5 47z" />
    <glyph glyph-name="quotedblleft" unicode="&#x201c;" horiz-adv-x="389" 
d="M349 520q0 -25 -18.5 -42.5t-46.5 -17.5q-29 0 -51 21t-22 64q0 44 13 76t32.5 53.5t43 32.5t44.5 13v-47q-33 -8 -53.5 -37t-21.5 -60q2 2 7 3.5t13 1.5q25 0 42.5 -16t17.5 -45zM178 520q0 -25 -18.5 -42.5t-46.5 -17.5q-29 0 -51 21t-22 64q0 44 13 76t32.5 53.5
t43 32.5t44.5 13v-47q-33 -8 -53.5 -37t-21.5 -60q2 2 7 3.5t13 1.5q25 0 42.5 -16t17.5 -45z" />
    <glyph glyph-name="quotedblright" unicode="&#x201d;" horiz-adv-x="389" 
d="M40 655q0 25 18.5 42.5t46.5 17.5q29 0 51 -21t22 -64q0 -44 -13 -76t-32.5 -53t-43 -32t-44.5 -14v47q16 4 30 13.5t23.5 22.5t15.5 29t6 32q-2 -2 -7 -3.5t-13 -1.5q-25 0 -42.5 16t-17.5 45zM211 655q0 25 18.5 42.5t46.5 17.5q29 0 51 -21t22 -64q0 -44 -13 -76
t-32.5 -53t-43 -32t-44.5 -14v47q16 4 30 13.5t23.5 22.5t15.5 29t6 32q-2 -2 -7 -3.5t-13 -1.5q-25 0 -42.5 16t-17.5 45z" />
    <glyph glyph-name="quotedblbase" unicode="&#x201e;" horiz-adv-x="389" 
d="M40 58q0 25 18.5 42.5t46.5 17.5q29 0 51 -21t22 -64q0 -44 -13 -76t-32.5 -53t-43 -32t-44.5 -14v47q16 4 30 13.5t23.5 22.5t15.5 29t6 32q-2 -2 -7 -3.5t-13 -1.5q-25 0 -42.5 16t-17.5 45zM211 58q0 25 18.5 42.5t46.5 17.5q29 0 51 -21t22 -64q0 -44 -13 -76
t-32.5 -53t-43 -32t-44.5 -14v47q16 4 30 13.5t23.5 22.5t15.5 29t6 32q-2 -2 -7 -3.5t-13 -1.5q-25 0 -42.5 16t-17.5 45z" />
    <glyph glyph-name="dagger" unicode="&#x2020;" horiz-adv-x="386" 
d="M152 162v317h-127v81h127v149h82v-149h127v-81h-127v-317h-82z" />
    <glyph glyph-name="daggerdbl" unicode="&#x2021;" horiz-adv-x="426" 
d="M172 230v249h-127v81h127v149h82v-149h127v-81h-127v-249h127v-81h-127v-149h-82v149h-127v81h127z" />
    <glyph glyph-name="bullet" unicode="&#x2022;" horiz-adv-x="554" 
d="M70 289q0 43 16.5 81t44.5 66t65.5 44.5t80.5 16.5t80.5 -16.5t65.5 -44.5t44.5 -66t16.5 -81q0 -42 -16.5 -80t-44.5 -66t-65.5 -44.5t-80.5 -16.5t-80.5 16.5t-65.5 44.5t-44.5 66t-16.5 80z" />
    <glyph glyph-name="ellipsis" unicode="&#x2026;" horiz-adv-x="932" 
d="M842 59q0 -27 -18.5 -45.5t-45.5 -18.5t-46 18.5t-19 45.5t19 46t46 19t45.5 -19t18.5 -46zM530 59q0 -27 -18.5 -45.5t-45.5 -18.5t-46 18.5t-19 45.5t19 46t46 19t45.5 -19t18.5 -46zM219 59q0 -27 -18.5 -45.5t-45.5 -18.5t-46 18.5t-19 45.5t19 46t46 19t45.5 -19
t18.5 -46z" />
    <glyph glyph-name="perthousand" unicode="&#x2030;" horiz-adv-x="1055" 
d="M138 498q0 -35 22.5 -57t54.5 -22q33 0 55 22t22 57q0 34 -22 56t-55 22q-32 0 -54.5 -22t-22.5 -56zM55 498q0 33 13 61.5t35 50t51 33.5t61 12t61.5 -12t51.5 -33.5t35 -50t13 -61.5t-13 -62t-35 -50.5t-51.5 -33.5t-61.5 -12t-61 12t-51 33.5t-35 50.5t-13 62z
M534 150q0 -35 22.5 -57t54.5 -22q33 0 55 22t22 57q0 34 -22 56t-55 22q-32 0 -54.5 -22t-22.5 -56zM135 0l466 648h90l-464 -648h-92zM772 150q0 -35 22.5 -57t54.5 -22q33 0 55 22t22 57q0 34 -22 56t-55 22q-32 0 -54.5 -22t-22.5 -56zM451 150q0 33 13 61.5t35 50
t51 33.5t61 12q37 0 68 -16t51 -44q20 28 50.5 44t68.5 16q32 0 61.5 -12t51.5 -33.5t35 -50t13 -61.5t-13 -62t-35 -50.5t-51.5 -33.5t-61.5 -12q-38 0 -68.5 16t-50.5 43q-20 -27 -51 -43t-68 -16q-32 0 -61 12t-51 33.5t-35 50.5t-13 62z" />
    <glyph glyph-name="guilsinglleft" unicode="&#x2039;" horiz-adv-x="276" 
d="M163 99l-133 191l133 191h93l-131 -191l131 -191h-93z" />
    <glyph glyph-name="guilsinglright" unicode="&#x203a;" horiz-adv-x="276" 
d="M20 99l131 191l-131 191h93l133 -191l-133 -191h-93z" />
    <glyph glyph-name="uni2042" unicode="&#x2042;" horiz-adv-x="835" 
d="M453 588l111 38l20 -65l-111 -36l74 -95l-55 -41l-75 98l-70 -97l-55 41l71 94l-112 36l21 65l110 -38v121h71v-121zM237 191l111 38l20 -65l-111 -36l74 -95l-55 -41l-75 98l-70 -97l-55 41l71 94l-112 36l21 65l110 -38v121h71v-121zM669 191l111 38l20 -65l-111 -36
l74 -95l-55 -41l-75 98l-70 -97l-55 41l71 94l-112 36l21 65l110 -38v121h71v-121z" />
    <glyph glyph-name="fraction" unicode="&#x2044;" horiz-adv-x="556" 
d="M0 0l466 648h90l-464 -648h-92z" />
    <glyph glyph-name="uni2051" unicode="&#x2051;" horiz-adv-x="423" 
d="M247 588l111 38l20 -65l-111 -36l74 -95l-55 -41l-75 98l-70 -97l-55 41l71 94l-112 36l21 65l110 -38v121h71v-121zM247 191l111 38l20 -65l-111 -36l74 -95l-55 -41l-75 98l-70 -97l-55 41l71 94l-112 36l21 65l110 -38v121h71v-121z" />
    <glyph glyph-name="uni2070" unicode="&#x2070;" horiz-adv-x="426" 
d="M138 526q0 -20 2.5 -42t10.5 -40t22.5 -29.5t39.5 -11.5t39.5 11.5t22.5 29.5t10.5 40t2.5 42t-2.5 42t-10.5 40t-22.5 30t-39.5 12t-39.5 -11.5t-22.5 -29.5t-10.5 -40t-2.5 -43zM60 526q0 36 7.5 70.5t27.5 61.5q17 23 44.5 40.5t73.5 17.5t73.5 -17.5t44.5 -40.5
q20 -27 27.5 -61.5t7.5 -70.5t-7.5 -70t-27.5 -61q-17 -23 -44.5 -40.5t-73.5 -17.5t-73.5 17.5t-44.5 40.5q-20 27 -27.5 61t-7.5 70z" />
    <glyph glyph-name="uni2074" unicode="&#x2074;" horiz-adv-x="446" 
d="M60 489l177 220h85v-228h64v-65h-64v-72h-77v72h-185v73zM245 620l-111 -139h111v139z" />
    <glyph glyph-name="uni2075" unicode="&#x2075;" horiz-adv-x="404" 
d="M126 459q7 -26 26.5 -41.5t46.5 -15.5q29 0 48 16t19 45q0 31 -19 46.5t-48 15.5q-20 0 -36 -7.5t-28 -19.5l-64 24l49 187h204v-66h-154l-23 -86q14 15 33.5 21.5t39.5 6.5q56 0 90 -32t34 -87q0 -27 -9.5 -50.5t-28 -41t-45.5 -27.5t-62 -10q-27 0 -50.5 8t-41.5 20.5
t-30 29t-17 34.5z" />
    <glyph glyph-name="uni2076" unicode="&#x2076;" horiz-adv-x="418" 
d="M322 641q-29 13 -62 13q-48 0 -81.5 -26.5t-41.5 -78.5q13 19 38 31t53 12q58 0 94 -33t36 -93q0 -29 -11.5 -52.5t-31 -40.5t-46.5 -26.5t-58 -9.5q-28 0 -55 10t-48.5 30.5t-34.5 52t-13 74.5q0 49 14.5 88t40.5 67t61.5 43t77.5 15q25 0 48 -5t38 -14zM143 465
q0 -31 21.5 -47t47.5 -16t47 16t21 47t-21 47t-47 16t-47.5 -16t-21.5 -47z" />
    <glyph glyph-name="uni2077" unicode="&#x2077;" horiz-adv-x="417" 
d="M357 640q-13 -9 -36 -30t-47 -56.5t-44 -87t-27 -122.5h-82q7 75 29 130.5t46 93.5q28 44 61 75h-197v66h297v-69z" />
    <glyph glyph-name="uni2078" unicode="&#x2078;" horiz-adv-x="410" 
d="M205 561q26 0 41.5 13t15.5 35q0 20 -15 32.5t-42 12.5t-42 -12.5t-15 -32.5q0 -22 15.5 -35t41.5 -13zM205 401q33 0 50 13.5t17 36.5q0 22 -17.5 36t-49.5 14t-49.5 -14t-17.5 -36q0 -23 17 -36.5t50 -13.5zM205 337q-70 0 -107.5 31t-37.5 77q0 27 18 50.5t50 35.5
q-27 11 -41.5 33t-14.5 47q0 47 37.5 76t95.5 29t95.5 -29t37.5 -76q0 -25 -14.5 -47t-41.5 -33q32 -12 50 -35.5t18 -50.5q0 -46 -37.5 -77t-107.5 -31z" />
    <glyph glyph-name="uni2079" unicode="&#x2079;" horiz-adv-x="416" 
d="M96 415q29 -13 62 -13q48 0 82.5 24.5t40.5 78.5q-13 -19 -38 -31t-53 -12q-57 0 -93.5 33.5t-36.5 92.5q0 28 11.5 52t31 41t46.5 26.5t58 9.5q28 0 54.5 -10t47.5 -30.5t34 -52t13 -74.5q0 -52 -14.5 -91.5t-40 -66.5t-60.5 -41t-77 -14q-25 0 -48 5t-38 14zM273 588
q0 31 -21 47.5t-48 16.5t-47.5 -16.5t-20.5 -47.5t20.5 -47.5t47.5 -16.5t48 16.5t21 47.5z" />
    <glyph glyph-name="uni2080" unicode="&#x2080;" horiz-adv-x="426" 
d="M138 111q0 -20 2.5 -42t10.5 -40t22.5 -29.5t39.5 -11.5t39.5 11.5t22.5 29.5t10.5 40t2.5 42t-2.5 42t-10.5 40t-22.5 30t-39.5 12t-39.5 -11.5t-22.5 -29.5t-10.5 -40t-2.5 -43zM60 111q0 36 7.5 70.5t27.5 61.5q17 23 44.5 40.5t73.5 17.5t73.5 -17.5t44.5 -40.5
q20 -27 27.5 -61.5t7.5 -70.5t-7.5 -70t-27.5 -61q-17 -23 -44.5 -40.5t-73.5 -17.5t-73.5 17.5t-44.5 40.5q-20 27 -27.5 61t-7.5 70z" />
    <glyph glyph-name="uni2081" unicode="&#x2081;" horiz-adv-x="303" 
d="M136 -71v245h-86v52q37 1 62 20.5t30 47.5h71v-365h-77z" />
    <glyph glyph-name="uni2082" unicode="&#x2082;" horiz-adv-x="389" 
d="M67 153q-2 8 -2.5 16.5t-0.5 14.5q0 24 9 45t26 37t41.5 25.5t55.5 9.5t55 -9.5t41 -25t26 -36.5t9 -44q0 -35 -19 -62.5t-51 -47.5l-72 -45q-11 -8 -20 -17t-11 -20h175v-65h-268v13q0 45 20 81.5t65 63.5l60 37q43 26 43 63q0 20 -14 35t-40 15t-41.5 -16t-15.5 -42
q0 -3 0.5 -11t2.5 -15h-74z" />
    <glyph glyph-name="uni2083" unicode="&#x2083;" horiz-adv-x="412" 
d="M149 151l95 79h-171v65h271v-63l-100 -80q21 -2 40.5 -9.5t34.5 -21t24 -33.5t9 -45t-10.5 -47t-29.5 -38.5t-45.5 -26t-59.5 -9.5t-58 9t-43.5 23t-30 32.5t-15.5 38.5l67 27q5 -29 26.5 -46.5t52.5 -17.5t49.5 16t18.5 39q0 31 -21.5 43.5t-46.5 12.5q-8 0 -15.5 -1
t-12.5 -3z" />
    <glyph glyph-name="uni2084" unicode="&#x2084;" horiz-adv-x="446" 
d="M60 74l177 220h85v-228h64v-65h-64v-72h-77v72h-185v73zM245 205l-111 -139h111v139z" />
    <glyph glyph-name="uni2085" unicode="&#x2085;" horiz-adv-x="404" 
d="M126 44q7 -26 26.5 -41.5t46.5 -15.5q29 0 48 16t19 45q0 31 -19 46.5t-48 15.5q-20 0 -36 -7.5t-28 -19.5l-64 24l49 187h204v-66h-154l-23 -86q14 15 33.5 21.5t39.5 6.5q56 0 90 -32t34 -87q0 -27 -9.5 -50.5t-28 -41t-45.5 -27.5t-62 -10q-27 0 -50.5 8t-41.5 20.5
t-30 29t-17 34.5z" />
    <glyph glyph-name="uni2086" unicode="&#x2086;" horiz-adv-x="418" 
d="M322 226q-29 13 -62 13q-48 0 -81.5 -26.5t-41.5 -78.5q13 19 38 31t53 12q58 0 94 -33t36 -93q0 -29 -11.5 -52.5t-31 -40.5t-46.5 -26.5t-58 -9.5q-28 0 -55 10t-48.5 30.5t-34.5 52t-13 74.5q0 49 14.5 88t40.5 67t61.5 43t77.5 15q25 0 48 -5t38 -14zM143 50
q0 -31 21.5 -47t47.5 -16t47 16t21 47t-21 47t-47 16t-47.5 -16t-21.5 -47z" />
    <glyph glyph-name="uni2087" unicode="&#x2087;" horiz-adv-x="417" 
d="M357 225q-13 -9 -36 -30t-47 -56.5t-44 -87t-27 -122.5h-82q7 75 29 130.5t46 93.5q28 44 61 75h-197v66h297v-69z" />
    <glyph glyph-name="uni2088" unicode="&#x2088;" horiz-adv-x="410" 
d="M205 146q26 0 41.5 13t15.5 35q0 20 -15 32.5t-42 12.5t-42 -12.5t-15 -32.5q0 -22 15.5 -35t41.5 -13zM205 -14q33 0 50 13.5t17 36.5q0 22 -17.5 36t-49.5 14t-49.5 -14t-17.5 -36q0 -23 17 -36.5t50 -13.5zM205 -78q-70 0 -107.5 31t-37.5 77q0 27 18 50.5t50 35.5
q-27 11 -41.5 33t-14.5 47q0 47 37.5 76t95.5 29t95.5 -29t37.5 -76q0 -25 -14.5 -47t-41.5 -33q32 -12 50 -35.5t18 -50.5q0 -46 -37.5 -77t-107.5 -31z" />
    <glyph glyph-name="uni2089" unicode="&#x2089;" horiz-adv-x="416" 
d="M96 0q29 -13 62 -13q48 0 82.5 24.5t40.5 78.5q-13 -19 -38 -31t-53 -12q-57 0 -93.5 33.5t-36.5 92.5q0 28 11.5 52t31 41t46.5 26.5t58 9.5q28 0 54.5 -10t47.5 -30.5t34 -52t13 -74.5q0 -52 -14.5 -91.5t-40 -66.5t-60.5 -41t-77 -14q-25 0 -48 5t-38 14zM273 173
q0 31 -21 47.5t-48 16.5t-47.5 -16.5t-20.5 -47.5t20.5 -47.5t47.5 -16.5t48 16.5t21 47.5z" />
    <glyph glyph-name="Euro" unicode="&#x20ac;" horiz-adv-x="689" 
d="M144 282q-1 8 -1.5 20.5t-0.5 22.5t0.5 21t1.5 19h-79v78h94q18 55 50.5 96t74 68.5t89.5 41.5t96 14q51 0 94 -11.5t77 -35.5l-40 -77q-27 20 -60 28.5t-71 8.5q-67 0 -123.5 -33t-84.5 -100h293l-39 -78h-273q-3 -18 -3 -40q0 -28 3 -43h237l-39 -80h-177
q28 -66 82.5 -98t120.5 -32q45 0 83.5 13.5t65.5 40.5l49 -70q-37 -32 -87.5 -51.5t-110.5 -19.5q-48 0 -94.5 14t-87.5 41t-73 67.5t-50 94.5h-96v80h79z" />
    <glyph glyph-name="uni2113" unicode="&#x2113;" horiz-adv-x="407" 
d="M35 259q6 2 25.5 8t42.5 17v222q0 74 37 116t97 42q64 0 99.5 -39t35.5 -111q0 -39 -11.5 -78t-34 -76t-55 -70t-74.5 -59v-71q0 -41 19 -59t48 -19q28 0 51 7.5t39 21.5v-85q-5 -7 -27 -19t-67 -12q-81 0 -119 45.5t-38 114.5v33l-33.5 -9.5t-34.5 -7.5v88zM278 514
q0 32 -8.5 48t-30.5 16q-17 0 -29.5 -15.5t-12.5 -55.5v-164q33 30 57 72t24 99z" />
    <glyph glyph-name="trademark" unicode="&#x2122;" horiz-adv-x="859" 
d="M218 641v-297h-76v297h-112v68h300v-68h-112zM727 344v233l-101 -233h-59l-98 230v-230h-76v365h99l107 -254l107 254h93v-365h-72z" />
    <glyph glyph-name="Omega" unicode="&#x2126;" horiz-adv-x="796" 
d="M398 636q-46 0 -91.5 -16t-81.5 -47.5t-58 -77.5t-22 -107q0 -54 19 -98t49 -76.5t67.5 -53t74.5 -28.5v-132h-305v88h202q-38 14 -75.5 40.5t-66.5 65t-47 87t-18 106.5q0 79 29.5 142t78 106t112.5 66t133 23t133 -23t112.5 -66t78 -106t29.5 -142q0 -58 -18 -106.5
t-47.5 -87t-66.5 -65t-76 -40.5h203v-88h-305v132q37 8 74.5 28.5t67.5 53t49 76.5t19 98q0 61 -22 107t-58 77.5t-81.5 47.5t-91.5 16z" />
    <glyph glyph-name="uni2160" unicode="&#x2160;" horiz-adv-x="506" 
d="M451 560h-150v-472h150v-88h-396v88h150v472h-150v88h396v-88z" />
    <glyph glyph-name="uni2161" unicode="&#x2161;" horiz-adv-x="770" 
d="M715 0h-660v88h140v472h-140v88h660v-88h-140v-472h140v-88zM479 560h-188v-472h188v472z" />
    <glyph glyph-name="uni2162" unicode="&#x2162;" horiz-adv-x="1044" 
d="M989 0h-934v88h140v472h-140v88h934v-88h-140v-472h140v-88zM753 560h-183v-472h183v472zM291 88h183v472h-183v-472z" />
    <glyph glyph-name="uni2163" unicode="&#x2163;" horiz-adv-x="1006" 
d="M951 0h-896v88h130v472h-130v88h895v-88h-115l-163 -472h279v-88zM281 88h240l-160 472h-80v-472zM736 560h-273l136 -419z" />
    <glyph glyph-name="uni2164" unicode="&#x2164;" horiz-adv-x="803" 
d="M748 560h-110l-163 -472h269v-88h-684v88h264l-160 472h-109v88h693v-88zM539 560h-273l136 -419z" />
    <glyph glyph-name="uni2165" unicode="&#x2165;" horiz-adv-x="1006" 
d="M951 0h-896v88h274l-160 472h-114v88h895v-88h-129v-472h130v-88zM480 88h245v472h-82zM544 560h-273l136 -419z" />
    <glyph glyph-name="uni2166" unicode="&#x2166;" horiz-adv-x="1293" 
d="M1238 0h-1183v88h273l-159 472h-114v88h1183v-88h-140v-472h140v-88zM1002 560h-182v-472h182v472zM479 88h245v472h-82zM543 560h-272l135 -419z" />
    <glyph glyph-name="uni2167" unicode="&#x2167;" horiz-adv-x="1542" 
d="M1487 0h-1432v88h270l-156 472h-114v88h1432v-88h-135v-472h135v-88zM814 88h173v472h-173v-472zM1083 88h173v472h-173v-472zM474 88h244v472h-84zM534 560h-263l131 -419z" />
    <glyph glyph-name="uni2168" unicode="&#x2168;" horiz-adv-x="976" 
d="M921 0h-866v88h130v472h-130v88h865v-88h-105l-170 -243l161 -229h115v-88zM367 560h-86v-472h92l165 229zM591 392l115 168h-229zM481 88h215l-106 155z" />
    <glyph glyph-name="uni2169" unicode="&#x2169;" horiz-adv-x="767" 
d="M711 560h-105l-170 -243l161 -229h115v-88h-657v88h109l165 229l-171 243h-103v88h656v-88zM382 392l115 168h-229zM272 88h215l-106 155z" />
    <glyph glyph-name="uni216C" unicode="&#x216c;" horiz-adv-x="654" 
d="M599 0h-544v88h130v472h-130v88h366v-88h-140v-472h222v193h96v-281z" />
    <glyph glyph-name="uni216D" unicode="&#x216d;" horiz-adv-x="722" 
d="M667 0h-96v67q-31 -38 -77 -59.5t-115 -21.5q-61 0 -119.5 22.5t-104 65.5t-73 106.5t-27.5 144.5q0 82 28 145t73.5 106t103.5 65.5t119 22.5q67 0 113 -20t77 -57v63h96v-226h-96q-8 69 -56 110.5t-134 41.5q-46 0 -87 -15t-72 -46t-49.5 -78.5t-18.5 -111.5
t18.5 -111.5t49.5 -78.5t72 -46t87 -15q49 0 84.5 14.5t58.5 37t35 50.5t14 55h96v-231z" />
    <glyph glyph-name="uni216E" unicode="&#x216e;" horiz-adv-x="735" 
d="M376 648q59 0 114 -20.5t97 -61.5t67.5 -101.5t25.5 -141.5q0 -80 -25 -140t-68 -101t-99 -61.5t-118 -20.5h-315v88h135v472h-135v88h321zM372 88q40 0 77.5 14t67 43t47.5 73t18 105q0 59 -17 103.5t-45.5 74t-67.5 44.5t-82 15h-84v-472h86z" />
    <glyph glyph-name="uni216F" unicode="&#x216f;" horiz-adv-x="1069" 
d="M531 133l212 515h271v-88h-132v-472h132v-88h-325v88h99v428l-219 -516h-76l-217 516v-428h104v-88h-325v88h127v472h-127v88h266z" />
    <glyph glyph-name="arrowleft" unicode="&#x2190;" horiz-adv-x="1026" 
d="M0 287l221 186v-144h735v-83h-735v-144z" />
    <glyph glyph-name="arrowup" unicode="&#x2191;" horiz-adv-x="449" 
d="M439 555h-158v-703h-83v703h-158l200 245z" />
    <glyph glyph-name="arrowright" unicode="&#x2192;" horiz-adv-x="1026" 
d="M730 76v169h-696v83h696v171l252 -212z" />
    <glyph glyph-name="arrowdown" unicode="&#x2193;" horiz-adv-x="449" 
d="M210 -162l-211 252h169v696h83v-696h171z" />
    <glyph glyph-name="uni2196" unicode="&#x2196;" horiz-adv-x="874" 
d="M347 709l-116 -117l543 -542l-59 -58l-543 541l-117 -118v294h292z" />
    <glyph glyph-name="uni2197" unicode="&#x2197;" horiz-adv-x="773" 
d="M673 709v-294l-118 118l-542 -541l-59 58l543 542l-116 117h292z" />
    <glyph glyph-name="uni2198" unicode="&#x2198;" horiz-adv-x="874" 
d="M482 0l116 117l-543 542l59 58l542 -542l118 119v-294h-292z" />
    <glyph glyph-name="uni2199" unicode="&#x2199;" horiz-adv-x="764" 
d="M45 0v294l117 -119l543 542l59 -58l-543 -542l116 -117h-292z" />
    <glyph glyph-name="uni21A9" unicode="&#x21a9;" horiz-adv-x="833" 
d="M398 664h192q45 0 84.5 -16t69 -44t46.5 -66.5t17 -82.5q0 -47 -18 -85.5t-49 -66t-71 -42.5t-83 -15h-367v-144l-221 185l221 186v-144h362q28 0 54 8.5t46 24.5t32 39.5t12 53.5t-11.5 53.5t-31.5 39.5t-47 24.5t-57 8.5h-180v83z" />
    <glyph glyph-name="uni21B0" unicode="&#x21b0;" horiz-adv-x="775" 
d="M50 538l221 186v-144h414v-580h-83v497h-331v-144z" />
    <glyph glyph-name="uni21B1" unicode="&#x21b1;" horiz-adv-x="720" 
d="M35 0v580h464v144l221 -186l-221 -185v144h-381v-497h-83z" />
    <glyph glyph-name="uni21B2" unicode="&#x21b2;" horiz-adv-x="760" 
d="M675 709v-580h-464v-144l-221 186l221 185v-144h381v497h83z" />
    <glyph glyph-name="uni21B3" unicode="&#x21b3;" horiz-adv-x="840" 
d="M770 171l-221 -186v144h-464v580h83v-497h381v144z" />
    <glyph glyph-name="uni21B4" unicode="&#x21b4;" horiz-adv-x="814" 
d="M55 709h580v-504h144l-186 -221l-185 221h144v421h-497v83z" />
    <glyph glyph-name="uni21C6" unicode="&#x21c6;" horiz-adv-x="1106" 
d="M55 540l221 186v-144h755v-83h-755v-144zM830 -15v144h-755v83h755v144l221 -186z" />
    <glyph glyph-name="partialdiff" unicode="&#x2202;" horiz-adv-x="611" 
d="M247 638q-24 0 -62.5 -6t-77.5 -25l-32 74q42 24 90 33.5t90 9.5q45 0 98.5 -15t100 -56.5t77.5 -114.5t31 -190q0 -84 -17.5 -151t-52.5 -114t-86.5 -72.5t-118.5 -25.5q-46 0 -89.5 14.5t-77 44t-54 74t-20.5 103.5q0 54 19.5 96.5t53.5 72.5t78.5 46t94.5 16
q60 0 104 -17t67 -40q-5 64 -23 110.5t-46 75.5t-65 43t-82 14zM306 369q-41 0 -71.5 -12.5t-51 -33.5t-31 -49t-10.5 -59q0 -35 12.5 -61.5t33.5 -44.5t48 -27.5t56 -9.5q47 0 79.5 20.5t53 52.5t30 72t9.5 79q-26 36 -68.5 54.5t-89.5 18.5z" />
    <glyph glyph-name="Delta" unicode="&#x2206;" horiz-adv-x="662" 
d="M278 709h105l279 -709h-662zM139 90h383l-193 507z" />
    <glyph glyph-name="product" unicode="&#x220f;" horiz-adv-x="687" 
d="M502 0v622h-314v-622h-98v709h507v-709h-95z" />
    <glyph glyph-name="summation" unicode="&#x2211;" horiz-adv-x="567" 
d="M45 86l273 271l-273 266v86h497v-90h-365l269 -262l-278 -267h374v-90h-497v86z" />
    <glyph glyph-name="minus" unicode="&#x2212;" horiz-adv-x="533" 
d="M55 248v79h423v-79h-423z" />
    <glyph glyph-name="uni2215" unicode="&#x2215;" horiz-adv-x="404" 
d="M91 0h-91l313 648h91z" />
    <glyph glyph-name="uni2219" unicode="&#x2219;" horiz-adv-x="279" 
d="M70 284q0 29 20 49.5t49 20.5t49.5 -20.5t20.5 -49.5t-20.5 -49t-49.5 -20t-49 20t-20 49z" />
    <glyph glyph-name="radical" unicode="&#x221a;" horiz-adv-x="665" 
d="M581 780l-266 -780h-91l-189 529h108l127 -374l235 713h195v-88h-119z" />
    <glyph glyph-name="infinity" unicode="&#x221e;" horiz-adv-x="801" 
d="M399 228q-46 -51 -88 -78.5t-92 -27.5q-38 0 -70 12.5t-55 35t-36 53.5t-13 67t13 67t36 53.5t55 35.5t70 13q50 0 95.5 -27t87.5 -80q45 53 87.5 80t92.5 27q38 0 70 -13t55 -35.5t36 -53.5t13 -67t-13 -67t-36 -53.5t-55 -35t-70 -12.5q-99 0 -183 106zM221 379
q-43 0 -68 -26t-25 -64t25 -63.5t68 -25.5q37 0 67.5 24.5t61.5 62.5q-32 39 -61.5 65.5t-67.5 26.5zM580 200q43 0 68 25.5t25 63.5t-25 64t-68 26q-38 0 -67 -25.5t-62 -63.5q32 -38 61.5 -64t67.5 -26z" />
    <glyph glyph-name="integral" unicode="&#x222b;" horiz-adv-x="310" 
d="M109 551q0 74 42 116t117 42h37v-86h-30q-33 0 -52.5 -19.5t-19.5 -59.5v-585q0 -74 -40.5 -116.5t-114.5 -42.5h-43v86h31q32 0 52.5 20.5t20.5 60.5v584z" />
    <glyph glyph-name="approxequal" unicode="&#x2248;" horiz-adv-x="569" 
d="M534 384q-28 -40 -65 -61.5t-81 -21.5q-48 0 -100 30l-47 26q-32 17 -62 17q-52 0 -91 -45l-53 47q29 42 65 63.5t78 21.5q26 0 50.5 -8t52.5 -23l46 -25q35 -20 70 -20q49 0 86 44zM534 190q-28 -40 -65 -61.5t-81 -21.5q-48 0 -100 30l-47 26q-32 17 -62 17
q-52 0 -91 -45l-53 47q29 42 65 63.5t78 21.5q26 0 50.5 -8t52.5 -23l46 -25q35 -20 70 -20q49 0 86 44z" />
    <glyph glyph-name="notequal" unicode="&#x2260;" horiz-adv-x="593" 
d="M246 151l-74 -100h-96l74 100h-85v79h143l85 116h-228v77h285l73 99h96l-73 -99h82v-77h-139l-85 -116h224v-79h-282z" />
    <glyph glyph-name="lessequal" unicode="&#x2264;" horiz-adv-x="542" 
d="M477 130v-79h-412v79h412zM65 389l412 146v-84l-307 -104l307 -104v-84l-412 145v85z" />
    <glyph glyph-name="greaterequal" unicode="&#x2265;" horiz-adv-x="542" 
d="M477 130v-79h-412v79h412zM477 304l-412 -145v84l307 104l-307 104v84l412 -146v-85z" />
    <glyph glyph-name="dotmath" unicode="&#x22c5;" horiz-adv-x="279" 
d="M70 284q0 29 20 49.5t49 20.5t49.5 -20.5t20.5 -49.5t-20.5 -49t-49.5 -20t-49 20t-20 49z" />
    <glyph glyph-name="uni24C5" unicode="&#x24c5;" horiz-adv-x="821" 
d="M123 355q0 -63 22 -117.5t61 -94t91 -62.5t112 -23t112 23t91 62.5t61 94t22 117.5t-22 117t-61 94t-91 62.5t-112 22.5t-112 -22.5t-91 -62.5t-61 -94t-22 -117zM45 355q0 76 28.5 143t78 117.5t115.5 79.5t142 29t143 -29t116.5 -79.5t78.5 -117.5t29 -143t-29 -143.5
t-78.5 -117.5t-116.5 -79.5t-143 -29.5t-142 29.5t-115.5 79.5t-78 117.5t-28.5 143.5zM433 367q34 0 53 17t19 45q0 29 -19 46.5t-53 17.5h-70v-126h70zM363 301v-144h-76v402h159q29 0 54 -10t43 -27.5t28.5 -41t10.5 -50.5t-10.5 -50.5t-28.5 -41t-43 -27.5t-54 -10h-83z
" />
    <glyph glyph-name="filledbox" unicode="&#x25a0;" horiz-adv-x="921" 
d="M110 709h701v-709h-701v709z" />
    <glyph glyph-name="H22073" unicode="&#x25a1;" horiz-adv-x="921" 
d="M110 0v709h701v-709h-701zM192 75h537v558h-537v-558z" />
    <glyph glyph-name="uni25AF" unicode="&#x25af;" horiz-adv-x="562" 
d="M80 709h402v-709h-402v709zM403 79v551h-244v-551h244z" />
    <glyph glyph-name="triagup" unicode="&#x25b2;" horiz-adv-x="837" 
d="M837 0h-837l420 724z" />
    <glyph glyph-name="uni25B3" unicode="&#x25b3;" horiz-adv-x="837" 
d="M837 0h-837l420 724zM419 561l-279 -486h556z" />
    <glyph glyph-name="lozenge" unicode="&#x25ca;" horiz-adv-x="556" 
d="M278 112l140 242l-140 243l-141 -243zM237 709h82l202 -355l-202 -354h-82l-202 354z" />
    <glyph glyph-name="circle" unicode="&#x25cb;" horiz-adv-x="831" 
d="M45 354q0 77 29 144.5t79 118t117.5 79.5t144.5 29t144.5 -29t118 -79.5t79.5 -118t29 -144.5t-29 -144.5t-79.5 -117.5t-118 -79t-144.5 -29t-144.5 29t-117.5 79t-79 117.5t-29 144.5zM129 354q0 -61 22 -114t61 -92.5t91 -62t112 -22.5t112 22.5t91 62t61 92.5t22 114
t-22 114t-61 92.5t-91 62t-112 22.5t-112 -22.5t-91 -62t-61 -92.5t-22 -114z" />
    <glyph glyph-name="H18533" unicode="&#x25cf;" horiz-adv-x="831" 
d="M45 354q0 77 29 144.5t79 118t117.5 79.5t144.5 29t144.5 -29t118 -79.5t79.5 -118t29 -144.5t-29 -144.5t-79.5 -117.5t-118 -79t-144.5 -29t-144.5 29t-117.5 79t-79 117.5t-29 144.5z" />
    <glyph glyph-name="uni262E" unicode="&#x262e;" horiz-adv-x="821" 
d="M776 355q0 -76 -29 -143.5t-78.5 -117.5t-116.5 -79.5t-143 -29.5t-142 29.5t-115.5 79.5t-78 117.5t-28.5 143.5t28.5 143t78 117.5t115.5 79.5t142 29t143 -29t116.5 -79.5t78.5 -117.5t29 -143zM695 355q0 57 -19 107.5t-52 89t-78 63.5t-97 33v-240l206 -207
q19 34 29.5 72.5t10.5 81.5zM123 355q0 -42 10 -80.5t29 -71.5l205 205v240q-53 -8 -97.5 -33t-77 -63.5t-51 -89t-18.5 -107.5zM449 61q45 6 84 25.5t71 49.5l-155 156v-231zM212 137q31 -31 70.5 -50.5t84.5 -25.5v231z" />
    <glyph glyph-name="uni2713" unicode="&#x2713;" horiz-adv-x="970" 
d="M307 -17l-282 315l60 57l226 -247l574 621l60 -59z" />
    <glyph glyph-name="uni2715" unicode="&#x2715;" horiz-adv-x="756" 
d="M378 295l-294 -300l-59 59l294 301l-293 300l60 59l292 -299l292 299l60 -59l-294 -300l295 -301l-59 -59z" />
    <glyph glyph-name="uni2780" unicode="&#x2780;" horiz-adv-x="821" 
d="M123 355q0 -63 22 -117.5t61 -94t91 -62.5t112 -23t112 23t91 62.5t61 94t22 117.5t-22 117t-61 94t-91 62.5t-112 22.5t-112 -22.5t-91 -62.5t-61 -94t-22 -117zM45 355q0 76 28.5 143t78 117.5t115.5 79.5t142 29t143 -29t116.5 -79.5t78.5 -117.5t29 -143t-29 -143.5
t-78.5 -117.5t-116.5 -79.5t-143 -29.5t-142 29.5t-115.5 79.5t-78 117.5t-28.5 143.5zM385 173v245h-86v52q37 1 62 20.5t30 47.5h71v-365h-77z" />
    <glyph glyph-name="uni2781" unicode="&#x2781;" horiz-adv-x="821" 
d="M123 355q0 -63 22 -117.5t61 -94t91 -62.5t112 -23t112 23t91 62.5t61 94t22 117.5t-22 117t-61 94t-91 62.5t-112 22.5t-112 -22.5t-91 -62.5t-61 -94t-22 -117zM45 355q0 76 28.5 143t78 117.5t115.5 79.5t142 29t143 -29t116.5 -79.5t78.5 -117.5t29 -143t-29 -143.5
t-78.5 -117.5t-116.5 -79.5t-143 -29.5t-142 29.5t-115.5 79.5t-78 117.5t-28.5 143.5zM276 402q-2 8 -2.5 16.5t-0.5 14.5q0 24 9 45t26 37t41.5 25.5t55.5 9.5t55 -9.5t41 -25t26 -36.5t9 -44q0 -35 -19 -62.5t-51 -47.5l-72 -45q-11 -8 -20 -17t-11 -20h175v-65h-268v13
q0 45 20 81.5t65 63.5l60 37q43 26 43 63q0 20 -14 35t-40 15t-41.5 -16t-15.5 -42q0 -3 0.5 -11t2.5 -15h-74z" />
    <glyph glyph-name="uni2782" unicode="&#x2782;" horiz-adv-x="821" 
d="M45 355q0 76 28.5 143t78 117.5t115.5 79.5t142 29t143 -29t116.5 -79.5t78.5 -117.5t29 -143t-29 -143.5t-78.5 -117.5t-116.5 -79.5t-143 -29.5t-142 29.5t-115.5 79.5t-78 117.5t-28.5 143.5zM123 355q0 -63 22 -117.5t61 -94t91 -62.5t112 -23t112 23t91 62.5t61 94
t22 117.5t-22 117t-61 94t-91 62.5t-112 22.5t-112 -22.5t-91 -62.5t-61 -94t-22 -117zM345 393l95 79h-171v65h271v-63l-100 -80q21 -2 40.5 -9.5t34.5 -21t24 -33.5t9 -45t-10.5 -47t-29.5 -38.5t-45.5 -26t-59.5 -9.5t-58 9t-43.5 23t-30 32.5t-15.5 38.5l67 27
q5 -29 26.5 -46.5t52.5 -17.5t49.5 16t18.5 39q0 31 -21.5 43.5t-46.5 12.5q-8 0 -15.5 -1t-12.5 -3z" />
    <glyph glyph-name="uni2783" unicode="&#x2783;" horiz-adv-x="821" 
d="M123 355q0 -63 22 -117.5t61 -94t91 -62.5t112 -23t112 23t91 62.5t61 94t22 117.5t-22 117t-61 94t-91 62.5t-112 22.5t-112 -22.5t-91 -62.5t-61 -94t-22 -117zM45 355q0 76 28.5 143t78 117.5t115.5 79.5t142 29t143 -29t116.5 -79.5t78.5 -117.5t29 -143t-29 -143.5
t-78.5 -117.5t-116.5 -79.5t-143 -29.5t-142 29.5t-115.5 79.5t-78 117.5t-28.5 143.5zM235 323l177 220h85v-228h64v-65h-64v-72h-77v72h-185v73zM420 454l-111 -139h111v139z" />
    <glyph glyph-name="uni2784" unicode="&#x2784;" horiz-adv-x="821" 
d="M123 355q0 -63 22 -117.5t61 -94t91 -62.5t112 -23t112 23t91 62.5t61 94t22 117.5t-22 117t-61 94t-91 62.5t-112 22.5t-112 -22.5t-91 -62.5t-61 -94t-22 -117zM45 355q0 76 28.5 143t78 117.5t115.5 79.5t142 29t143 -29t116.5 -79.5t78.5 -117.5t29 -143t-29 -143.5
t-78.5 -117.5t-116.5 -79.5t-143 -29.5t-142 29.5t-115.5 79.5t-78 117.5t-28.5 143.5zM323 285q7 -26 26.5 -41.5t46.5 -15.5q29 0 48 16t19 45q0 31 -19 46.5t-48 15.5q-20 0 -36 -7.5t-28 -19.5l-64 24l49 187h204v-66h-154l-23 -86q14 15 33.5 21.5t39.5 6.5
q56 0 90 -32t34 -87q0 -27 -9.5 -50.5t-28 -41t-45.5 -27.5t-62 -10q-27 0 -50.5 8t-41.5 20.5t-30 29t-17 34.5z" />
    <glyph glyph-name="uni2785" unicode="&#x2785;" horiz-adv-x="821" 
d="M123 355q0 -63 22 -117.5t61 -94t91 -62.5t112 -23t112 23t91 62.5t61 94t22 117.5t-22 117t-61 94t-91 62.5t-112 22.5t-112 -22.5t-91 -62.5t-61 -94t-22 -117zM45 355q0 76 28.5 143t78 117.5t115.5 79.5t142 29t143 -29t116.5 -79.5t78.5 -117.5t29 -143t-29 -143.5
t-78.5 -117.5t-116.5 -79.5t-143 -29.5t-142 29.5t-115.5 79.5t-78 117.5t-28.5 143.5zM510 470q-29 13 -62 13q-48 0 -81.5 -26.5t-41.5 -78.5q13 19 38 31t53 12q58 0 94 -33t36 -93q0 -29 -11.5 -52.5t-31 -40.5t-46.5 -26.5t-58 -9.5q-28 0 -55 10t-48.5 30.5t-34.5 52
t-13 74.5q0 49 14.5 88t40.5 67t61.5 43t77.5 15q25 0 48 -5t38 -14zM331 294q0 -31 21.5 -47t47.5 -16t47 16t21 47t-21 47t-47 16t-47.5 -16t-21.5 -47z" />
    <glyph glyph-name="uni2786" unicode="&#x2786;" horiz-adv-x="821" 
d="M123 355q0 -63 22 -117.5t61 -94t91 -62.5t112 -23t112 23t91 62.5t61 94t22 117.5t-22 117t-61 94t-91 62.5t-112 22.5t-112 -22.5t-91 -62.5t-61 -94t-22 -117zM45 355q0 76 28.5 143t78 117.5t115.5 79.5t142 29t143 -29t116.5 -79.5t78.5 -117.5t29 -143t-29 -143.5
t-78.5 -117.5t-116.5 -79.5t-143 -29.5t-142 29.5t-115.5 79.5t-78 117.5t-28.5 143.5zM559 464q-13 -9 -36 -30t-47 -56.5t-44 -87t-27 -122.5h-82q7 75 29 130.5t46 93.5q28 44 61 75h-197v66h297v-69z" />
    <glyph glyph-name="uni2787" unicode="&#x2787;" horiz-adv-x="821" 
d="M123 355q0 -63 22 -117.5t61 -94t91 -62.5t112 -23t112 23t91 62.5t61 94t22 117.5t-22 117t-61 94t-91 62.5t-112 22.5t-112 -22.5t-91 -62.5t-61 -94t-22 -117zM45 355q0 76 28.5 143t78 117.5t115.5 79.5t142 29t143 -29t116.5 -79.5t78.5 -117.5t29 -143t-29 -143.5
t-78.5 -117.5t-116.5 -79.5t-143 -29.5t-142 29.5t-115.5 79.5t-78 117.5t-28.5 143.5zM408 390q26 0 41.5 13t15.5 35q0 20 -15 32.5t-42 12.5t-42 -12.5t-15 -32.5q0 -22 15.5 -35t41.5 -13zM408 230q33 0 50 13.5t17 36.5q0 22 -17.5 36t-49.5 14t-49.5 -14t-17.5 -36
q0 -23 17 -36.5t50 -13.5zM408 166q-70 0 -107.5 31t-37.5 77q0 27 18 50.5t50 35.5q-27 11 -41.5 33t-14.5 47q0 47 37.5 76t95.5 29t95.5 -29t37.5 -76q0 -25 -14.5 -47t-41.5 -33q32 -12 50 -35.5t18 -50.5q0 -46 -37.5 -77t-107.5 -31z" />
    <glyph glyph-name="uni2788" unicode="&#x2788;" horiz-adv-x="821" 
d="M123 355q0 -63 22 -117.5t61 -94t91 -62.5t112 -23t112 23t91 62.5t61 94t22 117.5t-22 117t-61 94t-91 62.5t-112 22.5t-112 -22.5t-91 -62.5t-61 -94t-22 -117zM45 355q0 76 28.5 143t78 117.5t115.5 79.5t142 29t143 -29t116.5 -79.5t78.5 -117.5t29 -143t-29 -143.5
t-78.5 -117.5t-116.5 -79.5t-143 -29.5t-142 29.5t-115.5 79.5t-78 117.5t-28.5 143.5zM299 242q29 -13 62 -13q48 0 82.5 24.5t40.5 78.5q-13 -19 -38 -31t-53 -12q-57 0 -93.5 33.5t-36.5 92.5q0 28 11.5 52t31 41t46.5 26.5t58 9.5q28 0 54.5 -10t47.5 -30.5t34 -52
t13 -74.5q0 -52 -14.5 -91.5t-40 -66.5t-60.5 -41t-77 -14q-25 0 -48 5t-38 14zM476 415q0 31 -21 47.5t-48 16.5t-47.5 -16.5t-20.5 -47.5t20.5 -47.5t47.5 -16.5t48 16.5t21 47.5z" />
    <glyph glyph-name="uniE000" unicode="&#xe000;" horiz-adv-x="814" 
d="M35 205h144v504h580v-83h-497v-421h144l-185 -221z" />
    <glyph glyph-name="uniE002" unicode="&#xe002;" horiz-adv-x="949" 
d="M740 564l179 -210h-130q0 -77 -29 -144t-79 -117t-117.5 -79t-144.5 -29t-144 29t-117 79t-79 117t-29 144t29 144.5t79 117.5t117 79t144 29q50 0 95.5 -12t86.5 -35l-37 -74q-32 18 -68.5 28t-75.5 10q-60 0 -112 -22.5t-91 -61t-61 -91t-22 -112.5t22 -112.5t61 -91.5
t91 -61.5t112 -22.5t112 22.5t90.5 61.5t60.5 91.5t22 112.5h-144z" />
    <glyph glyph-name="uniE021" unicode="&#xe021;" horiz-adv-x="1080" 
d="M45 355h131q0 76 29.5 143.5t79.5 117.5t117 79t143 29q50 0 95.5 -12t86.5 -35l-37 -74q-32 18 -68.5 28t-75.5 10q-60 0 -112 -22.5t-91 -61t-61 -90.5t-22 -112h143l-179 -210zM914 354q0 -77 -29.5 -144t-79.5 -117t-117 -79t-143 -29q-50 0 -95.5 12t-86.5 35l37 74
q32 -18 68.5 -28t75.5 -10q60 0 112 22.5t91 61t61 90.5t22 112h-138l179 210l179 -210h-136z" />
    <glyph glyph-name="uniFB00" unicode="&#xfb00;" horiz-adv-x="659" 
d="M598 639q-12 0 -25.5 -3.5t-25 -12.5t-18.5 -25t-7 -41v-76h116v-85h-116v-396h-97v396h-219v-396h-97v396h-89v85h89v81q0 40 12.5 71t34 52t50 31.5t61.5 10.5q24 0 38.5 -4t17.5 -6v-84q-4 2 -13.5 4t-27.5 2q-12 0 -25.5 -3.5t-25 -12.5t-18.5 -25t-7 -41v-76h219v81
q0 40 12.5 71t34 52t50 31.5t61.5 10.5q24 0 38.5 -4t17.5 -6v-84q-4 2 -13.5 4t-27.5 2z" />
    <glyph glyph-name="fi" unicode="&#xfb01;" horiz-adv-x="604" 
d="M267 727q24 0 38.5 -4t17.5 -6v-84q-4 2 -13.5 4t-27.5 2q-12 0 -25.5 -3.5t-25 -12.5t-18.5 -24.5t-7 -40.5v-77h318v-481h-93v396h-225v-396h-97v396h-89v85h89v81q0 40 12.5 71t34 52t50 31.5t61.5 10.5zM410 665q0 29 19.5 48.5t47.5 19.5q29 0 48.5 -19.5
t19.5 -48.5q0 -28 -19.5 -47.5t-48.5 -19.5q-28 0 -47.5 19.5t-19.5 47.5z" />
    <glyph glyph-name="fl" unicode="&#xfb02;" horiz-adv-x="602" 
d="M282 639q-12 0 -25.5 -3.5t-25 -12.5t-18.5 -25t-7 -41v-76h222v243h94v-724h-94v396h-222v-396h-97v396h-89v85h89v81q0 40 12.5 71t34 52t50 31.5t61.5 10.5q24 0 38.5 -4t17.5 -6v-84q-4 2 -13.5 4t-27.5 2z" />
    <glyph glyph-name="uniFB03" unicode="&#xfb03;" horiz-adv-x="920" 
d="M109 562q0 40 12.5 71t34 52t50 31.5t61.5 10.5q24 0 38.5 -4t17.5 -6v-84q-4 2 -13.5 4t-27.5 2q-12 0 -25.5 -3.5t-25 -12.5t-18.5 -25t-7 -41v-76h219v81q0 40 12.5 71t34 52t50 31.5t61.5 10.5q24 0 38.5 -4t17.5 -6v-84q-4 2 -13.5 4t-27.5 2q-12 0 -25.5 -3.5
t-25 -12.5t-18.5 -25t-7 -41v-76h318v-481h-93v396h-225v-396h-97v396h-219v-396h-97v396h-89v85h89v81zM726 665q0 29 19.5 48.5t47.5 19.5q29 0 48.5 -19.5t19.5 -48.5q0 -28 -19.5 -47.5t-48.5 -19.5q-28 0 -47.5 19.5t-19.5 47.5z" />
    <glyph glyph-name="uniFB04" unicode="&#xfb04;" horiz-adv-x="920" 
d="M109 562q0 40 12.5 71t34 52t50 31.5t61.5 10.5q24 0 38.5 -4t17.5 -6v-84q-4 2 -13.5 4t-27.5 2q-12 0 -25.5 -3.5t-25 -12.5t-18.5 -25t-7 -41v-76h219v81q0 40 12.5 71t34 52t50 31.5t61.5 10.5q24 0 38.5 -4t17.5 -6v-84q-4 2 -13.5 4t-27.5 2q-12 0 -25.5 -3.5
t-25 -12.5t-18.5 -25t-7 -41v-76h225v243h93v-724h-93v396h-225v-396h-97v396h-219v-396h-97v396h-89v85h89v81z" />
    <glyph glyph-name="uniFEFF" unicode="&#xfeff;" horiz-adv-x="0" 
 />
    <glyph glyph-name="i.latn_TRK" horiz-adv-x="253" 
d="M80 0v481h93v-481h-93zM59 663q0 29 19.5 48.5t47.5 19.5q29 0 48.5 -19.5t19.5 -48.5q0 -28 -19.5 -47.5t-48.5 -19.5q-28 0 -47.5 19.5t-19.5 47.5z" />
    <glyph glyph-name="Ldot.latn_CAT" horiz-adv-x="548" 
d="M90 0v709h98v-617h335v-92h-433z" />
    <glyph glyph-name="ldot.latn_CAT" horiz-adv-x="372" 
d="M80 0v724h94v-724h-94zM233 313q0 26 18 44t44 18t44 -18t18 -44t-18 -44t-44 -18t-44 18t-18 44z" />
    <glyph glyph-name="zero.numr" horiz-adv-x="426" 
d="M138 465q0 -20 2.5 -42t10.5 -40t22.5 -29.5t39.5 -11.5t39.5 11.5t22.5 29.5t10.5 40t2.5 42t-2.5 42t-10.5 40t-22.5 30t-39.5 12t-39.5 -11.5t-22.5 -29.5t-10.5 -40t-2.5 -43zM60 465q0 36 7.5 70.5t27.5 61.5q17 23 44.5 40.5t73.5 17.5t73.5 -17.5t44.5 -40.5
q20 -27 27.5 -61.5t7.5 -70.5t-7.5 -70t-27.5 -61q-17 -23 -44.5 -40.5t-73.5 -17.5t-73.5 17.5t-44.5 40.5q-20 27 -27.5 61t-7.5 70z" />
    <glyph glyph-name="one.numr" horiz-adv-x="303" 
d="M136 283v245h-86v52q37 1 62 20.5t30 47.5h71v-365h-77z" />
    <glyph glyph-name="two.numr" horiz-adv-x="389" 
d="M67 507q-2 8 -2.5 16.5t-0.5 14.5q0 24 9 45t26 37t41.5 25.5t55.5 9.5t55 -9.5t41 -25t26 -36.5t9 -44q0 -35 -19 -62.5t-51 -47.5l-72 -45q-11 -8 -20 -17t-11 -20h175v-65h-268v13q0 45 20 81.5t65 63.5l60 37q43 26 43 63q0 20 -14 35t-40 15t-41.5 -16t-15.5 -42
q0 -3 0.5 -11t2.5 -15h-74z" />
    <glyph glyph-name="three.numr" horiz-adv-x="412" 
d="M149 504l95 79h-171v65h271v-63l-100 -80q21 -2 40.5 -9.5t34.5 -21t24 -33.5t9 -45t-10.5 -47t-29.5 -38.5t-45.5 -26t-59.5 -9.5t-58 9t-43.5 23t-30 32.5t-15.5 38.5l67 27q5 -29 26.5 -46.5t52.5 -17.5t49.5 16t18.5 39q0 31 -21.5 43.5t-46.5 12.5q-8 0 -15.5 -1
t-12.5 -3z" />
    <glyph glyph-name="four.numr" horiz-adv-x="446" 
d="M60 428l177 220h85v-228h64v-65h-64v-72h-77v72h-185v73zM245 559l-111 -139h111v139z" />
    <glyph glyph-name="five.numr" horiz-adv-x="379" 
d="M126 398q7 -26 26.5 -41.5t46.5 -15.5q29 0 48 16t19 45q0 31 -19 46.5t-48 15.5q-20 0 -36 -7.5t-28 -19.5l-64 24l49 187h204v-66h-154l-23 -86q14 15 33.5 21.5t39.5 6.5q56 0 90 -32t34 -87q0 -27 -9.5 -50.5t-28 -41t-45.5 -27.5t-62 -10q-27 0 -50.5 8t-41.5 20.5
t-30 29t-17 34.5z" />
    <glyph glyph-name="six.numr" horiz-adv-x="418" 
d="M322 580q-29 13 -62 13q-48 0 -81.5 -26.5t-41.5 -78.5q13 19 38 31t53 12q58 0 94 -33t36 -93q0 -29 -11.5 -52.5t-31 -40.5t-46.5 -26.5t-58 -9.5q-28 0 -55 10t-48.5 30.5t-34.5 52t-13 74.5q0 49 14.5 88t40.5 67t61.5 43t77.5 15q25 0 48 -5t38 -14zM143 404
q0 -31 21.5 -47t47.5 -16t47 16t21 47t-21 47t-47 16t-47.5 -16t-21.5 -47z" />
    <glyph glyph-name="seven.numr" horiz-adv-x="417" 
d="M357 579q-13 -9 -36 -30t-47 -56.5t-44 -87t-27 -122.5h-82q7 75 29 130.5t46 93.5q28 44 61 75h-197v66h297v-69z" />
    <glyph glyph-name="eight.numr" horiz-adv-x="410" 
d="M205 500q26 0 41.5 13t15.5 35q0 20 -15 32.5t-42 12.5t-42 -12.5t-15 -32.5q0 -22 15.5 -35t41.5 -13zM205 340q33 0 50 13.5t17 36.5q0 22 -17.5 36t-49.5 14t-49.5 -14t-17.5 -36q0 -23 17 -36.5t50 -13.5zM205 276q-70 0 -107.5 31t-37.5 77q0 27 18 50.5t50 35.5
q-27 11 -41.5 33t-14.5 47q0 47 37.5 76t95.5 29t95.5 -29t37.5 -76q0 -25 -14.5 -47t-41.5 -33q32 -12 50 -35.5t18 -50.5q0 -46 -37.5 -77t-107.5 -31z" />
    <glyph glyph-name="nine.numr" horiz-adv-x="416" 
d="M96 352q29 -13 62 -13q48 0 82.5 24.5t40.5 78.5q-13 -19 -38 -31t-53 -12q-57 0 -93.5 33.5t-36.5 92.5q0 28 11.5 52t31 41t46.5 26.5t58 9.5q28 0 54.5 -10t47.5 -30.5t34 -52t13 -74.5q0 -52 -14.5 -91.5t-40 -66.5t-60.5 -41t-77 -14q-25 0 -48 5t-38 14zM273 525
q0 31 -21 47.5t-48 16.5t-47.5 -16.5t-20.5 -47.5t20.5 -47.5t47.5 -16.5t48 16.5t21 47.5z" />
    <glyph glyph-name="zero.dnom" horiz-adv-x="426" 
d="M138 183q0 -20 2.5 -42t10.5 -40t22.5 -29.5t39.5 -11.5t39.5 11.5t22.5 29.5t10.5 40t2.5 42t-2.5 42t-10.5 40t-22.5 30t-39.5 12t-39.5 -11.5t-22.5 -29.5t-10.5 -40t-2.5 -43zM60 183q0 36 7.5 70.5t27.5 61.5q17 23 44.5 40.5t73.5 17.5t73.5 -17.5t44.5 -40.5
q20 -27 27.5 -61.5t7.5 -70.5t-7.5 -70t-27.5 -61q-17 -23 -44.5 -40.5t-73.5 -17.5t-73.5 17.5t-44.5 40.5q-20 27 -27.5 61t-7.5 70z" />
    <glyph glyph-name="one.dnom" horiz-adv-x="303" 
d="M136 1v245h-86v52q37 1 62 20.5t30 47.5h71v-365h-77z" />
    <glyph glyph-name="two.dnom" horiz-adv-x="389" 
d="M67 225q-2 8 -2.5 16.5t-0.5 14.5q0 24 9 45t26 37t41.5 25.5t55.5 9.5t55 -9.5t41 -25t26 -36.5t9 -44q0 -35 -19 -62.5t-51 -47.5l-72 -45q-11 -8 -20 -17t-11 -20h175v-65h-268v13q0 45 20 81.5t65 63.5l60 37q43 26 43 63q0 20 -14 35t-40 15t-41.5 -16t-15.5 -42
q0 -3 0.5 -11t2.5 -15h-74z" />
    <glyph glyph-name="three.dnom" horiz-adv-x="412" 
d="M149 223l95 79h-171v65h271v-63l-100 -80q21 -2 40.5 -9.5t34.5 -21t24 -33.5t9 -45t-10.5 -47t-29.5 -38.5t-45.5 -26t-59.5 -9.5t-58 9t-43.5 23t-30 32.5t-15.5 38.5l67 27q5 -29 26.5 -46.5t52.5 -17.5t49.5 16t18.5 39q0 31 -21.5 43.5t-46.5 12.5q-8 0 -15.5 -1
t-12.5 -3z" />
    <glyph glyph-name="four.dnom" horiz-adv-x="446" 
d="M60 146l177 220h85v-228h64v-65h-64v-72h-77v72h-185v73zM245 277l-111 -139h111v139z" />
    <glyph glyph-name="five.dnom" horiz-adv-x="404" 
d="M126 116q7 -26 26.5 -41.5t46.5 -15.5q29 0 48 16t19 45q0 31 -19 46.5t-48 15.5q-20 0 -36 -7.5t-28 -19.5l-64 24l49 187h204v-66h-154l-23 -86q14 15 33.5 21.5t39.5 6.5q56 0 90 -32t34 -87q0 -27 -9.5 -50.5t-28 -41t-45.5 -27.5t-62 -10q-27 0 -50.5 8t-41.5 20.5
t-30 29t-17 34.5z" />
    <glyph glyph-name="six.dnom" horiz-adv-x="418" 
d="M322 298q-29 13 -62 13q-48 0 -81.5 -26.5t-41.5 -78.5q13 19 38 31t53 12q58 0 94 -33t36 -93q0 -29 -11.5 -52.5t-31 -40.5t-46.5 -26.5t-58 -9.5q-28 0 -55 10t-48.5 30.5t-34.5 52t-13 74.5q0 49 14.5 88t40.5 67t61.5 43t77.5 15q25 0 48 -5t38 -14zM143 122
q0 -31 21.5 -47t47.5 -16t47 16t21 47t-21 47t-47 16t-47.5 -16t-21.5 -47z" />
    <glyph glyph-name="seven.dnom" horiz-adv-x="417" 
d="M357 297q-13 -9 -36 -30t-47 -56.5t-44 -87t-27 -122.5h-82q7 75 29 130.5t46 93.5q28 44 61 75h-197v66h297v-69z" />
    <glyph glyph-name="eight.dnom" horiz-adv-x="410" 
d="M205 218q26 0 41.5 13t15.5 35q0 20 -15 32.5t-42 12.5t-42 -12.5t-15 -32.5q0 -22 15.5 -35t41.5 -13zM205 58q33 0 50 13.5t17 36.5q0 22 -17.5 36t-49.5 14t-49.5 -14t-17.5 -36q0 -23 17 -36.5t50 -13.5zM205 -6q-70 0 -107.5 31t-37.5 77q0 27 18 50.5t50 35.5
q-27 11 -41.5 33t-14.5 47q0 47 37.5 76t95.5 29t95.5 -29t37.5 -76q0 -25 -14.5 -47t-41.5 -33q32 -12 50 -35.5t18 -50.5q0 -46 -37.5 -77t-107.5 -31z" />
    <glyph glyph-name="nine.dnom" horiz-adv-x="416" 
d="M96 72q29 -13 62 -13q48 0 82.5 24.5t40.5 78.5q-13 -19 -38 -31t-53 -12q-57 0 -93.5 33.5t-36.5 92.5q0 28 11.5 52t31 41t46.5 26.5t58 9.5q28 0 54.5 -10t47.5 -30.5t34 -52t13 -74.5q0 -52 -14.5 -91.5t-40 -66.5t-60.5 -41t-77 -14q-25 0 -48 5t-38 14zM273 245
q0 31 -21 47.5t-48 16.5t-47.5 -16.5t-20.5 -47.5t20.5 -47.5t47.5 -16.5t48 16.5t21 47.5z" />
    <glyph glyph-name="space.frac" horiz-adv-x="50" 
 />
    <glyph glyph-name="a.ordn" horiz-adv-x="428" 
d="M66 401q0 45 30 71t73 32l88 12q15 2 20.5 9t5.5 16q0 23 -16 39.5t-52 16.5q-33 0 -51.5 -18.5t-21.5 -46.5l-69 16q2 23 13 43t29.5 35t43.5 24t55 9q39 0 66 -10.5t44.5 -27.5t25 -40t7.5 -48v-169q0 -17 1.5 -34.5t2.5 -20.5h-71q-2 6 -3 17t-1 27q-11 -19 -37 -36.5
t-68 -17.5q-27 0 -48 8.5t-36 22.5t-23 32.5t-8 38.5zM193 359q18 0 34.5 4.5t29 15.5t19.5 29t7 44v15l-95 -15q-20 -3 -33.5 -14t-13.5 -33q0 -18 13.5 -32t38.5 -14z" />
    <glyph glyph-name="b.ordn" horiz-adv-x="494" 
d="M88 309v507h74v-212q11 21 39.5 37.5t69.5 16.5q38 0 67.5 -14t49 -38t29.5 -56.5t10 -69.5q0 -38 -11 -71t-31 -57t-50 -38t-67 -14t-64 15t-43 41v-47h-73zM351 480q0 53 -26 82t-68 29t-69 -29t-27 -82t27 -83t69 -30t68 30t26 83z" />
    <glyph glyph-name="c.ordn" horiz-adv-x="462" 
d="M239 590q-19 0 -36.5 -7.5t-31 -21.5t-21.5 -34.5t-8 -47.5q0 -54 29.5 -82.5t68.5 -28.5q21 0 36.5 6.5t26 16t17 21t9.5 21.5l67 -26q-6 -19 -19 -38.5t-32 -35t-45.5 -25t-59.5 -9.5q-37 0 -68.5 13.5t-55 37.5t-36.5 57t-13 72t13 72t36 57t54.5 37.5t68.5 13.5
q34 0 60.5 -10t45.5 -25.5t31 -35.5t17 -40l-67 -26q-3 12 -9.5 24t-17 22t-25.5 16t-35 6z" />
    <glyph glyph-name="d.ordn" horiz-adv-x="495" 
d="M143 480q0 -51 25 -82.5t69 -31.5q42 0 67.5 32t25.5 82q0 51 -25.5 80.5t-67.5 29.5t-68 -30t-26 -80zM403 371q0 -20 1 -38.5t2 -23.5h-72q-1 6 -2.5 18.5t-1.5 27.5q-11 -21 -37 -38t-64 -17q-37 0 -67 14t-51 38t-32.5 57t-11.5 71q0 36 11.5 68t33 56.5t51 38.5
t65.5 14q45 0 69 -16.5t32 -35.5v211h74v-445z" />
    <glyph glyph-name="e.ordn" horiz-adv-x="461" 
d="M318 515q-1 32 -23 56t-64 24q-20 0 -35.5 -7t-26.5 -18.5t-17.5 -25.5t-7.5 -29h174zM391 406q-14 -45 -53 -76t-100 -31q-34 0 -65 12t-55 35.5t-38 57t-14 76.5q0 40 14 73.5t36.5 56.5t52 36t61.5 13q78 0 121.5 -48.5t43.5 -128.5q0 -10 -1 -16.5t-1 -7.5h-251
q1 -41 29 -67.5t67 -26.5t59.5 18t29.5 45z" />
    <glyph glyph-name="f.ordn" horiz-adv-x="350" 
d="M203 582v-274h-76v274h-61v67h61v50q0 58 32.5 89t83.5 31q16 0 27 -2.5t14 -4.5v-65q-5 2 -11 3t-18 1q-8 0 -17.5 -2.5t-17 -8.5t-12.5 -16.5t-5 -27.5v-47h80v-67h-80z" />
    <glyph glyph-name="g.ordn" horiz-adv-x="465" 
d="M138 308q4 -33 27.5 -55t60.5 -22q99 0 99 105v40q-11 -21 -37 -36t-64 -15q-34 0 -62.5 12.5t-49.5 34t-32.5 52t-11.5 66.5q0 34 11.5 64t32 52.5t49 35.5t63.5 13q40 0 65.5 -14t36.5 -37v44h73v-310q0 -33 -9 -64t-29.5 -55t-53 -38.5t-80.5 -14.5q-33 0 -61 9.5
t-49 26.5t-34 40t-16 49zM236 388q41 0 66 27.5t25 74.5q0 45 -25.5 72.5t-65.5 27.5q-41 0 -66.5 -27.5t-25.5 -72.5q0 -48 25 -75t67 -27z" />
    <glyph glyph-name="h.ordn" horiz-adv-x="473" 
d="M163 309h-75v507h75v-203q18 24 44.5 34.5t54.5 10.5q31 0 54 -10.5t38.5 -28.5t23 -42.5t7.5 -52.5v-215h-75v202q0 33 -16 56t-58 23q-35 0 -53.5 -23.5t-19.5 -58.5v-199z" />
    <glyph glyph-name="i.ordn" horiz-adv-x="278" 
d="M102 309v339h74v-339h-74zM89 771q0 21 14.5 36t35.5 15t35.5 -15t14.5 -36t-14.5 -35.5t-35.5 -14.5t-35.5 14.5t-14.5 35.5z" />
    <glyph glyph-name="j.ordn" horiz-adv-x="297" 
d="M137 648h75v-375q0 -48 -26 -77.5t-72 -29.5q-19 0 -30.5 2t-13.5 3v62q5 -1 10 -1.5t13 -0.5q25 0 34.5 12.5t9.5 34.5v370zM124 772q0 21 14.5 36t35.5 15t35.5 -15t14.5 -36t-14.5 -35.5t-35.5 -14.5t-35.5 14.5t-14.5 35.5z" />
    <glyph glyph-name="k.ordn" horiz-adv-x="430" 
d="M259 505l144 -196h-93l-104 143l-44 -45v-98h-74v507h74v-310l137 142h101z" />
    <glyph glyph-name="l.ordn" horiz-adv-x="251" 
d="M88 309v507h75v-507h-75z" />
    <glyph glyph-name="m.ordn" horiz-adv-x="681" 
d="M88 309v339h71v-44q16 27 44.5 40.5t57.5 13.5q33 0 60.5 -15t40.5 -46q21 35 50 48t62 13q22 0 43.5 -7.5t38.5 -23.5t27 -40.5t10 -57.5v-220h-73v209q0 32 -16.5 52.5t-51.5 20.5q-33 0 -53.5 -22.5t-20.5 -56.5v-203h-74v209q0 32 -16 52.5t-52 20.5q-34 0 -54 -22.5
t-20 -57.5v-202h-74z" />
    <glyph glyph-name="n.ordn" horiz-adv-x="473" 
d="M163 309h-75v339h73v-46q17 29 45 42.5t57 13.5q31 0 54 -10.5t38 -28.5t22.5 -42.5t7.5 -52.5v-215h-75v202q0 33 -16 56t-58 23q-35 0 -54 -25t-19 -60v-196z" />
    <glyph glyph-name="o.ordn" horiz-adv-x="484" 
d="M242 366q39 0 69 28.5t30 84.5t-30 84t-69 28q-40 0 -70 -28t-30 -84t30 -84.5t70 -28.5zM242 659q38 0 70 -13.5t55.5 -37.5t36.5 -57t13 -72t-13 -72t-36.5 -57t-55.5 -37.5t-70 -13.5t-70.5 13.5t-55.5 37.5t-36 57t-13 72t13 72t36 57t55.5 37.5t70.5 13.5z" />
    <glyph glyph-name="p.ordn" horiz-adv-x="494" 
d="M88 176v472h73v-49q12 23 40.5 40t69.5 17q37 0 66.5 -13.5t49 -37.5t30 -56.5t10.5 -69.5q0 -38 -11 -70.5t-31.5 -56.5t-50 -38t-66.5 -14q-38 0 -65 15t-41 35v-174h-74zM352 479q0 49 -26 80t-69 31q-42 0 -69 -31t-27 -80q0 -50 27 -81t69 -31t68.5 30.5t26.5 81.5z
" />
    <glyph glyph-name="q.ordn" horiz-adv-x="477" 
d="M331 176v176q-13 -23 -39.5 -37.5t-62.5 -14.5t-66 14t-51.5 38.5t-33 57t-11.5 70.5q0 36 11 68t32 56.5t50.5 38.5t66.5 14q45 0 70.5 -18.5t35.5 -38.5v48h72v-472h-74zM143 480q0 -51 26 -82.5t68 -31.5t68.5 31.5t26.5 82.5q0 50 -26.5 80t-68.5 30t-68 -30t-26 -80
z" />
    <glyph glyph-name="r.ordn" horiz-adv-x="288" 
d="M266 573q-15 3 -29 3q-39 0 -64.5 -23t-25.5 -79v-165h-75v339h73v-56q17 37 45.5 49t52.5 12q6 0 12 -0.5t11 -1.5v-78z" />
    <glyph glyph-name="s.ordn" horiz-adv-x="401" 
d="M134 420q2 -25 20.5 -43t51.5 -18q26 0 40 12.5t14 29.5q0 31 -41 40l-54 12q-42 9 -65 35.5t-23 61.5q0 22 9.5 42t26 35t39 23.5t48.5 8.5q35 0 59 -10t39 -24.5t22.5 -31t9.5 -28.5l-64 -20q-1 7 -5 16t-11.5 17.5t-19.5 14t-30 5.5q-23 0 -37.5 -12.5t-14.5 -28.5
q0 -15 9.5 -24.5t26.5 -13.5l53 -11q48 -11 72 -37.5t24 -64.5q0 -19 -8 -38t-23.5 -34.5t-39.5 -25t-56 -9.5q-36 0 -61.5 10.5t-42 25.5t-25 32.5t-10.5 32.5z" />
    <glyph glyph-name="t.ordn" horiz-adv-x="324" 
d="M193 648h72v-67h-72v-165q0 -23 10.5 -33.5t34.5 -10.5q13 0 27 3v-63q-4 -2 -17.5 -4.5t-30.5 -2.5q-45 0 -72 26t-27 73v177h-63v67h18q27 0 39.5 15t12.5 38v52h68v-105z" />
    <glyph glyph-name="u.ordn" horiz-adv-x="440" 
d="M293 349q-14 -26 -41.5 -38t-56.5 -12q-30 0 -54 10.5t-40.5 29t-25 43t-8.5 52.5v214h75v-201q0 -33 17 -57t55 -24q37 0 56 22.5t19 57.5v202h75v-277q0 -21 1.5 -39.5t2.5 -22.5h-72q-2 6 -2.5 18t-0.5 22z" />
    <glyph glyph-name="v.ordn" horiz-adv-x="404" 
d="M240 309h-75l-138 339h83l93 -250l91 250h80z" />
    <glyph glyph-name="w.ordn" horiz-adv-x="603" 
d="M340 648l84 -242l70 242h77l-109 -339h-76l-86 249l-85 -249h-78l-110 339h80l72 -242l84 242h77z" />
    <glyph glyph-name="x.ordn" horiz-adv-x="413" 
d="M161 481l-122 167h90l78 -113l77 113h87l-120 -166l26 -36.5l35.5 -50l36 -50l26.5 -36.5h-89l-82 118l-14 -20.5l-26 -38.5l-26.5 -39t-14.5 -20h-86z" />
    <glyph glyph-name="y.ordn" horiz-adv-x="418" 
d="M90 170l83 178l-146 300h86l100 -222l96 222h79l-217 -478h-81z" />
    <glyph glyph-name="z.ordn" horiz-adv-x="409" 
d="M67 309v66l178 207h-174v66h268v-64l-179 -209h182v-66h-275z" />
    <glyph glyph-name="space.tf" 
 />
    <glyph glyph-name="numbersign.tf" 
d="M455 481h97v-81h-114l-32 -150h97v-81h-115l-36 -169h-88l36 169h-116l-36 -169h-88l36 169h-88v81h106l32 150h-89v81h106l36 167h88l-36 -167h116l36 167h88zM202 250h116l32 150h-116z" />
    <glyph glyph-name="dollar.tf" 
d="M259 -108v104q-52 5 -91 24.5t-66 47t-42 60.5t-19 66l95 30q2 -24 10.5 -47t23.5 -42t37 -32.5t52 -18.5v209l-25 5q-77 16 -121.5 62t-44.5 120q0 36 14 68t39.5 57.5t60.5 42.5t77 22v105h78v-106q46 -6 79 -23t55 -40t34.5 -49.5t18.5 -50.5l-90 -33q-2 14 -9 30
t-19 31t-29 27.5t-40 18.5v-205l15 -3q84 -17 131 -67.5t47 -118.5q0 -33 -12.5 -65t-36.5 -58t-60 -43.5t-84 -23.5v-104h-78zM432 181q0 32 -23 58.5t-72 37.5v-193q49 9 72 35.5t23 61.5zM167 484q0 -32 20.5 -56.5t71.5 -34.5v190q-44 -8 -68 -35t-24 -64z" />
    <glyph glyph-name="percent.tf" 
d="M526 448l-482 -327v90l482 329v-92zM94 520q0 -27 17.5 -44.5t42.5 -17.5q26 0 43.5 17.5t17.5 44.5q0 26 -17.5 43t-43.5 17q-25 0 -42.5 -17t-17.5 -43zM18 520q0 28 11 52t29.5 42t43.5 28.5t52 10.5t52 -10.5t44 -28.5t30 -42t11 -52q0 -29 -11 -53.5t-30 -42.5
t-44 -28.5t-52 -10.5t-52 10.5t-43.5 28.5t-29.5 42.5t-11 53.5zM345 127q0 -27 17.5 -44.5t42.5 -17.5q26 0 43.5 17.5t17.5 44.5q0 26 -17.5 43t-43.5 17q-25 0 -42.5 -17t-17.5 -43zM269 127q0 28 11 52t29.5 42t43.5 28.5t52 10.5t52 -10.5t44 -28.5t30 -42t11 -52
q0 -29 -11 -53.5t-30 -42.5t-44 -28.5t-52 -10.5t-52 10.5t-43.5 28.5t-29.5 42.5t-11 53.5z" />
    <glyph glyph-name="plus.tf" 
d="M239 327v195h82v-195h188v-79h-188v-197h-82v197h-187v79h187z" />
    <glyph glyph-name="comma.tf" 
d="M191 74q0 31 24 54t60 23q37 0 65.5 -27t28.5 -83q0 -57 -17 -98t-42 -67.5t-55 -40.5t-57 -18v60q21 5 39 17t30 29t19.5 37t7.5 41q-2 -2 -9 -4t-16 -2q-33 0 -55.5 21t-22.5 58z" />
    <glyph glyph-name="period.tf" 
d="M200 74q0 33 23 56.5t57 23.5q33 0 56.5 -23.5t23.5 -56.5q0 -34 -23.5 -57t-56.5 -23q-34 0 -57 23t-23 57z" />
    <glyph glyph-name="zero.tf" 
d="M131 324q0 -38 4 -82t19 -81.5t44.5 -63t81.5 -25.5t81.5 25.5t44.5 63t19 81.5t4 82q0 37 -4 81.5t-19 82t-44.5 63t-81.5 25.5t-81.5 -25.5t-44.5 -63t-19 -82t-4 -81.5zM34 324q0 67 10.5 128.5t41.5 109.5q31 47 80.5 74t113.5 27t113.5 -27t80.5 -74
q31 -48 41.5 -109.5t10.5 -128.5t-10.5 -128.5t-41.5 -109.5q-31 -47 -80.5 -74t-113.5 -27t-113.5 27t-80.5 74q-31 48 -41.5 109.5t-10.5 128.5z" />
    <glyph glyph-name="one.tf" 
d="M268 88v369h-157v69q68 2 112 35.5t55 86.5h86v-560h156v-88h-415v88h163z" />
    <glyph glyph-name="two.tf" 
d="M61 427q-1 7 -1 13.5v12.5q0 42 15 80t43.5 67t70.5 46t95 17q52 0 93 -16t69 -43t42.5 -63.5t14.5 -76.5q0 -64 -33 -114.5t-89 -85.5l-128 -82q-28 -18 -50 -39.5t-29 -51.5h333v-91h-454q1 40 9.5 75t27 67t47.5 60.5t70 55.5l108 70q46 29 67.5 63t21.5 72
q0 22 -7.5 42.5t-22.5 36.5t-38 25.5t-54 9.5q-32 0 -55.5 -10.5t-39 -28.5t-23 -42t-7.5 -52q0 -7 0.5 -14t1.5 -15z" />
    <glyph glyph-name="three.tf" 
d="M170 382l191 176h-310v90h440v-88l-185 -171q36 0 71.5 -12t64 -36.5t46.5 -61.5t18 -87q0 -41 -15.5 -78.5t-45.5 -66.5t-73.5 -46t-100.5 -17q-56 0 -100 17t-74.5 45.5t-47.5 65t-19 76.5l96 22q1 -32 13 -58t31.5 -44t45 -28t54.5 -10q33 0 59 9.5t43 26t26 38.5
t9 46q0 32 -11.5 55t-30.5 37.5t-42.5 21.5t-47.5 7q-29 0 -57 -10z" />
    <glyph glyph-name="four.tf" 
d="M37 259l278 389h135v-411h101v-91h-101v-146h-95v146h-318v113zM355 554l-228 -317h228v317z" />
    <glyph glyph-name="five.tf" 
d="M134 204q5 -60 45 -97t101 -37q29 0 54.5 9t44 26.5t29.5 41.5t11 54q0 33 -11.5 58.5t-30.5 42t-44.5 25t-53.5 8.5q-35 0 -66 -12.5t-52 -34.5q-26 10 -48.5 19.5t-47.5 18.5l84 322h342v-90h-277l-48 -186q22 24 58 36t74 12q48 0 88 -15t69.5 -42.5t46 -67.5
t16.5 -90q0 -46 -17 -86t-48 -70t-75 -47.5t-98 -17.5q-52 0 -94.5 15.5t-74 42t-50 61.5t-21.5 73z" />
    <glyph glyph-name="six.tf" 
d="M482 547q-18 11 -48.5 19.5t-67.5 8.5q-51 0 -91.5 -17.5t-70 -48t-46.5 -73t-20 -92.5q20 32 63 57.5t108 25.5q48 0 89 -15t70.5 -43.5t46.5 -69.5t17 -93q0 -51 -20 -92t-53 -69.5t-76.5 -44t-91.5 -15.5q-47 0 -92 17t-81 53t-58 93t-22 137q0 90 25.5 160.5
t70.5 119t106 73.5t132 25q45 0 81 -10t59 -26zM152 206q0 -32 12 -57t31.5 -42.5t44.5 -27t52 -9.5q28 0 54 9t45 26.5t30.5 43t11.5 57.5q0 33 -11.5 58.5t-31 43t-45 26.5t-53.5 9t-53.5 -9t-44.5 -26.5t-30.5 -43t-11.5 -58.5z" />
    <glyph glyph-name="seven.tf" 
d="M526 554q-23 -18 -65.5 -58.5t-87.5 -108t-82 -163t-49 -224.5h-101q5 70 20 131.5t35 114t44.5 96t49.5 78.5q58 81 128 138h-385v90h493v-94z" />
    <glyph glyph-name="eight.tf" 
d="M280 372q52 1 86 29.5t34 76.5q0 44 -32.5 74t-87.5 30t-87.5 -30t-32.5 -74q0 -48 34 -76.5t86 -29.5zM280 70q66 0 101 31.5t35 77.5q0 47 -35.5 79t-100.5 32t-100.5 -32t-35.5 -79q0 -46 35 -77.5t101 -31.5zM280 -15q-56 0 -99.5 14.5t-73.5 39.5t-46 59t-16 73
q0 60 35.5 101.5t87.5 58.5q-22 8 -41.5 23t-33.5 34.5t-22.5 43.5t-8.5 51q0 40 16.5 73t46 57t69 37t86.5 13q46 0 86 -13t69.5 -37t46 -57t16.5 -73q0 -53 -30.5 -94t-75.5 -58q52 -17 87.5 -58.5t35.5 -101.5q0 -39 -16 -73t-46 -59t-73.5 -39.5t-99.5 -14.5z" />
    <glyph glyph-name="nine.tf" 
d="M76 104q21 -13 53.5 -22t64.5 -9q59 0 101 18t69 49t40 72.5t15 89.5q-17 -32 -59.5 -57t-108.5 -25q-42 0 -82.5 14t-72 42t-50.5 68.5t-19 94.5q0 50 19.5 91.5t52.5 71t76 45.5t91 16t93 -17.5t80.5 -54t57 -92.5t21.5 -134q0 -89 -20 -159.5t-60.5 -119.5t-101 -75
t-142.5 -26q-19 0 -40 3t-41.5 8t-38.5 12t-30 15zM406 441q0 31 -12 56.5t-31.5 43t-44.5 27t-52 9.5t-52.5 -9.5t-45 -27t-31 -42.5t-11.5 -57q0 -33 11.5 -58.5t31 -43t44.5 -26.5t53 -9q27 0 52 9.5t44.5 27t31.5 43t12 57.5z" />
    <glyph glyph-name="colon.tf" 
d="M203 412q0 32 22 54.5t54 22.5t54.5 -22.5t22.5 -54.5q0 -31 -22.5 -53.5t-54.5 -22.5t-54 22.5t-22 53.5zM203 65q0 32 22 54.5t54 22.5t54.5 -22.5t22.5 -54.5q0 -31 -22.5 -53.5t-54.5 -22.5t-54 22.5t-22 53.5z" />
    <glyph glyph-name="semicolon.tf" 
d="M204 412q0 32 22 54.5t54 22.5t54.5 -22.5t22.5 -54.5q0 -31 -22.5 -53.5t-54.5 -22.5t-54 22.5t-22 53.5zM202 70q0 28 22 49.5t56 21.5q33 0 59 -25t26 -76q0 -53 -15 -90.5t-38.5 -62t-51 -37.5t-51.5 -17v56q19 4 35 15t27.5 27t18.5 34.5t7 37.5q-3 -2 -9 -3.5
t-15 -1.5q-29 0 -50 19t-21 53z" />
    <glyph glyph-name="less.tf" 
d="M74 329l412 206v-95l-310 -153l310 -153v-95l-412 205v85z" />
    <glyph glyph-name="equal.tf" 
d="M49 346v77h463v-77h-463zM49 151v79h463v-79h-463z" />
    <glyph glyph-name="greater.tf" 
d="M486 244l-412 -205v95l312 153l-312 153v95l412 -206v-85z" />
    <glyph glyph-name="cent.tf" 
d="M252 0v94q-42 7 -77 28t-59.5 52t-38.5 70t-14 84q0 46 14 85t39 69.5t60 50.5t76 28v88h76v-86q38 -4 67.5 -17.5t50.5 -33t34.5 -43t20.5 -46.5l-81 -33q-4 13 -11 27.5t-18 27t-26.5 22t-36.5 14.5v-307q23 4 39.5 14.5t28.5 23t19 26t10 25.5l80 -33
q-8 -22 -22.5 -45t-36.5 -42.5t-51.5 -33t-66.5 -17.5v-92h-76zM156 328q0 -60 27 -98t69 -52v299q-41 -14 -68.5 -51.5t-27.5 -97.5z" />
    <glyph glyph-name="sterling.tf" 
d="M130 359q-11 25 -20.5 54t-9.5 64q0 40 14.5 74t41 59t62 39t77.5 14q58 0 96 -16.5t61.5 -42.5t33.5 -57.5t12 -61.5l-98 -17q-1 56 -29 82.5t-74 26.5q-40 0 -69.5 -25.5t-29.5 -74.5q0 -30 9.5 -59t23.5 -59h184v-86h-158q1 -7 1.5 -13.5t0.5 -13.5q0 -53 -25 -94.5
t-70 -64.5h171q25 0 43.5 9t30 23.5t17 33.5t5.5 40l94 -14q0 -39 -11.5 -72t-32.5 -56.5t-52 -37t-70 -13.5h-305v95q51 21 80.5 59.5t29.5 80.5q0 22 -4 38h-100v86h70z" />
    <glyph glyph-name="currency.tf" 
d="M71 239q0 34 10 64.5t27 56.5l-75 77l60 59l75 -78q26 17 55 26t61 9q60 0 111 -31l72 74l60 -59l-70 -73q19 -26 30 -58t11 -67t-10.5 -66.5t-29.5 -56.5l69 -71l-59 -59l-70 72q-25 -16 -54 -24.5t-60 -8.5q-33 0 -63 10t-56 27l-73 -76l-59 59l73 76q-17 26 -26 55.5
t-9 62.5zM154 239q0 -29 10 -53.5t28 -42t41.5 -27t50.5 -9.5t50.5 9.5t40.5 27t27 42t10 53.5t-10 53t-27 41.5t-40.5 27t-50.5 9.5t-50.5 -9.5t-41.5 -27t-28 -41.5t-10 -53z" />
    <glyph glyph-name="yen.tf" 
d="M334 155v-155h-97v155h-169v72h169v80h-169v71h117l-171 270h114l157 -261l149 261h112l-163 -270h119v-71h-168v-80h168v-72h-168z" />
    <glyph glyph-name="section.tf" horiz-adv-x="558" 
d="M480 247q0 -23 -8 -43t-20 -36.5t-27 -28t-29 -17.5q42 -26 65 -64.5t23 -80.5t-16.5 -76t-45 -58t-65.5 -37t-78 -13q-48 0 -84.5 13.5t-61.5 38t-37.5 59t-13.5 75.5l89 18q0 -55 27 -90t83 -35q47 0 76.5 24.5t29.5 70.5q0 28 -16 50.5t-43 36.5l-104 54
q-28 14 -53 30t-44 36t-30.5 45.5t-11.5 59.5q0 23 8 43.5t20.5 36.5t27.5 27.5t29 16.5q-43 26 -66 65t-23 81t16.5 76t45 57.5t65.5 36.5t78 13q48 0 85 -14.5t61.5 -39.5t37.5 -58.5t13 -72.5l-90 -18q0 56 -27 90t-82 34q-48 0 -77.5 -26t-29.5 -69q0 -55 60 -86
l103 -54q28 -15 53 -31t44.5 -36t31 -45.5t11.5 -58.5zM224 374q-17 -8 -32.5 -30t-15.5 -50t14.5 -49t49.5 -39l100 -54q17 8 32.5 29.5t15.5 50.5q0 28 -14.5 49t-49.5 39z" />
    <glyph glyph-name="logicalnot.tf" 
d="M407 149v195h-379v82h463v-277h-84z" />
    <glyph glyph-name="plusminus.tf" 
d="M239 386v136h82v-136h178v-77h-178v-134h-82v134h-177v77h177zM499 130v-79h-437v79h437z" />
    <glyph glyph-name="multiply.tf" 
d="M279 230l-168 -174l-56 56l169 176l-168 174l57 57l167 -174l167 174l57 -56l-169 -175l170 -176l-56 -57z" />
    <glyph glyph-name="divide.tf" 
d="M214 465q0 26 19.5 45t45.5 19t45 -19t19 -45t-19 -45.5t-45 -19.5t-45.5 19.5t-19.5 45.5zM51 329h457v-83h-457v83zM214 110q0 26 19.5 45t45.5 19t45 -19t19 -45t-19 -45.5t-45 -19.5t-45.5 19.5t-19.5 45.5z" />
    <glyph glyph-name="florin.tf" 
d="M254 398h-110v83h127l23 113q7 38 23.5 65.5t39 45t49 26t53.5 8.5q29 0 44.5 -2.5t29.5 -7.5v-83q-11 3 -24 5t-29 2q-13 0 -27.5 -2.5t-27.5 -12t-24 -28t-17 -49.5l-16 -80h129v-83h-146l-82 -411q-8 -38 -24 -65.5t-38.5 -45t-49 -26t-53.5 -8.5q-31 0 -47 2.5
t-30 7.5v83q11 -3 24.5 -5t31.5 -2q13 0 27.5 3t27.5 12.5t24 27.5t17 49z" />
    <glyph glyph-name="uni2007.tf" 
 />
    <glyph glyph-name="uni2008.tf" 
 />
    <glyph glyph-name="perthousand.tf" 
d="M528 540l-482 -376v90l482 378v-92zM82 536q0 -24 16 -39.5t39 -15.5t38 15.5t15 39.5t-15 39.5t-38 15.5t-39 -15.5t-16 -39.5zM17 536q0 25 9.5 46.5t26 37.5t38.5 25t46 9t45.5 -9t38 -25t26.5 -37.5t10 -46.5t-10 -46.5t-26.5 -37.5t-38 -25t-45.5 -9t-46 9t-38.5 25
t-26 37.5t-9.5 46.5zM132 107q0 25 9.5 46.5t26 37.5t38.5 25t46 9q25 0 47 -10.5t38 -27.5q16 17 38 27.5t48 10.5q24 0 45.5 -9t38 -25t26.5 -37.5t10 -46.5t-10 -46.5t-26.5 -37.5t-38 -25t-45.5 -9q-53 0 -86 38q-33 -38 -85 -38q-24 0 -46 9t-38.5 25t-26 37.5
t-9.5 46.5zM252 162q-23 0 -39 -15.5t-16 -39.5t16 -39.5t39 -15.5t38 15.5t15 39.5t-15 39.5t-38 15.5zM423 162q-23 0 -39 -15.5t-16 -39.5t16 -39.5t39 -15.5t38 15.5t15 39.5t-15 39.5t-38 15.5z" />
    <glyph glyph-name="Euro.tf" 
d="M115 325q0 11 0.5 23.5t1.5 16.5h-74v78h89q18 55 50.5 96.5t74 69t89.5 41t96 13.5q41 0 63 -4.5t45 -12.5l-23 -82q-11 3 -31.5 7.5t-53.5 4.5q-68 0 -124 -32.5t-84 -100.5h257l-24 -78h-252q-3 -17 -3 -40q0 -14 0.5 -25t2.5 -18h235l-24 -80h-190q29 -66 84.5 -97
t121.5 -31q33 0 54 4.5t31 7.5l23 -82q-23 -8 -45 -12.5t-63 -4.5q-48 0 -95 13.5t-88.5 40t-74 67t-50.5 94.5h-91v80h74q-1 5 -1.5 18.5t-0.5 24.5z" />
    <glyph glyph-name="minus.tf" 
d="M68 248v79h423v-79h-423z" />
    <glyph glyph-name="approxequal.tf" 
d="M529 384q-28 -40 -65 -61.5t-81 -21.5q-48 0 -100 30l-47 26q-32 17 -62 17q-52 0 -91 -45l-53 47q29 42 65 63.5t78 21.5q26 0 50.5 -8t52.5 -23l46 -25q35 -20 70 -20q49 0 86 44zM529 190q-28 -40 -65 -61.5t-81 -21.5q-48 0 -100 30l-47 26q-32 17 -62 17
q-52 0 -91 -45l-53 47q29 42 65 63.5t78 21.5q26 0 50.5 -8t52.5 -23l46 -25q35 -20 70 -20q49 0 86 44z" />
    <glyph glyph-name="notequal.tf" 
d="M239 151l-74 -100h-96l74 100h-95v79h153l85 116h-238v77h295l73 99h96l-73 -99h72v-77h-129l-85 -116h214v-79h-272z" />
    <glyph glyph-name="lessequal.tf" 
d="M486 130v-79h-412v79h412zM74 389l412 146v-84l-307 -104l307 -104v-84l-412 145v85z" />
    <glyph glyph-name="greaterequal.tf" 
d="M486 130v-79h-412v79h412zM486 304l-412 -145v84l307 104l-307 104v84l412 -146v-85z" />
    <glyph glyph-name="parenleft.case" horiz-adv-x="297" 
d="M55 352q0 73 15 137t40.5 119t59.5 101.5t72 84.5l55 -49q-38 -42 -68 -85.5t-50.5 -91.5t-31.5 -101.5t-11 -114.5q0 -62 11 -115t31.5 -101t50.5 -91.5t68 -85.5l-55 -49q-38 38 -72 84.5t-59.5 101.5t-40.5 118.5t-15 137.5z" />
    <glyph glyph-name="parenright.case" horiz-adv-x="297" 
d="M242 352q0 -74 -15 -137.5t-40.5 -118.5t-59.5 -101.5t-72 -84.5l-55 49q38 42 68 85.5t50.5 91.5t31.5 101t11 115q0 61 -11 114.5t-31.5 101.5t-50.5 91.5t-68 85.5l55 49q38 -38 72 -84.5t59.5 -101.5t40.5 -119t15 -137z" />
    <glyph glyph-name="hyphen.case" horiz-adv-x="361" 
d="M45 296v82h271v-82h-271z" />
    <glyph glyph-name="bracketleft.case" horiz-adv-x="288" 
d="M90 -90v890h193v-76h-111v-739h111v-75h-193z" />
    <glyph glyph-name="bracketright.case" horiz-adv-x="288" 
d="M5 -90v75h111v739h-111v76h193v-890h-193z" />
    <glyph glyph-name="braceleft.case" horiz-adv-x="353" 
d="M45 397q22 0 42 5.5t35 17.5t24 31t9 47v116q0 94 46 140t134 46h13v-75h-13q-56 0 -77 -25t-21 -80v-143q0 -51 -28 -82.5t-76 -40.5q48 -9 76 -40.5t28 -82.5v-141q0 -55 21 -80t77 -25h13v-75h-13q-88 0 -134 46t-46 140v114q0 28 -9 47t-24 31t-35 17.5t-42 5.5v86z
" />
    <glyph glyph-name="braceright.case" horiz-adv-x="353" 
d="M308 311q-22 0 -42 -5.5t-35 -17.5t-24 -31t-9 -47v-114q0 -94 -46 -140t-134 -46h-13v75h13q56 0 77 25t21 80v141q0 51 28 82.5t76 40.5q-48 9 -76 40.5t-28 82.5v143q0 55 -21 80t-77 25h-13v75h13q88 0 134 -46t46 -140v-116q0 -28 9 -47t24 -31t35 -17.5t42 -5.5
v-86z" />
    <glyph glyph-name="exclamdown.case" horiz-adv-x="311" 
d="M214 0h-118l26 505h67zM90 647q0 27 19 46.5t46 19.5t46.5 -19.5t19.5 -46.5t-19.5 -46t-46.5 -19t-46 19t-19 46z" />
    <glyph glyph-name="guillemotleft.case" horiz-adv-x="471" 
d="M163 149l-133 191l133 191h93l-131 -191l131 -191h-93zM358 149l-133 191l133 191h93l-131 -191l131 -191h-93z" />
    <glyph glyph-name="uni00AD.case" horiz-adv-x="361" 
d="M45 313v82h271v-82h-271z" />
    <glyph glyph-name="guillemotright.case" horiz-adv-x="471" 
d="M215 149l131 191l-131 191h93l133 -191l-133 -191h-93zM20 149l131 191l-131 191h93l133 -191l-133 -191h-93z" />
    <glyph glyph-name="questiondown.case" horiz-adv-x="510" 
d="M314 508q1 -9 1 -17v-18q0 -50 -19 -88t-64 -68l-44 -30q-26 -17 -39.5 -43t-13.5 -55q0 -22 7.5 -42.5t22 -36.5t37 -25.5t52.5 -9.5q33 0 56.5 11t38.5 29t22.5 41t7.5 47q0 13 -2 27t-5 22l97 -12q6 -21 6 -48q0 -35 -13 -71t-40 -66t-68.5 -49t-99.5 -19
q-53 0 -93.5 17t-68.5 45t-42.5 64.5t-14.5 74.5q0 60 29 102.5t73 71.5l46 31q23 16 33.5 41.5t10.5 54.5v9.5t-1 9.5h88zM335 650q0 -27 -19 -46.5t-46 -19.5t-46.5 19.5t-19.5 46.5t19.5 46t46.5 19t46 -19t19 -46z" />
    <glyph glyph-name="endash.case" horiz-adv-x="622" 
d="M56 296v82h512v-82h-512z" />
    <glyph glyph-name="emdash.case" horiz-adv-x="1083" 
d="M66 296v82h953v-82h-953z" />
    <glyph glyph-name="guilsinglleft.case" horiz-adv-x="276" 
d="M163 149l-133 191l133 191h93l-131 -191l131 -191h-93z" />
    <glyph glyph-name="guilsinglright.case" horiz-adv-x="276" 
d="M20 149l131 191l-131 191h93l133 -191l-133 -191h-93z" />
    <glyph glyph-name="G.ss01" horiz-adv-x="767" 
d="M401 -15q-67 0 -131 24.5t-114 71.5t-80.5 116t-30.5 158t30.5 157.5t80.5 115.5t114 71.5t131 24.5q59 0 110.5 -16t92.5 -45t69.5 -71t42.5 -93l-91 -31q-23 82 -80.5 124t-143.5 42q-50 0 -96 -17t-81.5 -52t-57 -87.5t-21.5 -122.5q0 -71 21.5 -123.5t57 -87.5
t81.5 -52.5t96 -17.5q49 0 89 14t68.5 38t46 56.5t22.5 68.5h-286v88h385q1 -6 1 -12.5v-12.5q0 -68 -20.5 -127.5t-61.5 -104.5t-102 -71t-142 -26z" />
    <glyph glyph-name="Gcircumflex.ss01" horiz-adv-x="767" 
d="M401 -15q-67 0 -131 24.5t-114 71.5t-80.5 116t-30.5 158t30.5 157.5t80.5 115.5t114 71.5t131 24.5q59 0 110.5 -16t92.5 -45t69.5 -71t42.5 -93l-91 -31q-23 82 -80.5 124t-143.5 42q-50 0 -96 -17t-81.5 -52t-57 -87.5t-21.5 -122.5q0 -71 21.5 -123.5t57 -87.5
t81.5 -52.5t96 -17.5q49 0 89 14t68.5 38t46 56.5t22.5 68.5h-286v88h385q1 -6 1 -12.5v-12.5q0 -68 -20.5 -127.5t-61.5 -104.5t-102 -71t-142 -26zM227 759l112 119h120l117 -119h-92l-85 64l-81 -64h-91z" />
    <glyph glyph-name="Gbreve.ss01" horiz-adv-x="767" 
d="M401 -15q-67 0 -131 24.5t-114 71.5t-80.5 116t-30.5 158t30.5 157.5t80.5 115.5t114 71.5t131 24.5q59 0 110.5 -16t92.5 -45t69.5 -71t42.5 -93l-91 -31q-23 82 -80.5 124t-143.5 42q-50 0 -96 -17t-81.5 -52t-57 -87.5t-21.5 -122.5q0 -71 21.5 -123.5t57 -87.5
t81.5 -52.5t96 -17.5q49 0 89 14t68.5 38t46 56.5t22.5 68.5h-286v88h385q1 -6 1 -12.5v-12.5q0 -68 -20.5 -127.5t-61.5 -104.5t-102 -71t-142 -26zM397 754q-38 0 -66.5 11t-48 29.5t-30.5 41.5t-12 47h81q1 -9 5 -18.5t13 -18t23.5 -14t34.5 -5.5t34 5.5t23 14t13 18
t5 18.5h81q-2 -24 -12 -47t-29.5 -41.5t-48 -29.5t-66.5 -11z" />
    <glyph glyph-name="Gdotaccent.ss01" horiz-adv-x="767" 
d="M401 -15q-67 0 -131 24.5t-114 71.5t-80.5 116t-30.5 158t30.5 157.5t80.5 115.5t114 71.5t131 24.5q59 0 110.5 -16t92.5 -45t69.5 -71t42.5 -93l-91 -31q-23 82 -80.5 124t-143.5 42q-50 0 -96 -17t-81.5 -52t-57 -87.5t-21.5 -122.5q0 -71 21.5 -123.5t57 -87.5
t81.5 -52.5t96 -17.5q49 0 89 14t68.5 38t46 56.5t22.5 68.5h-286v88h385q1 -6 1 -12.5v-12.5q0 -68 -20.5 -127.5t-61.5 -104.5t-102 -71t-142 -26zM333 818q0 26 18.5 45t44.5 19t45 -19t19 -45t-19 -44.5t-45 -18.5t-44.5 18.5t-18.5 44.5z" />
    <glyph glyph-name="Gcommaaccent.ss01" horiz-adv-x="767" 
d="M401 -15q-67 0 -131 24.5t-114 71.5t-80.5 116t-30.5 158t30.5 157.5t80.5 115.5t114 71.5t131 24.5q59 0 110.5 -16t92.5 -45t69.5 -71t42.5 -93l-91 -31q-23 82 -80.5 124t-143.5 42q-50 0 -96 -17t-81.5 -52t-57 -87.5t-21.5 -122.5q0 -71 21.5 -123.5t57 -87.5
t81.5 -52.5t96 -17.5q49 0 89 14t68.5 38t46 56.5t22.5 68.5h-286v88h385q1 -6 1 -12.5v-12.5q0 -68 -20.5 -127.5t-61.5 -104.5t-102 -71t-142 -26zM345 -88q0 23 18 37.5t41 14.5q22 0 43.5 -16.5t21.5 -56.5q0 -29 -10 -50t-26.5 -35t-37 -20.5t-40.5 -6.5v40
q26 0 44.5 15t20.5 33q-2 -2 -8 -4t-13 -2q-23 0 -38.5 12.5t-15.5 38.5z" />
    <glyph glyph-name="a.ss02" horiz-adv-x="583" 
d="M136 244q0 -37 9.5 -69t27.5 -55t44 -36.5t60 -13.5q32 0 58 13.5t44 36.5t27.5 55t9.5 69q0 75 -36.5 121t-101.5 46t-103.5 -46t-38.5 -121zM417 73q-17 -35 -54.5 -60.5t-94.5 -25.5q-53 0 -95 20t-71.5 55t-45.5 81.5t-16 100.5q0 51 16.5 96.5t46.5 79.5t72 54
t93 20q32 0 56.5 -7t42.5 -18.5t30 -26t18 -29.5v68h93v-392q0 -32 2 -57t3 -32h-91q-2 8 -3.5 25.5t-1.5 39.5v8z" />
    <glyph glyph-name="agrave.ss02" horiz-adv-x="583" 
d="M136 244q0 -37 9.5 -69t27.5 -55t44 -36.5t60 -13.5q32 0 58 13.5t44 36.5t27.5 55t9.5 69q0 75 -36.5 121t-101.5 46t-103.5 -46t-38.5 -121zM417 73q-17 -35 -54.5 -60.5t-94.5 -25.5q-53 0 -95 20t-71.5 55t-45.5 81.5t-16 100.5q0 51 16.5 96.5t46.5 79.5t72 54
t93 20q32 0 56.5 -7t42.5 -18.5t30 -26t18 -29.5v68h93v-392q0 -32 2 -57t3 -32h-91q-2 8 -3.5 25.5t-1.5 39.5v8zM112 689h118l86 -146h-78z" />
    <glyph glyph-name="aacute.ss02" horiz-adv-x="583" 
d="M136 244q0 -37 9.5 -69t27.5 -55t44 -36.5t60 -13.5q32 0 58 13.5t44 36.5t27.5 55t9.5 69q0 75 -36.5 121t-101.5 46t-103.5 -46t-38.5 -121zM417 73q-17 -35 -54.5 -60.5t-94.5 -25.5q-53 0 -95 20t-71.5 55t-45.5 81.5t-16 100.5q0 51 16.5 96.5t46.5 79.5t72 54
t93 20q32 0 56.5 -7t42.5 -18.5t30 -26t18 -29.5v68h93v-392q0 -32 2 -57t3 -32h-91q-2 8 -3.5 25.5t-1.5 39.5v8zM292 543h-79l87 146h118z" />
    <glyph glyph-name="acircumflex.ss02" horiz-adv-x="583" 
d="M136 244q0 -37 9.5 -69t27.5 -55t44 -36.5t60 -13.5q32 0 58 13.5t44 36.5t27.5 55t9.5 69q0 75 -36.5 121t-101.5 46t-103.5 -46t-38.5 -121zM417 73q-17 -35 -54.5 -60.5t-94.5 -25.5q-53 0 -95 20t-71.5 55t-45.5 81.5t-16 100.5q0 51 16.5 96.5t46.5 79.5t72 54
t93 20q32 0 56.5 -7t42.5 -18.5t30 -26t18 -29.5v68h93v-392q0 -32 2 -57t3 -32h-91q-2 8 -3.5 25.5t-1.5 39.5v8zM127 545l104 139h107l104 -139h-88l-70 81l-70 -81h-87z" />
    <glyph glyph-name="atilde.ss02" horiz-adv-x="583" 
d="M136 244q0 -37 9.5 -69t27.5 -55t44 -36.5t60 -13.5q32 0 58 13.5t44 36.5t27.5 55t9.5 69q0 75 -36.5 121t-101.5 46t-103.5 -46t-38.5 -121zM417 73q-17 -35 -54.5 -60.5t-94.5 -25.5q-53 0 -95 20t-71.5 55t-45.5 81.5t-16 100.5q0 51 16.5 96.5t46.5 79.5t72 54
t93 20q32 0 56.5 -7t42.5 -18.5t30 -26t18 -29.5v68h93v-392q0 -32 2 -57t3 -32h-91q-2 8 -3.5 25.5t-1.5 39.5v8zM436 662q0 -56 -27.5 -82.5t-69.5 -26.5q-20 0 -36 6.5t-30 15.5l-14 9q-10 6 -18.5 10t-18.5 4q-14 0 -21.5 -9t-7.5 -34h-72v15q0 56 28 82.5t70 26.5
q20 0 36.5 -6.5t30.5 -15.5l14 -9q10 -6 18 -10t18 -4q15 0 22 9.5t7 33.5h71v-15z" />
    <glyph glyph-name="adieresis.ss02" horiz-adv-x="583" 
d="M136 244q0 -37 9.5 -69t27.5 -55t44 -36.5t60 -13.5q32 0 58 13.5t44 36.5t27.5 55t9.5 69q0 75 -36.5 121t-101.5 46t-103.5 -46t-38.5 -121zM417 73q-17 -35 -54.5 -60.5t-94.5 -25.5q-53 0 -95 20t-71.5 55t-45.5 81.5t-16 100.5q0 51 16.5 96.5t46.5 79.5t72 54
t93 20q32 0 56.5 -7t42.5 -18.5t30 -26t18 -29.5v68h93v-392q0 -32 2 -57t3 -32h-91q-2 8 -3.5 25.5t-1.5 39.5v8zM130 621q0 24 16.5 41t40.5 17q25 0 42 -17t17 -41q0 -25 -17 -41.5t-42 -16.5q-24 0 -40.5 16.5t-16.5 41.5zM317 621q0 24 16.5 41t41.5 17q24 0 41 -17
t17 -41q0 -25 -17 -41.5t-41 -16.5q-25 0 -41.5 16.5t-16.5 41.5z" />
    <glyph glyph-name="aring.ss02" horiz-adv-x="583" 
d="M136 244q0 -37 9.5 -69t27.5 -55t44 -36.5t60 -13.5q32 0 58 13.5t44 36.5t27.5 55t9.5 69q0 75 -36.5 121t-101.5 46t-103.5 -46t-38.5 -121zM417 73q-17 -35 -54.5 -60.5t-94.5 -25.5q-53 0 -95 20t-71.5 55t-45.5 81.5t-16 100.5q0 51 16.5 96.5t46.5 79.5t72 54
t93 20q32 0 56.5 -7t42.5 -18.5t30 -26t18 -29.5v68h93v-392q0 -32 2 -57t3 -32h-91q-2 8 -3.5 25.5t-1.5 39.5v8zM386 641q0 -23 -9 -43t-24 -34.5t-35.5 -23t-43.5 -8.5q-22 0 -42 8.5t-35.5 23t-24.5 34.5t-9 43t9 43t24.5 35t35.5 23.5t42 8.5q23 0 43.5 -8.5
t35.5 -23.5t24 -35t9 -43zM322 641q0 20 -14 34.5t-35 14.5q-20 0 -33.5 -14.5t-13.5 -34.5t13.5 -34t33.5 -14q21 0 35 14t14 34z" />
    <glyph glyph-name="amacron.ss02" horiz-adv-x="583" 
d="M136 244q0 -37 9.5 -69t27.5 -55t44 -36.5t60 -13.5q32 0 58 13.5t44 36.5t27.5 55t9.5 69q0 75 -36.5 121t-101.5 46t-103.5 -46t-38.5 -121zM417 73q-17 -35 -54.5 -60.5t-94.5 -25.5q-53 0 -95 20t-71.5 55t-45.5 81.5t-16 100.5q0 51 16.5 96.5t46.5 79.5t72 54
t93 20q32 0 56.5 -7t42.5 -18.5t30 -26t18 -29.5v68h93v-392q0 -32 2 -57t3 -32h-91q-2 8 -3.5 25.5t-1.5 39.5v8zM131 577v81h273v-81h-273z" />
    <glyph glyph-name="abreve.ss02" horiz-adv-x="583" 
d="M136 244q0 -37 9.5 -69t27.5 -55t44 -36.5t60 -13.5q32 0 58 13.5t44 36.5t27.5 55t9.5 69q0 75 -36.5 121t-101.5 46t-103.5 -46t-38.5 -121zM417 73q-17 -35 -54.5 -60.5t-94.5 -25.5q-53 0 -95 20t-71.5 55t-45.5 81.5t-16 100.5q0 51 16.5 96.5t46.5 79.5t72 54
t93 20q32 0 56.5 -7t42.5 -18.5t30 -26t18 -29.5v68h93v-392q0 -32 2 -57t3 -32h-91q-2 8 -3.5 25.5t-1.5 39.5v8zM275 545q-35 0 -62 12t-45.5 32t-28.5 45.5t-10 52.5h73q1 -23 18 -44t55 -21t54.5 21t18.5 44h73q0 -27 -9.5 -52.5t-27.5 -45.5t-45.5 -32t-63.5 -12z" />
    <glyph glyph-name="aogonek.ss02" horiz-adv-x="583" 
d="M463 -216q-23 0 -44 7t-37 19.5t-25 31.5t-9 43q0 44 22.5 71t50.5 44q-2 9 -3 26.5t-1 38.5v8q-17 -35 -54.5 -60.5t-94.5 -25.5q-53 0 -95 20t-71.5 55t-45.5 81.5t-16 100.5q0 51 16.5 96.5t46.5 79.5t72 54t93 20q32 0 56.5 -7t42.5 -18.5t30 -26t18 -29.5v68h93
v-392q0 -30 1.5 -52.5t3.5 -36.5q-14 -7 -29 -16t-27.5 -21t-20.5 -27t-8 -33q0 -26 16.5 -36.5t36.5 -10.5q12 0 19 1t13 3v-68q-10 -4 -20.5 -6t-29.5 -2zM136 244q0 -37 9.5 -69t27.5 -55t44 -36.5t60 -13.5q32 0 58 13.5t44 36.5t27.5 55t9.5 69q0 75 -36.5 121
t-101.5 46t-103.5 -46t-38.5 -121z" />
    <glyph glyph-name="aringacute.ss02" horiz-adv-x="583" 
d="M136 244q0 -37 9.5 -69t27.5 -55t44 -36.5t60 -13.5q32 0 58 13.5t44 36.5t27.5 55t9.5 69q0 75 -36.5 121t-101.5 46t-103.5 -46t-38.5 -121zM417 73q-17 -35 -54.5 -60.5t-94.5 -25.5q-53 0 -95 20t-71.5 55t-45.5 81.5t-16 100.5q0 51 16.5 96.5t46.5 79.5t72 54
t93 20q32 0 56.5 -7t42.5 -18.5t30 -26t18 -29.5v68h93v-392q0 -32 2 -57t3 -32h-91q-2 8 -3.5 25.5t-1.5 39.5v8zM307 769h-79l87 146h118zM381 631q0 -23 -9 -43t-24 -34.5t-35.5 -23t-43.5 -8.5q-22 0 -42 8.5t-35.5 23t-24.5 34.5t-9 43t9 43t24.5 35t35.5 23.5t42 8.5
q23 0 43.5 -8.5t35.5 -23.5t24 -35t9 -43zM317 631q0 20 -14 34.5t-35 14.5q-20 0 -33.5 -14.5t-13.5 -34.5t13.5 -34t33.5 -14q21 0 35 14t14 34z" />
    <glyph glyph-name="r.ss03" horiz-adv-x="330" 
d="M174 0h-94v481h94v-481zM175 415q0 30 20.5 50.5t50.5 20.5q29 0 49.5 -20.5t20.5 -50.5q0 -29 -20.5 -49.5t-49.5 -20.5q-30 0 -50.5 20.5t-20.5 49.5z" />
    <glyph glyph-name="racute.ss03" horiz-adv-x="330" 
d="M174 0h-94v481h94v-481zM175 415q0 30 20.5 50.5t50.5 20.5q29 0 49.5 -20.5t20.5 -50.5q0 -29 -20.5 -49.5t-49.5 -20.5q-30 0 -50.5 20.5t-20.5 49.5zM169 543h-79l87 146h118z" />
    <glyph glyph-name="rcommaaccent.ss03" horiz-adv-x="330" 
d="M174 0h-94v481h94v-481zM175 415q0 30 20.5 50.5t50.5 20.5q29 0 49.5 -20.5t20.5 -50.5q0 -29 -20.5 -49.5t-49.5 -20.5q-30 0 -50.5 20.5t-20.5 49.5zM66 -88q0 23 18 37.5t41 14.5q22 0 43.5 -16.5t21.5 -56.5q0 -29 -10 -50t-26.5 -35t-37 -20.5t-40.5 -6.5v40
q26 0 44.5 15t20.5 33q-2 -2 -8 -4t-13 -2q-23 0 -38.5 12.5t-15.5 38.5z" />
    <glyph glyph-name="rcaron.ss03" horiz-adv-x="330" 
d="M174 0h-94v481h94v-481zM175 415q0 30 20.5 50.5t50.5 20.5q29 0 49.5 -20.5t20.5 -50.5q0 -29 -20.5 -49.5t-49.5 -20.5q-30 0 -50.5 20.5t-20.5 49.5zM122 687l70 -81l70 81h88l-102 -142h-111l-102 142h87z" />
    <glyph glyph-name="ampersand.ss04" horiz-adv-x="677" 
d="M387 332h275v-89h-86v-10q0 -51 -16.5 -96t-49 -78.5t-80 -53.5t-109.5 -20q-58 0 -105 15.5t-80.5 43t-52 66t-18.5 84.5q0 39 12.5 71t32.5 56t46.5 40.5t54.5 24.5q-47 17 -79 55.5t-32 99.5q0 38 16 71.5t43.5 58t65.5 39t83 14.5q57 0 97.5 -16.5t67 -43.5
t39.5 -61.5t16 -71.5l-96 -17q-4 57 -34 89.5t-89 32.5q-22 0 -42 -7.5t-35 -20.5t-23.5 -31.5t-8.5 -40.5q0 -26 10.5 -45.5t26.5 -32.5t35 -19t36 -6h13v-90q-25 0 -52.5 -7t-50.5 -23.5t-38 -43.5t-15 -67q0 -24 10 -47t29.5 -40.5t49 -28.5t68.5 -11q73 0 114 42.5
t41 115.5v10h-90v89z" />
    <glyph glyph-name="one.ss05" horiz-adv-x="465" 
d="M208 88v369h-157v69q68 2 112 35.5t55 86.5h86v-560h156v-88h-415v88h163z" />
    <glyph glyph-name="registered.ss06" horiz-adv-x="429" 
d="M25 526q0 39 15 73.5t40.5 60t60 40.5t73.5 15t73.5 -15t60.5 -40.5t41 -60t15 -73.5t-15 -73.5t-41 -60t-60.5 -40.5t-73.5 -15t-73.5 15t-60 40.5t-40.5 60t-15 73.5zM74 526q0 -30 11 -56t29.5 -45.5t44 -30.5t55.5 -11t55.5 11t44.5 30.5t30 45.5t11 56t-11 56
t-30 45.5t-44.5 30.5t-55.5 11t-55.5 -11t-44 -30.5t-29.5 -45.5t-11 -56zM217 537q11 0 18.5 6.5t7.5 17.5t-7.5 16.5t-18.5 5.5h-20v-46h20zM212 495h-15v-65h-52v196h83q29 0 48.5 -19.5t19.5 -45.5q0 -19 -10 -33.5t-26 -22.5l36 -75h-54z" />
    <glyph glyph-name="caron.alt" horiz-adv-x="203" 
d="M104 530h-69l28 179h105z" />
    <glyph glyph-name="commaaccent" horiz-adv-x="194" 
d="M35 659q0 24 18 38t41 14q11 0 22.5 -4t21 -12.5t15.5 -22.5t6 -34q0 -29 -10 -50t-26.5 -35t-37 -20.5t-40.5 -6.5v40q26 0 44.5 15t20.5 33q-1 -1 -6 -3.5t-15 -2.5q-23 0 -38.5 12.5t-15.5 38.5z" />
    <glyph glyph-name="commaturn" horiz-adv-x="172" 
d="M149 586q0 -24 -17 -38t-42 -14q-11 0 -22 4t-21 12.5t-16 22.5t-6 34q0 27 10 48t26.5 35t37 21.5t40.5 7.5v-40q-26 0 -44.5 -15t-20.5 -33q1 1 6.5 3.5t14.5 2.5q24 0 39 -13.5t15 -37.5z" />
    <glyph glyph-name="dieresis.narrow" horiz-adv-x="294" 
d="M23 621q0 23 15 38.5t38 15.5t38.5 -15.5t15.5 -38.5t-15.5 -38t-38.5 -15t-38 15t-15 38zM164 621q0 23 15 38.5t38 15.5t38.5 -15.5t15.5 -38.5t-15.5 -38t-38.5 -15t-38 15t-15 38z" />
    <glyph glyph-name="dieresis.uc.narrow" horiz-adv-x="310" 
d="M25 819q0 23 15 38t38 15t38.5 -15t15.5 -38t-15.5 -38.5t-38.5 -15.5t-38 15.5t-15 38.5zM178 819q0 23 15.5 38t38.5 15t38 -15t15 -38t-15 -38.5t-38 -15.5t-38.5 15.5t-15.5 38.5z" />
    <glyph glyph-name="grave.uc" horiz-adv-x="273" 
d="M18 878h129l102 -119h-93z" />
    <glyph glyph-name="dieresis.uc" horiz-adv-x="407" 
d="M29 819q0 25 17 42t42 17t42 -17t17 -42t-17 -42t-42 -17t-42 17t-17 42zM260 819q0 25 17 42t42 17t42 -17t17 -42t-17 -42t-42 -17t-42 17t-17 42z" />
    <glyph glyph-name="macron.uc" horiz-adv-x="343" 
d="M25 779v83h293v-83h-293z" />
    <glyph glyph-name="acute.uc" horiz-adv-x="273" 
d="M118 759h-94l101 119h130z" />
    <glyph glyph-name="circumflex.uc" horiz-adv-x="403" 
d="M29 759l112 119h120l117 -119h-92l-85 64l-81 -64h-91z" />
    <glyph glyph-name="caron.uc" horiz-adv-x="403" 
d="M120 878l81 -64l85 64h92l-117 -119h-120l-112 119h91z" />
    <glyph glyph-name="breve.uc" horiz-adv-x="371" 
d="M186 754q-38 0 -66.5 11t-48 29.5t-30.5 41.5t-12 47h81q1 -9 5 -18.5t13 -18t23.5 -14t34.5 -5.5t34 5.5t23 14t13 18t5 18.5h81q-2 -24 -12 -47t-29.5 -41.5t-48 -29.5t-66.5 -11z" />
    <glyph glyph-name="dotaccent.uc" horiz-adv-x="177" 
d="M25 818q0 26 18.5 45t44.5 19t45 -19t19 -45t-19 -44.5t-45 -18.5t-44.5 18.5t-18.5 44.5z" />
    <glyph glyph-name="ring.uc" horiz-adv-x="273" 
d="M248 848q0 -23 -9 -43t-24 -34.5t-35.5 -23t-43.5 -8.5q-22 0 -42 8.5t-35.5 23t-24.5 34.5t-9 43t9 43t24.5 35t35.5 23.5t42 8.5q23 0 43.5 -8.5t35.5 -23.5t24 -35t9 -43zM183 848q0 20 -14 33.5t-34 13.5t-33 -13.5t-13 -33.5t13 -33t33 -13t34 13t14 33z" />
    <glyph glyph-name="tilde.uc" horiz-adv-x="373" 
d="M349 865q0 -56 -27 -83.5t-69 -27.5q-22 0 -39 6t-32 17l-15 10q-10 6 -18.5 10t-18.5 4q-16 0 -25.5 -10.5t-9.5 -33.5h-68v16q0 56 27.5 83.5t69.5 27.5q21 0 39.5 -7t33.5 -16l15 -9q11 -6 19.5 -10t18.5 -4q13 0 22.5 7.5t9.5 27.5v8h67v-16z" />
    <glyph glyph-name="hungarumlaut.uc" horiz-adv-x="367" 
d="M95 759h-70l61 119h105zM236 759h-70l71 119h105z" />
    <glyph glyph-name="caron.alt.uc" horiz-adv-x="203" 
d="M108 519h-73l30 190h111z" />
    <glyph glyph-name="undercommaaccent" horiz-adv-x="174" 
d="M25 -88q0 23 18 37.5t41 14.5q22 0 43.5 -16.5t21.5 -56.5q0 -29 -10 -50t-26.5 -35t-37 -20.5t-40.5 -6.5v40q26 0 44.5 15t20.5 33q-2 -2 -8 -4t-13 -2q-23 0 -38.5 12.5t-15.5 38.5z" />
    </font>
</defs>
</svg>
